<?xml version="1.0" encoding="UTF-8"?>
<svg id="OBJECTS" xmlns="http://www.w3.org/2000/svg" xmlns:xlink="http://www.w3.org/1999/xlink" version="1.1" viewBox="0 0 750 66">
  <!-- Generator: Adobe Illustrator 30.0.0, SVG Export Plug-In . SVG Version: 2.1.1 Build 123)  -->
  <defs>
    <style>
      .st0 {
        fill: none;
      }

      .st1 {
        fill: #cf4941;
      }

      .st2 {
        fill: #f22053;
      }

      .st3 {
        fill: #90bafc;
      }

      .st4 {
        fill: #131e59;
      }

      .st5 {
        fill: #f9ede8;
      }

      .st6 {
        fill: #fff;
      }

      .st7 {
        clip-path: url(#clippath);
      }
    </style>
    <clipPath id="clippath">
      <rect class="st0" width="751.4" height="65"/>
    </clipPath>
  </defs>
  <g class="st7">
    <g>
      <rect class="st5" x=".2" y="-156.6" width="374.9" height="221.6"/>
      <polygon class="st3" points="314.9 33 254.6 -61.8 314.9 -61.8 314.9 33"/>
      <polygon class="st2" points="210.6 -109.3 210.6 -85.6 188.5 -85.6 210.6 -109.3"/>
      <polygon class="st2" points="232.6 -109.3 232.6 -85.6 210.6 -85.6 232.6 -109.3"/>
      <polygon class="st2" points="254.6 -109.3 254.6 -85.6 232.6 -85.6 254.6 -109.3"/>
      <polygon class="st1" points="122.1 -126 122.1 34.2 76.7 -45.9 122.1 -126"/>
      <polygon class="st2" points="76.7 -45.9 122.1 -45.9 122.1 -126 76.7 -45.9"/>
      <polygon class="st2" points=".2 -156.6 112 -156.6 56.1 -45.8 .2 -156.6"/>
      <polygon class="st6" points="33.7 -156.6 78.5 -156.6 56.1 -112.2 33.7 -156.6"/>
      <polygon class="st4" points="122.1 -156.8 122.1 -125.1 112.2 -140.9 122.1 -156.8"/>
      <polygon class="st4" points="122.1 -125.1 122.1 -93.4 112.2 -109.3 122.1 -125.1"/>
      <polygon class="st4" points="122.1 -93.4 122.1 -61.7 112.2 -77.6 122.1 -93.4"/>
      <polygon class="st4" points="122.1 -61.7 122.1 -30.1 112.2 -45.9 122.1 -61.7"/>
      <polygon class="st4" points="122.1 -30.1 122.1 1.6 112.2 -14.2 122.1 -30.1"/>
      <polygon class="st4" points="122.1 1.6 122.1 33.3 112.2 17.5 122.1 1.6"/>
      <polygon class="st4" points="122.1 33.3 122.1 65 112.2 49.1 122.1 33.3"/>
      <polygon class="st6" points=".2 -11.2 .2 -80.4 20.2 -45.8 .2 -11.2"/>
      <polygon class="st6" points="375.1 -61.7 375.1 -80.2 364.4 -61.7 375.1 -61.7"/>
      <polygon class="st6" points="375.1 64.7 375.1 -11.4 331 65 375.1 64.7"/>
      <polygon class="st3" points=".2 65 112 65 56.1 -45.8 .2 65"/>
      <polygon class="st1" points="33.7 65 78.5 65 56.1 20.6 33.7 65"/>
      <polygon class="st4" points="56.1 -45.8 56.1 20.6 33.7 65 .2 65 56.1 -45.8"/>
      <polygon class="st1" points="78.5 -156.6 56.1 -112.2 56.1 -45.8 112 -156.6 78.5 -156.6"/>
      <polygon class="st2" points="20.2 -45.8 56.1 -45.8 .2 -156.6 .2 -80.4 20.2 -45.8"/>
      <polygon class="st4" points="122.1 -61.7 122.1 -156.8 166.2 -156.8 122.1 -61.7"/>
      <polygon class="st3" points="166.5 -61.7 166.5 -156.8 210.6 -156.8 166.5 -61.7"/>
      <polygon class="st4" points="166.5 -109.2 166.5 -156.8 188.5 -156.8 166.5 -109.2"/>
      <polygon class="st4" points="210.6 -109.3 210.6 -61.8 188.5 -61.8 210.6 -109.3"/>
      <polygon class="st4" points="232.6 -109.3 232.6 -61.8 210.6 -61.8 232.6 -109.3"/>
      <polygon class="st4" points="254.6 -109.3 254.6 -61.8 232.6 -61.8 254.6 -109.3"/>
      <polygon class="st3" points="232.6 17.5 232.6 65 210.6 65 232.6 17.5"/>
      <polygon class="st3" points="254.6 17.5 254.6 65 232.6 65 254.6 17.5"/>
      <polygon class="st3" points="276.7 17.5 276.7 65 254.6 65 276.7 17.5"/>
      <polygon class="st4" points="232.6 46.6 232.6 65 210.6 65 232.6 46.6"/>
      <polygon class="st4" points="254.6 46.6 254.6 65 232.6 65 254.6 46.6"/>
      <polygon class="st4" points="276.7 46.6 276.7 65 254.6 65 276.7 46.6"/>
      <polygon class="st3" points="122.1 -109.2 122.1 -156.8 144.1 -156.8 122.1 -109.2"/>
      <polygon class="st2" points="122.1 33.3 122.1 -61.8 166.2 -61.8 122.1 33.3"/>
      <polygon class="st4" points="122.1 -14.2 122.1 -61.8 144.1 -61.8 122.1 -14.2"/>
      <rect class="st4" x="166.2" y="-61.8" width="44.4" height="126.8"/>
      <rect class="st1" x="166.2" y="-61.8" width="44.4" height="9.4"/>
      <rect class="st5" x="165.2" y="-52.4" width="46.1" height="9.6"/>
      <rect class="st2" x="166.2" y="-42.8" width="44.4" height="9.4"/>
      <rect class="st5" x="165.2" y="-33.4" width="46.1" height="9.4"/>
      <rect class="st1" x="166.2" y="-24" width="44.4" height="9.4"/>
      <rect class="st2" x="330.7" y="-61.8" width="44.4" height="9.4"/>
      <rect class="st3" x="330.7" y="-42.8" width="44.4" height="9.4"/>
      <rect class="st2" x="330.7" y="-23.8" width="44.4" height="9.4"/>
      <rect class="st3" x="330.7" y="-4.8" width="44.4" height="9.4"/>
      <rect class="st5" x="165.2" y="-14.6" width="46.1" height="9.4"/>
      <path class="st6" d="M59.1-101.2c0,1.7-1.4,3-3,3s-3-1.4-3-3,1.4-3,3-3,3,1.4,3,3Z"/>
      <path class="st6" d="M59.1-72c0,1.7-1.4,3-3,3s-3-1.4-3-3,1.4-3,3-3,3,1.4,3,3Z"/>
      <path class="st6" d="M59.1,20.6c0,1.7-1.4,3-3,3s-3-1.4-3-3,1.4-3,3-3,3,1.4,3,3Z"/>
      <polygon class="st1" points="314.9 -156.6 254.6 -156.6 254.6 -61.8 314.9 -156.6"/>
      <polygon class="st2" points="375.1 -156.6 314.9 -156.6 314.9 -61.8 375.1 -156.6"/>
      <polygon class="st2" points="314.9 -61.8 254.6 -61.8 254.6 33 314.9 -61.8"/>
      <polygon class="st4" points="375.1 -61.8 314.9 -61.8 314.9 33 375.1 -61.8"/>
      <polygon class="st1" points="210.6 -61.8 254.6 17.5 254.6 -61.8 210.6 -61.8"/>
      <polygon class="st4" points="188.5 -61.8 232.6 17.5 232.6 -61.8 188.5 -61.8"/>
      <g>
        <g>
          <rect class="st6" x="191.3" y="28.6" width="14.1" height=".9"/>
          <rect class="st6" x="188.4" y="21.5" width="14.1" height=".9" transform="translate(41.7 144.6) rotate(-45)"/>
          <rect class="st6" x="181.3" y="18.5" width="14.1" height=".9" transform="translate(169.4 207.3) rotate(-90)"/>
          <rect class="st6" x="174.2" y="21.5" width="14.1" height=".9" transform="translate(293.9 165.6) rotate(-135)"/>
          <rect class="st6" x="171.2" y="28.6" width="14.1" height=".9" transform="translate(356.6 58.1) rotate(180)"/>
          <rect class="st6" x="174.2" y="35.7" width="14.1" height=".9" transform="translate(335 -66.5) rotate(135)"/>
          <rect class="st6" x="181.3" y="38.7" width="14.1" height=".9" transform="translate(227.4 -149.3) rotate(90)"/>
          <rect class="st6" x="188.4" y="35.7" width="14.1" height=".9" transform="translate(82.8 -127.6) rotate(45)"/>
        </g>
        <g>
          <rect class="st6" x="190.5" y="24.7" width="14.1" height=".9" transform="translate(5.9 79.1) rotate(-23)"/>
          <rect class="st6" x="185.1" y="19.3" width="14.1" height=".9" transform="translate(101.8 190.4) rotate(-68)"/>
          <rect class="st6" x="177.4" y="19.3" width="14.1" height=".9" transform="translate(238.2 197.3) rotate(-113)"/>
          <rect class="st6" x="172" y="24.8" width="14.1" height=".9" transform="translate(335.5 115.9) rotate(-158)"/>
          <rect class="st6" x="172" y="32.5" width="14.1" height=".9" transform="translate(356.9 -6.6) rotate(157)"/>
          <rect class="st6" x="177.5" y="37.9" width="14.1" height=".9" transform="translate(289.4 -118.3) rotate(112)"/>
          <rect class="st6" x="185.2" y="37.9" width="14.1" height=".9" transform="translate(152.5 -153.7) rotate(67)"/>
          <rect class="st6" x="190.6" y="32.4" width="14.1" height=".9" transform="translate(26.8 -71.8) rotate(22)"/>
        </g>
      </g>
      <polygon class="st4" points="254.6 -156.6 314.9 -156.6 284.7 -109.2 254.6 -156.6"/>
      <polygon class="st4" points="254.6 -109.3 314.9 -109.3 284.7 -61.9 254.6 -109.3"/>
      <polygon class="st4" points="294.6 33.1 335.1 33.1 314.9 65 294.6 33.1"/>
      <path class="st6" d="M317.9-19.1c0,1.7-1.4,3-3,3s-3-1.4-3-3,1.4-3,3-3,3,1.4,3,3Z"/>
      <g>
        <path class="st6" d="M272-154.2c0-.2,0-.3,0-.5l-5,.9.2.9,5-.9c0-.1,0-.3-.1-.4Z"/>
        <path class="st6" d="M274-142l.8.5,2.9-4.1c-.3-.2-.5-.3-.8-.5l-2.9,4.1Z"/>
        <path class="st6" d="M287-143.7c-.2,0-.3,0-.5,0l.9,5,.9-.2-.9-5c-.1,0-.3,0-.4.1Z"/>
        <path class="st6" d="M295.1-148.7l4.1,2.9.5-.8-4.1-2.9c-.2.3-.3.5-.5.8Z"/>
        <path class="st6" d="M273.6-149.8l-4.2,2.7.5.8,4.2-2.7c-.2-.2-.3-.5-.5-.8Z"/>
        <path class="st6" d="M280.5-139l.9.2,1.1-4.9c-.3,0-.6-.1-.9-.2l-1,4.9Z"/>
        <path class="st6" d="M291.4-145.4l2.7,4.2.8-.5-2.7-4.2c-.2.2-.5.3-.8.5Z"/>
        <path class="st6" d="M297.5-154.2c0,.3-.1.6-.2.9l4.9,1,.2-.9-4.9-1.1Z"/>
      </g>
      <g>
        <rect class="st5" x="375.1" y="-156.7" width="374.9" height="221.6"/>
        <polygon class="st3" points="689.8 -124.8 629.5 -30 689.8 -30 689.8 -124.8"/>
        <polygon class="st2" points="585.5 17.6 585.5 -6.2 563.4 -6.2 585.5 17.6"/>
        <polygon class="st2" points="607.5 17.6 607.5 -6.2 585.5 -6.2 607.5 17.6"/>
        <polygon class="st2" points="629.5 17.6 629.5 -6.2 607.5 -6.2 629.5 17.6"/>
        <polygon class="st1" points="497 34.3 497 -126 451.6 -45.9 497 34.3"/>
        <polygon class="st2" points="451.6 -45.9 497 -45.9 497 34.3 451.6 -45.9"/>
        <polygon class="st2" points="375.1 64.8 486.9 64.8 431 -46 375.1 64.8"/>
        <polygon class="st6" points="408.6 64.8 453.4 64.8 431 20.4 408.6 64.8"/>
        <polygon class="st4" points="497 65 497 33.3 487.1 49.2 497 65"/>
        <polygon class="st4" points="497 33.3 497 1.7 487.1 17.5 497 33.3"/>
        <polygon class="st4" points="497 1.7 497 -30 487.1 -14.2 497 1.7"/>
        <polygon class="st4" points="497 -30 497 -61.7 487.1 -45.9 497 -30"/>
        <polygon class="st4" points="497 -61.7 497 -93.4 487.1 -77.5 497 -61.7"/>
        <polygon class="st4" points="497 -93.4 497 -125.1 487.1 -109.2 497 -93.4"/>
        <polygon class="st4" points="497 -125.1 497 -156.7 487.1 -140.9 497 -125.1"/>
        <polygon class="st6" points="375.1 -80.5 375.1 -11.4 395.1 -46 375.1 -80.5"/>
        <polygon class="st6" points="750 -30 750 -11.5 739.3 -30.1 750 -30"/>
        <polygon class="st6" points="750 -156.5 750 -80.4 705.9 -156.7 750 -156.5"/>
        <polygon class="st3" points="375.1 -156.7 486.9 -156.7 431 -46 375.1 -156.7"/>
        <polygon class="st1" points="408.6 -156.7 453.4 -156.7 431 -112.3 408.6 -156.7"/>
        <polygon class="st4" points="431 -46 431 -112.3 408.6 -156.7 375.1 -156.7 431 -46"/>
        <polygon class="st1" points="453.4 64.8 431 20.4 431 -46 486.9 64.8 453.4 64.8"/>
        <polygon class="st2" points="395.1 -46 431 -46 375.1 64.8 375.1 -11.4 395.1 -46"/>
        <polygon class="st4" points="497 -30.1 497 65 541.1 65 497 -30.1"/>
        <polygon class="st3" points="541.4 -30.1 541.4 65 585.5 65 541.4 -30.1"/>
        <polygon class="st4" points="541.4 17.5 541.4 65 563.4 65 541.4 17.5"/>
        <polygon class="st4" points="585.5 17.6 585.5 -30 563.4 -30 585.5 17.6"/>
        <polygon class="st4" points="607.5 17.6 607.5 -30 585.5 -30 607.5 17.6"/>
        <polygon class="st4" points="629.5 17.6 629.5 -30 607.5 -30 629.5 17.6"/>
        <polygon class="st3" points="607.5 -109.2 607.5 -156.8 585.5 -156.8 607.5 -109.2"/>
        <polygon class="st3" points="629.5 -109.2 629.5 -156.8 607.5 -156.8 629.5 -109.2"/>
        <polygon class="st3" points="651.6 -109.2 651.6 -156.8 629.5 -156.8 651.6 -109.2"/>
        <polygon class="st4" points="607.5 -138.3 607.5 -156.8 585.5 -156.8 607.5 -138.3"/>
        <polygon class="st4" points="629.5 -138.3 629.5 -156.8 607.5 -156.8 629.5 -138.3"/>
        <polygon class="st4" points="651.6 -138.3 651.6 -156.8 629.5 -156.8 651.6 -138.3"/>
        <polygon class="st3" points="497 17.5 497 65 519 65 497 17.5"/>
        <polygon class="st2" points="497 -125.1 497 -30 541.1 -30 497 -125.1"/>
        <polygon class="st4" points="497 -77.5 497 -30 519 -30 497 -77.5"/>
        <rect class="st4" x="541.1" y="-156.7" width="44.4" height="126.8"/>
        <rect class="st1" x="541.1" y="-39.4" width="44.4" height="9.4"/>
        <rect class="st5" x="540.1" y="-49" width="46.1" height="9.6"/>
        <rect class="st2" x="541.1" y="-58.3" width="44.4" height="9.4"/>
        <rect class="st5" x="540.1" y="-67.7" width="46.1" height="9.4"/>
        <rect class="st1" x="541.1" y="-77.1" width="44.4" height="9.4"/>
        <rect class="st2" x="705.6" y="-39.4" width="44.4" height="9.4"/>
        <rect class="st3" x="705.6" y="-58.3" width="44.4" height="9.4"/>
        <rect class="st2" x="705.6" y="-77.3" width="44.4" height="9.4"/>
        <rect class="st3" x="705.6" y="-96.3" width="44.4" height="9.4"/>
        <rect class="st5" x="540.1" y="-86.5" width="46.1" height="9.4"/>
        <circle class="st6" cx="431" cy="9.4" r="3"/>
        <circle class="st6" cx="431" cy="-19.8" r="3"/>
        <circle class="st6" cx="431" cy="-112.3" r="3"/>
        <polygon class="st1" points="689.8 64.8 629.5 64.8 629.5 -30 689.8 64.8"/>
        <polygon class="st2" points="750 64.8 689.8 64.8 689.8 -30 750 64.8"/>
        <polygon class="st2" points="689.8 -30 629.5 -30 629.5 -124.8 689.8 -30"/>
        <polygon class="st4" points="750 -30 689.8 -30 689.8 -124.8 750 -30"/>
        <polygon class="st1" points="585.5 -30 629.5 -109.2 629.5 -30 585.5 -30"/>
        <polygon class="st4" points="563.4 -30 607.5 -109.2 607.5 -30 563.4 -30"/>
        <g>
          <g>
            <rect class="st6" x="566.2" y="-121.2" width="14.1" height=".9"/>
            <rect class="st6" x="563.3" y="-114.1" width="14.1" height=".9" transform="translate(86.7 -436.6) rotate(45)"/>
            <rect class="st6" x="556.2" y="-111.2" width="14.1" height=".9" transform="translate(452.5 -674) rotate(90)"/>
            <rect class="st6" x="549.1" y="-114.1" width="14.1" height=".9" transform="translate(869 -587.3) rotate(135)"/>
            <rect class="st6" x="546.1" y="-121.2" width="14.1" height=".9" transform="translate(1106.4 -241.6) rotate(180)"/>
            <rect class="st6" x="549.1" y="-128.3" width="14.1" height=".9" transform="translate(1039.8 174.9) rotate(-135)"/>
            <rect class="st6" x="556.2" y="-131.3" width="14.1" height=".9" transform="translate(694.1 432.4) rotate(-90)"/>
            <rect class="st6" x="563.3" y="-128.3" width="14.1" height=".9" transform="translate(257.5 365.8) rotate(-45)"/>
          </g>
          <g>
            <rect class="st6" x="565.4" y="-117.3" width="14.1" height=".9" transform="translate(-.2 -232.6) rotate(23)"/>
            <rect class="st6" x="560" y="-111.9" width="14.1" height=".9" transform="translate(250.9 -595.2) rotate(68)"/>
            <rect class="st6" x="552.3" y="-112" width="14.1" height=".9" transform="translate(674.8 -670.1) rotate(113)"/>
            <rect class="st6" x="546.9" y="-117.5" width="14.1" height=".9" transform="translate(1023.5 -433.3) rotate(158)"/>
            <rect class="st6" x="546.9" y="-125.1" width="14.1" height=".9" transform="translate(1112.8 -23.4) rotate(-157)"/>
            <rect class="st6" x="552.4" y="-130.5" width="14.1" height=".9" transform="translate(890 339.7) rotate(-112)"/>
            <rect class="st6" x="560.1" y="-130.5" width="14.1" height=".9" transform="translate(465.7 442.9) rotate(-67)"/>
            <rect class="st6" x="565.5" y="-125" width="14.1" height=".9" transform="translate(88.6 205.8) rotate(-22)"/>
          </g>
        </g>
        <polygon class="st4" points="629.5 64.8 689.8 64.8 659.6 17.4 629.5 64.8"/>
        <polygon class="st4" points="629.5 17.5 689.8 17.5 659.6 -29.9 629.5 17.5"/>
        <polygon class="st4" points="669.5 -124.9 710 -124.9 689.8 -156.8 669.5 -124.9"/>
        <circle class="st6" cx="689.8" cy="-72.6" r="3"/>
        <g>
          <path class="st6" d="M646.9,62.5c0,.2,0,.3,0,.5l-5-.9.2-.9,5,.9c0,.2,0,.3-.1.4Z"/>
          <path class="st6" d="M649,50.3l.8-.5,2.9,4.1c-.3.2-.5.3-.8.5l-2.9-4.1Z"/>
          <path class="st6" d="M661.9,52c-.2,0-.3,0-.5,0l.9-5,.9.2-.9,5c-.1,0-.3,0-.4-.1Z"/>
          <path class="st6" d="M670,56.9l4.1-2.9.5.8-4.1,2.9c-.2-.3-.3-.5-.5-.8Z"/>
          <path class="st6" d="M648.5,58.1l-4.2-2.7.5-.8,4.2,2.7c-.2.2-.3.5-.5.8Z"/>
          <path class="st6" d="M655.4,47.2l.9-.2,1.1,4.9c-.3,0-.6.1-.9.2l-1-4.9Z"/>
          <path class="st6" d="M666.3,53.6l2.7-4.2.8.5-2.7,4.2c-.2-.2-.5-.3-.8-.5Z"/>
          <path class="st6" d="M672.4,62.5c0-.3-.1-.6-.2-.9l4.9-1,.2.9-4.9,1.1Z"/>
        </g>
      </g>
    </g>
  </g>
</svg>