<?xml version="1.0" encoding="UTF-8"?>
<svg id="Layer_2" xmlns="http://www.w3.org/2000/svg" version="1.1" viewBox="0 0 482 277.1">
  <!-- Generator: Adobe Illustrator 30.0.0, SVG Export Plug-In . SVG Version: 2.1.1 Build 123)  -->
  <defs>
    <style>
      .st0 {
        fill: #38c0fc;
      }

      .st1 {
        fill: none;
        stroke: #32bffa;
        stroke-miterlimit: 10;
        stroke-width: 1.8px;
      }

      .st2 {
        fill: #ff3030;
      }

      .st3 {
        fill: #d8e8ea;
      }
    </style>
  </defs>
  <g id="Layer_1-2">
    <g>
      <path class="st1" d="M74.7,30c.6,0,1.1-.2,1.5,0,3.9,1.1,7.1,3.1,9.3,6.6.3.5.2,1.4,0,2-.4,1.1-1,2.1-1.6,3-1.6,2.2-1.4,4.4.2,6.8.4-.6.8-1.2,1.2-1.7,1-1.4,2.2-2.7,3.1-4.2.4-.6.6-1.5.6-2.3,0-3.1-.2-6.2-.2-9.3,0-1.5.8-2,2.3-1.5,10.7,3.5,21.7,5.3,32.7,7.2,12.3,2.2,24.7,4.2,37.1,6.1,11.3,1.7,22.6,3.8,34,4.7,12.2,1,24.6.9,36.9,1.2,7.6.2,15.2-.1,22.8.1,5.9.2,11.9.8,17.8,1.5,1,.1,2.2.9,2.8,1.8,1.9,2.7,4.3,3.4,7.3,2.7,2.4-.5,4.8-.9,7.4-1-1.2,1.2-2.4,2.4-3.6,3.6-2.3,2.2-4.7,4.4-6.9,6.7-.4.5-.4,1.4-.6,2.1.8,0,1.6.2,2.3,0,.7-.2,1.4-.7,2.1-1.1,1.3-.6,2.7-.7,3.7.4,1,1,1.8.8,2.7.1,2.5-1.7,4.9-3.4,7.4-5,1.3-.8,2.6-1.6,3.9-2.3.6-.3,1.4-.1,2.1-.2,0,.7,0,1.4,0,2-.2.8-.7,1.4-.8,2.2,0,.5,0,1.2.4,1.6.2.2,1.1.1,1.4-.2.9-.7,1.7-.7,2.7,0,1.8,1.2,3.8,1.3,5.8.6,2.5-.9,5-1.8,7.6-2.6.4-.1.9-.4,1.2-.3,2.6,1.2,5.1,0,7.7-.3,2.4-.3,3.5,1.6,5.5,3.1-2.3.7-4.1,1.3-6,1.8-1.1.3-2.4.3-2.8,1.8-.1.4-1.1.5-1.8.7-3.3,1-6.6,1.9-10,2.9-3,.9-4.4,3.1-4.8,6-.2,1.4-.5,2.7-.8,4.3.8,0,1.7-.2,2.4-.3,0,2.3,0,4.6,0,6.9,0,1.3-.5,2.6-.7,3.9-.2,1.8-.8,3.7-.4,5.4.9,4.3,2.3,8.5,3.5,12.6,1.2.1,2.2.2,3.2.4,1.7.3,2.8-.3,3.2-1.9.5-1.9.7-3.8,1.1-5.7.3-1.3.9-2.5,1.5-4,0,0-.2-.2-.5-.4-3-2.6-4.4-5.6-3.1-9.6.6-2-.3-3.8-.8-5.7-.4-1.1-.8-2.4-.7-3.5,0-.8.9-1.9,1.7-2.2,3-1.2,5-3.6,7-5.9,1-1.2,2.1-1.5,3.5-1.2,2.3.4,4.7.6,7,1.1.7.2,1.6,1.2,1.6,1.8,0,2.8-.3,5.5-.8,8.2-.4,2.2-1.6,4.2-.8,6.8,1.3-1.5,2.5-3.1,4.1-5.1,1.9,2.1,3.8,4,5.6,6.1.3.4.3,1.1.3,1.7-.8,4.6-1.7,9.2-2.5,13.6,1.5.5,3.3,1,5,1.6,2.2.8,4.4.7,6.2-.8,2.9-2.4,5.7-5,8.5-7.7,1.9-1.8,3.5-3.7,5.4-5.5,1.3-1.3,2.2-2.8,2.4-4.6.3-2.9,2-4.6,4.5-5.7.3-.1.6-.3.8-.3,4.5-.7,6.4-3.7,7.7-7.7,1-3.2,2.3-6.3,3.8-9.3.6-1.2,2-2.2,3.2-2.7,3-1.2,6.2-2,9.3-3.2,2.2-.8,4.5-1.6,6.3-3.1,1.7-1.4,2.6-3.6,4-5.4.4-.5.8-1.2,1.3-1.4,1.8-.7,2-2.1,2.1-3.8.3-3.8,1.2-7.6,1.5-11.4.2-1.9-.1-3.9-.2-5.8,0-.6,0-1.6.2-1.6.8-.3,2.2-.7,2.6-.3,1.2,1.2,2,.7,3,0,.5-.4,1.1-.8,1.7-1,1.5-.5,2.7-.5,3.4,1.4,1.1,3.1,2.7,6,3.9,9,.4,1,.9,1.3,2,1.2,2.9-.4,3.2-.2,3.8,2.5.3,1.2.9,1.6,2,1.6,1.7,0,1.8,1,1.5,2.3-.3,1.2-.6,2.4-1,3.5-.2.5-.8,1.1-1.3,1.3-1.3.4-2.9,0-3.2,1.9,0,.2-.7.3-1.1.4-2.7.3-3.3.9-3.8,3.5-.3,1.4-.6,2.7-.9,4.1-.3,1.3-1,1.9-2.4,1.9-2.8,0-3.3.7-2.6,3.5.6,2.6,1.8,5.2,1,8-.1.5.7,1.5,1.3,2,1,.8,2.2,1.2,3.3,1.9,1.4.8,2.1,1.9,1.5,3.7-.4,1.3-.6,2.6-.9,3.7-.2.1-.3.2-.3.2-3.7.3-5.4,2.4-5.3,6.2,0,1.2,0,2.4-.1,3.6,0,1.4-.8,1.9-2.1,1.4-1.3-.4-2.2-.3-2.9,1-.2.5-.7.8-1.2,1.1-2.6,1.4-3.2,3.7-2.9,6.5.2,2.1.3,4.1.6,6.2.3,2-.5,3.7-1.5,5.3-.8,1.4-1.6,2.8-2.5,4.5-1.3-1-2.8-2.1-4.2-3.2-.1,0-.2.1-.4.2.4,1.5.9,2.9,1.4,4.5.7-.2,1.3-.4,1.6-.4.7,1.8,1.4,3.3,1.9,5,.2.5-.1,1.2-.4,1.7-1.4,3.1-2.9,6.2-4.4,9.3-.2-3.3-.4-6.6-.5-9.9-.2,0-.4,0-.6,0-.4.5-.9,1.1-1.5,2-2.3-3.9-4.1-7.6-1.1-12-.2,0-.4-.1-.5-.2-.9.5-1.9.9-2.7,1.6-.4.3-.7,1.2-.5,1.7,1,2.9,1,2.9.2,5.3,3.9,2.4,3.2,7.1,5.2,10.4.2.3-.3,1.1-.6,1.5-.4.6-.9,1-1.8,1.9,1.3.3,2.3.4,3.1.8.7.4,1.6.9,1.9,1.6,2.5,5.5,1.3,10.8-1.3,15.8-2.1,4-4.4,8-6.9,11.8-.8,1.3-2.3,2.4-3.7,2.9-3.7,1.3-5.5,3.9-6.7,7.4-.6,1.9-1.5,3.7-2.6,5.4-1.5,2.4-3.2,4.6-4.8,6.9-2.1,3-3.3,6.3-3.8,10-.3,2.7.5,4.8,2.4,6.5,1,.8,2,1.7,2.8,2.6.6.8,1.5,1.8,1.4,2.6,0,2,1.1,3.4,2.1,4.9,1.6,2.5,3.4,4.9,5,7.4,1.1,1.8,2.5,3.5,2.1,5.8,0,.3.3.6.5.9,2,2.3,3.5,4.8,4.3,7.8.2.9.9,1.8,1.6,2.4,1.8,1.7,2.5,3.7,2.5,6,0,3,0,6.1-.4,9.1-.4,2.6-4.9,4.8-7.4,3.8-.7-.3-1.4-1.2-1.7-2-.9-2.3-2.2-4.1-4.8-4.8-1.6-.4-2.5-1.6-2.9-3.3-.2-.9-.4-1.8-.7-2.6-.4-1.5-1.1-2.4-2.8-1.3-.3.2-1.4,0-1.6-.4-1.1-1.6-2.3-3.3-3-5.2-.3-.8.4-1.9.7-3,0,0,0-.2-.2-.2-3.1-.9-3-.9-3.1-4.3,0-2.4-.1-4.9-.4-7.3-.2-1.9-.7-2-2.5-1.5-.4.1-1.2-.6-1.7-1.1-.5-.4-.8-1-1.3-1.5-1.4-1.3-2.9-2.4-4.3-3.7-.9-.8-1.7-1.7-2.7-2.5-2.3-1.9-3.5-1.8-5.7.2,0,0-.2.1-.3.2-3.5,5.1-8.5,5.4-13.8,3.9-6.1-1.7-12.2-.5-18.3-.3-1.6,0-3.2,1.4-4.6,2.3-.6.4-.9,1.4-1.3,2.1l.4.3c.6-.5,1.2-1.1,1.9-1.6.6,1,1.2,1.9,1.5,2.5-1.5.7-2.6,1.3-4.2,2,2.2,1.4,3.5,3.1,5.9,2.9.7,0,1.6.9,2.3,1.4,0,.2,0,.4,0,.6-1.4.6-2.8,1.1-4.2,1.7-.2-2.3-1.3-3.2-3.7-2.8,0,0-.2-.2-.2-.3,0-.8,0-1.9-1.1-1.6-.6.2-.9,1.3-1.2,2.1-.2.6-.2,1.3-.4,2.4-1.2-1.1-2-1.8-2.8-2.6-.2.1-.5.2-.6.4-1.1,2.8-3.3,1.8-5.2,1.6-1.3-.2-1.6-1.2-1.1-3.4-.5-.2-1.1-.3-1.6-.5-.9-.3-1.9-.6-2.8-1.1-1.3-.8-2.4-.6-3,.8-.6,1.6-1.8,1.6-3.1,1.3-4.5-1-9-1.9-13.5-3-3.7-.9-4.9-.5-7.1,2.6-1.6,2.3-3.1,4.7-4.9,6.8-1.2,1.3-2.8,2.5-4.5,3.2-1.9.8-4,1.1-5.9,1.7-7.5,2.2-10.4,7.1-8.6,14.7.5,2.3,1.3,4.6,1.8,6.9.2.8.2,1.6.4,2.7-5.9-1.2-11.6-1.8-16.8-4.3-1.4-.6-2.2-1.8-2.1-3.3,0-.7,0-1.3,0-2,.6-3.6-.5-6.5-3-9.1-4.6-4.8-8.8-9.9-13.5-14.6-1.7-1.7-4-3-6.2-4.1-2.6-1.2-3.8-.6-5.1,2-.7,1.2-1.3,2.5-2,3.7-.7,1.3-1.8,1.7-3.2,1.5-5.5-.6-8.9-3.9-10.2-9.9-.3-1.5-.6-3.1-1.1-4.6-.2-.5-.9-1.1-1.3-1.1-2,0-3-1.1-3.9-2.6-1.2-1.8-2.2-3.7-3.4-5.4-1.1-1.6-2.4-2.3-4.6-2.1-2.2.2-4.4-.5-6.6-.9-1.7-.3-3.4-.9-5.1-1.2-1.4-.3-2.4.2-2.8,1.6-.4,1.4-1.2,2-2.7,1.9-7-.5-14-.7-20.9-1.4-2.1-.2-4-1.9-5.9-3-7.1-4.3-14.1-8.9-21.3-13.1-1.6-1-3.8-1.2-5.8-1.4-3.1-.4-6.2-.3-9.3-.8-1.3-.2-2.6-1-3.6-2-4-3.9-6.7-8.7-7.6-14.2-.6-3.6-2.8-5.1-5.9-5.7-2.7-.5-5.3-1.1-7.3-3-.7-.6-1.4-1.7-1.4-2.6.3-3.4-.9-6.3-2.9-8.8-2.3-2.9-2.9-6-2.7-9.6,0-1.3-.6-2.7-1-4.1-.5-1.7-1.6-3.3-1.5-4.9.2-4.1-1.3-7.5-3.2-10.8-.5-.8-1-1.5-1.5-2.3-.7-1.1-.6-2,0-3.4.6-1.6,1-3.6.5-5.2-1.7-5.7-1.1-10.9,1.6-16.2,1.2-2.3,1.5-5.1,2-7.7.7-3.6,1.1-7.3,1.8-10.9.2-1.2.7-2.4,1.5-3.3,4-4.7,5.6-10.5,7.4-16.1,2.6-8.5,4.3-17.1,4.2-26,0-1.5-.2-3-.3-4.7h0Z"/>
      <g>
        <polygon class="st3" points="459.7 196 460.4 208.4 471 214.8 459.5 219.3 456.7 231.3 448.8 221.8 436.5 222.8 443.1 212.4 438.3 201 450.3 204.1 459.7 196"/>
        <polygon class="st3" points="412 184.2 419.4 186.5 425.4 181.7 425.5 189.4 431.9 193.6 424.6 196.1 422.6 203.5 418 197.4 410.3 197.7 414.7 191.4 412 184.2"/>
        <polygon class="st3" points="468.3 168.3 462.9 172.7 463.4 179.6 457.6 175.8 451.1 178.4 453 171.7 448.5 166.4 455.4 166.1 459.1 160.2 461.5 166.7 468.3 168.3"/>
      </g>
      <g>
        <polygon class="st3" points="9.6 98.7 15.4 103.5 22.7 101.3 20 108.4 24.2 114.6 16.7 114.2 12.1 120.2 10.1 112.9 3 110.4 9.3 106.3 9.6 98.7"/>
        <polygon class="st3" points="17.5 84.9 13.8 84.2 11.1 86.8 10.7 83.1 7.3 81.4 10.7 79.8 11.3 76.1 13.8 78.8 17.5 78.2 15.8 81.5 17.5 84.9"/>
        <polygon class="st3" points="38.1 51.9 42.7 59.8 51.8 60.4 45.8 67.2 48.1 76.1 39.7 72.5 32 77.3 32.8 68.3 25.8 62.4 34.7 60.4 38.1 51.9"/>
      </g>
      <g>
        <polygon class="st2" points="85.8 203 91.8 208.2 99.4 206.3 96.3 213.6 100.5 220.3 92.6 219.5 87.6 225.6 85.8 217.9 78.5 215 85.3 210.9 85.8 203"/>
        <polygon class="st2" points="75.9 200.9 74.5 203.8 76.1 206.5 72.9 206.1 70.8 208.4 70.2 205.3 67.3 204 70.1 202.5 70.5 199.4 72.8 201.5 75.9 200.9"/>
        <polygon class="st2" points="68.4 217.3 70.4 220.2 74 220.2 71.8 223.1 73 226.5 69.6 225.3 66.7 227.4 66.7 223.8 63.8 221.7 67.3 220.7 68.4 217.3"/>
      </g>
      <g>
        <polygon class="st2" points="337 234.5 343.2 234.8 346.9 229.8 348.6 235.8 354.5 237.8 349.3 241.2 349.2 247.4 344.3 243.6 338.4 245.4 340.5 239.6 337 234.5"/>
        <polygon class="st2" points="324.6 238.5 323.2 241.3 324.7 244 321.6 243.5 319.5 245.8 319 242.7 316.1 241.4 318.9 240 319.3 236.9 321.5 239.1 324.6 238.5"/>
        <polygon class="st2" points="328.9 249.7 330.2 251.3 332.3 251.1 331.2 252.9 332 254.8 330 254.3 328.4 255.6 328.3 253.6 326.5 252.5 328.4 251.7 328.9 249.7"/>
      </g>
      <polygon class="st2" points="118.6 11.5 124 14.4 129.4 11.5 128.3 17.6 132.7 21.9 126.6 22.7 123.8 28.2 121.2 22.7 115.1 21.7 119.5 17.5 118.6 11.5"/>
    </g>
  </g>
  <circle class="st3" cx="236.7" cy="139.9" r="60.6" transform="translate(46.2 338.1) rotate(-76.7)"/>
  <g>
    <path class="st2" d="M278.7,132.6h-11.5c-1.5,0-2.6,1.2-2.6,2.6v10.5c0,.9.8,1.7,1.7,1.7s1.7-.8,1.7-1.7v-9.1h.8v27.7c0,.9.8,1.7,1.7,1.7h0c.9,0,1.7-.8,1.7-1.7v-14.7h1.4v14.7c0,.9.8,1.7,1.7,1.7h0c.9,0,1.7-.8,1.7-1.7v-27.7h.8v9.1c0,.9.8,1.7,1.7,1.7s1.7-.8,1.7-1.7v-10.5c0-1.5-1.2-2.6-2.6-2.6Z"/>
    <path class="st2" d="M272.9,130.9c1.7,0,3.2-2.6,3.2-4.3s-1.4-3.2-3.2-3.2-3.2,1.4-3.2,3.2,1.4,4.3,3.2,4.3Z"/>
  </g>
  <g>
    <path class="st0" d="M258.6,107.4h-11.5c-1.5,0-2.6,1.2-2.6,2.6v10.5c0,.9.8,1.7,1.7,1.7s1.7-.8,1.7-1.7v-9.1h.8v27.7c0,.9.8,1.7,1.7,1.7h0c.9,0,1.7-.8,1.7-1.7v-14.7h1.4v14.7c0,.9.8,1.7,1.7,1.7h0c.9,0,1.7-.8,1.7-1.7v-27.7h.8v9.1c0,.9.8,1.7,1.7,1.7s1.7-.8,1.7-1.7v-10.5c0-1.5-1.2-2.6-2.6-2.6Z"/>
    <path class="st0" d="M252.9,105.7c1.7,0,3.2-2.6,3.2-4.3s-1.4-3.2-3.2-3.2-3.2,1.4-3.2,3.2,1.4,4.3,3.2,4.3Z"/>
  </g>
  <g>
    <path class="st0" d="M236.4,85.2h-11.5c-1.5,0-2.6,1.2-2.6,2.6v10.5c0,.9.8,1.7,1.7,1.7s1.7-.8,1.7-1.7v-9.1h.8v27.7c0,.9.8,1.7,1.7,1.7h0c.9,0,1.7-.8,1.7-1.7v-14.7h1.4v14.7c0,.9.8,1.7,1.7,1.7h0c.9,0,1.7-.8,1.7-1.7v-27.7h.8v9.1c0,.9.8,1.7,1.7,1.7s1.7-.8,1.7-1.7v-10.5c0-1.5-1.2-2.6-2.6-2.6Z"/>
    <path class="st0" d="M230.7,83.5c1.7,0,3.2-2.6,3.2-4.3s-1.4-3.2-3.2-3.2-3.2,1.4-3.2,3.2,1.4,4.3,3.2,4.3Z"/>
  </g>
  <g>
    <path class="st0" d="M258.6,155.2h-11.5c-1.5,0-2.6,1.2-2.6,2.6v10.5c0,.9.8,1.7,1.7,1.7s1.7-.8,1.7-1.7v-9.1h.8v27.7c0,.9.8,1.7,1.7,1.7h0c.9,0,1.7-.8,1.7-1.7v-14.7h1.4v14.7c0,.9.8,1.7,1.7,1.7h0c.9,0,1.7-.8,1.7-1.7v-27.7h.8v9.1c0,.9.8,1.7,1.7,1.7s1.7-.8,1.7-1.7v-10.5c0-1.5-1.2-2.6-2.6-2.6Z"/>
    <path class="st0" d="M252.9,153.6c1.7,0,3.2-2.6,3.2-4.3s-1.4-3.2-3.2-3.2-3.2,1.4-3.2,3.2,1.4,4.3,3.2,4.3Z"/>
  </g>
  <g>
    <path class="st0" d="M236.9,177h-11.5c-1.5,0-2.6,1.2-2.6,2.6v10.5c0,.9.8,1.7,1.7,1.7s1.7-.8,1.7-1.7v-9.1h.8v27.7c0,.9.8,1.7,1.7,1.7h0c.9,0,1.7-.8,1.7-1.7v-14.7h1.4v14.7c0,.9.8,1.7,1.7,1.7h0c.9,0,1.7-.8,1.7-1.7v-27.7h.8v9.1c0,.9.8,1.7,1.7,1.7s1.7-.8,1.7-1.7v-10.5c0-1.5-1.2-2.6-2.6-2.6Z"/>
    <path class="st0" d="M231.1,175.3c1.7,0,3.2-2.6,3.2-4.3s-1.4-3.2-3.2-3.2-3.2,1.4-3.2,3.2,1.4,4.3,3.2,4.3Z"/>
  </g>
</svg>