<?xml version="1.0" encoding="UTF-8"?>
<svg id="Layer_2" xmlns="http://www.w3.org/2000/svg" version="1.1" viewBox="0 0 565 324.8">
  <!-- Generator: Adobe Illustrator 30.0.0, SVG Export Plug-In . SVG Version: 2.1.1 Build 123)  -->
  <defs>
    <style>
      .st0 {
        fill: #eaeaea;
      }

      .st1 {
        isolation: isolate;
      }

      .st2 {
        fill: #071c35;
      }

      .st3 {
        fill: #7bbafd;
      }

      .st4 {
        fill: #ed473e;
      }

      .st5 {
        fill: none;
        stroke: #03185a;
        stroke-miterlimit: 10;
      }
    </style>
  </defs>
  <path class="st5" d="M93.4,38c4.6,1.3,7.5,3.6,10.1,7.7.4.6.2,1.6,0,2.3-.5,1.3-1.2,2.5-1.9,3.5-1.9,2.6-1.6,5.1.2,7.9.5-.7.9-1.4,1.4-2,1.2-1.6,2.6-3.2,3.6-4.9.5-.7.7-1.8.7-2.7,0-3.6-.2-7.2-.2-10.9s.9-2.3,2.7-1.8c12.5,4.1,25.4,6.2,38.2,8.4,14.4,2.6,28.9,4.9,43.4,7.1,13.2,2,26.4,4.4,39.7,5.5,14.3,1.2,28.8,1.1,43.1,1.4,8.9.2,17.8,0,26.6,0,6.9.2,13.9.9,20.8,1.8,1.2,0,2.6,1.1,3.3,2.1,2.2,3.2,5,4,8.5,3.2,2.8-.6,5.6-1.1,8.6-1.2-1.4,1.4-2.8,2.8-4.2,4.2-2.7,2.6-5.5,5.1-8.1,7.8-.5.6-.5,1.6-.7,2.5.9,0,1.9.2,2.7,0,.8-.2,1.6-.8,2.5-1.3,1.5-.7,3.2-.8,4.3.5,1.2,1.2,2.1.9,3.2,0,2.9-2,5.7-4,8.6-5.8,1.5-.9,3-1.9,4.6-2.7.7-.4,1.6,0,2.5-.2v2.3c-.2.9-.8,1.6-.9,2.6,0,.6,0,1.4.5,1.9.2.2,1.3,0,1.6-.2,1.1-.8,2-.8,3.2,0,2.1,1.4,4.4,1.5,6.8.7,2.9-1.1,5.8-2.1,8.9-3,.5,0,1.1-.5,1.4-.4,3,1.4,6,0,9-.4,2.8-.4,4.1,1.9,6.4,3.6-2.7.8-4.8,1.5-7,2.1-1.3.4-2.8.4-3.3,2.1-.1.5-1.3.6-2.1.8-3.9,1.2-7.7,2.2-11.7,3.4-3.5,1.1-5.1,3.6-5.6,7-.2,1.6-.6,3.2-.9,5,.9,0,2-.2,2.8-.4v8.1c0,1.5-.6,3-.8,4.6-.2,2.1-.9,4.3-.5,6.3,1.1,5,2.7,9.9,4.1,14.7,1.4.1,2.6.2,3.7.5,2,.4,3.3-.4,3.7-2.2.6-2.2.8-4.4,1.3-6.7.4-1.5,1.1-2.9,1.8-4.7,0,0-.2-.2-.6-.5-3.5-3-5.1-6.5-3.6-11.2.7-2.3-.4-4.4-.9-6.7-.5-1.3-.9-2.8-.8-4.1,0-.9,1.1-2.2,2-2.6,3.5-1.4,5.8-4.2,8.2-6.9,1.2-1.4,2.5-1.8,4.1-1.4,2.7.5,5.5.7,8.2,1.3.8.2,1.9,1.4,1.9,2.1,0,3.3-.4,6.4-.9,9.6-.5,2.6-1.9,4.9-.9,7.9,1.5-1.8,2.9-3.6,4.8-6,2.2,2.5,4.4,4.7,6.5,7.1.4.5.4,1.3.4,2-.9,5.4-2,10.8-2.9,15.9,1.8.6,3.9,1.2,5.8,1.9,2.6.9,5.1.8,7.2-.9,3.4-2.8,6.7-5.8,9.9-9,2.2-2.1,4.1-4.3,6.3-6.4,1.5-1.5,2.6-3.3,2.8-5.4.4-3.4,2.3-5.4,5.3-6.7.4,0,.7-.4.9-.4,5.3-.8,7.5-4.3,9-9,1.2-3.7,2.7-7.4,4.4-10.9.7-1.4,2.3-2.6,3.7-3.2,3.5-1.4,7.2-2.3,10.9-3.7,2.6-.9,5.3-1.9,7.4-3.6,2-1.6,3-4.2,4.7-6.3.5-.6.9-1.4,1.5-1.6,2.1-.8,2.3-2.5,2.5-4.4.4-4.4,1.4-8.9,1.8-13.3.2-2.2-.1-4.6-.2-6.8,0-.7,0-1.9.2-1.9.9-.4,2.6-.8,3-.4,1.4,1.4,2.3.8,3.5,0,.6-.5,1.3-.9,2-1.2,1.8-.6,3.2-.6,4,1.6,1.3,3.6,3.2,7,4.6,10.5s1.1,1.5,2.3,1.4c3.4-.5,3.7-.2,4.4,2.9.4,1.4,1.1,1.9,2.3,1.9,2,0,2.1,1.2,1.8,2.7-.4,1.4-.7,2.8-1.2,4.1-.2.6-.9,1.3-1.5,1.5-1.5.5-3.4,0-3.7,2.2,0,.2-.8.4-1.3.5-3.2.4-3.9,1.1-4.4,4.1-.4,1.6-.7,3.2-1.1,4.8-.4,1.5-1.2,2.2-2.8,2.2-3.3,0-3.9.8-3,4.1.7,3,2.1,6.1,1.2,9.4-.1.6.8,1.8,1.5,2.3,1.2.9,2.6,1.4,3.9,2.2,1.6.9,2.5,2.2,1.8,4.3-.5,1.5-.7,3-1.1,4.3-.2,0-.4.2-.4.2-4.3.4-6.3,2.8-6.2,7.2,0,1.4,0,2.8-.1,4.2,0,1.6-.9,2.2-2.5,1.6-1.5-.5-2.6-.4-3.4,1.2-.2.6-.8.9-1.4,1.3-3,1.6-3.7,4.3-3.4,7.6.2,2.5.4,4.8.7,7.2.4,2.3-.6,4.3-1.8,6.2-.9,1.6-1.9,3.3-2.9,5.3-1.5-1.2-3.3-2.5-4.9-3.7-.1,0-.2.1-.5.2.5,1.8,1.1,3.4,1.6,5.3.8-.2,1.5-.5,1.9-.5.8,2.1,1.6,3.9,2.2,5.8.2.6-.1,1.4-.5,2-1.6,3.6-3.4,7.2-5.1,10.9-.2-3.9-.5-7.7-.6-11.6h-.7c-.5.6-1.1,1.3-1.8,2.3-2.7-4.6-4.8-8.9-1.3-14-.2,0-.5-.1-.6-.2-1.1.6-2.2,1.1-3.2,1.9s-.8,1.4-.6,2c.8,2.3.9,4.3.2,6.2,4.6,2.8,3.7,8.3,6.1,12.2.2.4-.4,1.3-.7,1.8-.5.7-1.1,1.2-2.1,2.2,1.5.4,2.7.5,3.6.9.8.5,1.9,1.1,2.2,1.9,2.9,6.4,1.5,12.6-1.5,18.5-2.5,4.7-5.1,9.4-8.1,13.8-.9,1.5-2.7,2.8-4.3,3.4-4.3,1.5-6.4,4.6-7.8,8.6-.7,2.2-1.8,4.3-3,6.3-1.8,2.8-3.7,5.4-5.6,8.1-2.5,3.5-3.9,7.4-4.4,11.7-.4,3.2.6,5.6,2.8,7.6,1.2.9,2.3,2,3.3,3,.7.9,1.8,2.1,1.6,3,0,2.3,1.3,4,2.5,5.7,1.9,2.9,4,5.7,5.8,8.6,1.3,2.1,2.9,4.1,2.5,6.8,0,.4.4.7.6,1.1,2.3,2.7,4.1,5.6,5,9.1.2,1.1,1.1,2.1,1.9,2.8,2.1,2,2.9,4.3,2.9,7s0,7.1-.5,10.6c-.5,3-5.7,5.6-8.6,4.4-.8-.4-1.6-1.4-2-2.3-1.1-2.7-2.6-4.8-5.6-5.6-1.9-.5-2.9-1.9-3.4-3.9-.2-1.1-.5-2.1-.8-3-.5-1.8-1.3-2.8-3.3-1.5-.4.2-1.6,0-1.9-.5-1.3-1.9-2.7-3.9-3.5-6.1-.4-.9.5-2.2.8-3.5,0,0,0-.2-.2-.2-3.6-1.1-3.5-1.1-3.6-5,0-2.8-.1-5.7-.5-8.5-.2-2.2-.8-2.3-2.9-1.8-.5.1-1.4-.7-2-1.3-.6-.5-.9-1.2-1.5-1.8-1.6-1.5-3.4-2.8-5-4.3-1.1-.9-2-2-3.2-2.9-2.7-2.2-4.1-2.1-6.7.2l-.4.2c-4.1,6-9.9,6.3-16.1,4.6-7.1-2-14.3-.6-21.4-.4-1.9,0-3.7,1.6-5.4,2.7-.7.5-1.1,1.6-1.5,2.5l.5.4c.7-.6,1.4-1.3,2.2-1.9.7,1.2,1.4,2.2,1.8,2.9-1.8.8-3,1.5-4.9,2.3,2.6,1.6,4.1,3.6,6.9,3.4.8,0,1.9,1.1,2.7,1.6v.7c-1.6.7-3.3,1.3-4.9,2-.2-2.7-1.5-3.7-4.3-3.3,0,0-.2-.2-.2-.4,0-.9,0-2.2-1.3-1.9-.7.2-1.1,1.5-1.4,2.5-.2.7-.2,1.5-.5,2.8-1.4-1.3-2.3-2.1-3.3-3-.2.1-.6.2-.7.5-1.3,3.3-3.9,2.1-6.1,1.9-1.5-.2-1.9-1.4-1.3-4-.6-.2-1.3-.4-1.9-.6-1.1-.4-2.2-.7-3.3-1.3-1.5-.9-2.8-.7-3.5.9-.7,1.9-2.1,1.9-3.6,1.5-5.3-1.2-10.5-2.2-15.8-3.5-4.3-1.1-5.7-.6-8.3,3-1.9,2.7-3.6,5.5-5.7,7.9-1.4,1.5-3.3,2.9-5.3,3.7-2.2.9-4.7,1.3-6.9,2-8.8,2.6-12.2,8.3-10.1,17.2.6,2.7,1.5,5.4,2.1,8.1.2.9.2,1.9.5,3.2-6.9-1.4-13.6-2.1-19.6-5-1.6-.7-2.6-2.1-2.5-3.9v-2.3c.7-4.2-.6-7.6-3.5-10.6-5.4-5.6-10.3-11.6-15.8-17.1s-4.7-3.5-7.2-4.8c-3-1.4-4.4-.7-6,2.3-.8,1.4-1.5,2.9-2.3,4.3-.8,1.5-2.1,2-3.7,1.8-6.4-.7-10.4-4.6-11.9-11.6-.4-1.8-.7-3.6-1.3-5.4-.2-.6-1.1-1.3-1.5-1.3-2.3,0-3.5-1.3-4.6-3-1.4-2.1-2.6-4.3-4-6.3-1.3-1.9-2.8-2.7-5.4-2.5-2.6.2-5.1-.6-7.7-1.1-2-.4-4-1.1-6-1.4-1.6-.4-2.8.2-3.3,1.9-.5,1.6-1.4,2.3-3.2,2.2-8.2-.6-16.4-.8-24.4-1.6-2.5-.2-4.7-2.2-6.9-3.5-8.3-5-16.5-10.4-24.9-15.3-1.9-1.2-4.4-1.4-6.8-1.6-3.6-.5-7.2-.4-10.9-.9-1.5-.2-3-1.2-4.2-2.3-4.7-4.6-7.8-10.2-8.9-16.6-.7-4.2-3.3-6-6.9-6.7-3.2-.6-6.2-1.3-8.5-3.5-.8-.7-1.6-2-1.6-3,.4-4-1.1-7.4-3.4-10.3-2.7-3.4-3.4-7-3.2-11.2,0-1.5-.7-3.2-1.2-4.8-.6-2-1.9-3.9-1.8-5.7.2-4.8-1.5-8.8-3.7-12.6-.6-.9-1.2-1.8-1.8-2.7-.8-1.3-.7-2.3,0-4,.7-1.9,1.2-4.2.6-6.1-2-6.7-1.3-12.7,1.9-18.9,1.4-2.7,1.8-6,2.3-9,.8-4.2,1.3-8.5,2.1-12.7.2-1.4.8-2.8,1.8-3.9,4.7-5.5,6.5-12.3,8.6-18.8,3-9.9,5-20,4.9-30.4,0-1.8-.2-3.5-.4-5.5h0l2.5,1.3.9.2"/>
  <g>
    <polygon class="st0" points="540.8 232 541.6 246.5 554 254 540.6 259.2 537.3 273.2 528.1 262.1 513.7 263.3 521.4 251.2 515.8 237.8 529.8 241.5 540.8 232"/>
    <polygon class="st0" points="485 218.2 493.7 220.9 500.7 215.3 500.8 224.3 508.3 229.2 499.8 232.1 497.4 240.8 492.1 233.6 483.1 234 488.2 226.6 485 218.2"/>
    <polygon class="st0" points="550.8 199.6 544.5 204.8 545.1 212.8 538.3 208.4 530.7 211.4 533 203.6 527.7 197.4 535.8 197 540.1 190.1 542.9 197.7 550.8 199.6"/>
  </g>
  <g>
    <polygon class="st0" points="14.7 118.3 21.5 123.9 30 121.3 26.9 129.6 31.8 136.8 23 136.4 17.6 143.4 15.3 134.9 7 131.9 14.4 127.1 14.7 118.3"/>
    <polygon class="st0" points="23.9 102.1 19.6 101.3 16.5 104.4 16 100 12 98 16 96.2 16.7 91.8 19.6 95 23.9 94.3 22 98.2 23.9 102.1"/>
    <polygon class="st0" points="48 63.6 53.4 72.8 64 73.5 57 81.4 59.7 91.8 49.9 87.6 40.9 93.2 41.8 82.7 33.6 75.8 44.1 73.5 48 63.6"/>
  </g>
  <g>
    <polygon class="st4" points="103.8 240.2 110.8 246.2 119.7 244 116 252.6 121 260.4 111.7 259.5 105.9 266.6 103.8 257.6 95.2 254.2 103.2 249.4 103.8 240.2"/>
    <polygon class="st4" points="92.2 237.7 90.6 241.1 92.4 244.3 88.7 243.8 86.2 246.5 85.5 242.9 82.2 241.3 85.4 239.6 85.9 236 88.6 238.4 92.2 237.7"/>
    <polygon class="st4" points="83.4 256.9 85.8 260.3 90 260.3 87.4 263.7 88.8 267.6 84.8 266.2 81.5 268.7 81.5 264.5 78.1 262 82.2 260.9 83.4 256.9"/>
  </g>
  <g>
    <polygon class="st4" points="397.4 277 404.6 277.3 409 271.5 410.9 278.5 417.8 280.8 411.8 284.8 411.6 292.1 405.9 287.6 399 289.7 401.5 282.9 397.4 277"/>
    <polygon class="st4" points="382.9 281.7 381.3 284.9 383 288.1 379.4 287.5 376.9 290.2 376.3 286.6 373 285 376.2 283.4 376.7 279.8 379.3 282.4 382.9 281.7"/>
    <polygon class="st4" points="387.9 294.7 389.4 296.6 391.9 296.4 390.6 298.5 391.5 300.7 389.2 300.1 387.3 301.6 387.2 299.3 385.1 298 387.3 297.1 387.9 294.7"/>
  </g>
  <polygon class="st4" points="142.1 16.3 148.4 19.7 154.7 16.3 153.5 23.5 158.6 28.5 151.5 29.4 148.2 35.9 145.2 29.4 138 28.3 143.2 23.4 142.1 16.3"/>
  <g>
    <path class="st4" d="M353.3,149h-14.4c-1.9,0-3.2,1.5-3.2,3.2v13.2c0,1.2,1,2.2,2.2,2.2s2.2-1,2.2-2.2v-11.4h1v34.9c0,1.2,1,2.2,2.2,2.2h0c1.2,0,2.2-1,2.2-2.2v-18.5h1.7v18.5c0,1.2,1,2.2,2.2,2.2h0c1.2,0,2.2-1,2.2-2.2v-34.9h1v11.4c0,1.2,1,2.2,2.2,2.2s2.2-1,2.2-2.2v-13.2c0-1.9-1.5-3.2-3.2-3.2h.1-.1Z"/>
    <path class="st4" d="M346.1,146.9c2.2,0,4-3.2,4-5.4s-1.7-4-4-4-4,1.7-4,4,1.7,5.4,4,5.4Z"/>
  </g>
  <g>
    <path class="st3" d="M328,117.3h-14.4c-1.9,0-3.2,1.5-3.2,3.2v13.2c0,1.2,1,2.2,2.2,2.2s2.2-1,2.2-2.2v-11.4h1v34.9c0,1.2,1,2.2,2.2,2.2h0c1.2,0,2.2-1,2.2-2.2v-18.5h1.7v18.5c0,1.2,1,2.2,2.2,2.2h0c1.2,0,2.2-1,2.2-2.2v-34.9h1v11.4c0,1.2,1,2.2,2.2,2.2s2.2-1,2.2-2.2v-13.2c0-1.9-1.5-3.2-3.2-3.2h.1s-.1,0-.1,0Z"/>
    <path class="st3" d="M320.9,115.1c2.2,0,4-3.2,4-5.4s-1.7-4-4-4-4,1.7-4,4,1.7,5.4,4,5.4h0Z"/>
  </g>
  <g>
    <path class="st3" d="M300.2,89.4h-14.4c-1.9,0-3.2,1.5-3.2,3.2v13.2c0,1.2,1,2.2,2.2,2.2s2.2-1,2.2-2.2v-11.4h1v34.9c0,1.2,1,2.2,2.2,2.2h0c1.2,0,2.2-1,2.2-2.2v-18.5h1.7v18.5c0,1.2,1,2.2,2.2,2.2h0c1.2,0,2.2-1,2.2-2.2v-34.9h1v11.4c0,1.2,1,2.2,2.2,2.2s2.2-1,2.2-2.2v-13.2c0-1.9-1.5-3.2-3.2-3.2h.1-.1Z"/>
    <path class="st3" d="M293,87.3c2.2,0,4-3.2,4-5.4s-1.7-4-4-4-4,1.7-4,4,1.7,5.4,4,5.4Z"/>
  </g>
  <g>
    <path class="st3" d="M328,177.4h-14.4c-1.9,0-3.2,1.5-3.2,3.2v13.2c0,1.2,1,2.2,2.2,2.2s2.2-1,2.2-2.2v-11.4h1v34.9c0,1.2,1,2.2,2.2,2.2h0c1.2,0,2.2-1,2.2-2.2v-18.5h1.7v18.5c0,1.2,1,2.2,2.2,2.2h0c1.2,0,2.2-1,2.2-2.2v-34.9h1v11.4c0,1.2,1,2.2,2.2,2.2s2.2-1,2.2-2.2v-13.2c0-1.9-1.5-3.2-3.2-3.2h.1-.1Z"/>
    <path class="st3" d="M320.9,175.4c2.2,0,4-3.2,4-5.4s-1.7-4-4-4-4,1.7-4,4,1.7,5.4,4,5.4h0Z"/>
  </g>
  <g>
    <path class="st3" d="M300.8,204.8h-14.4c-1.9,0-3.2,1.5-3.2,3.2v13.2c0,1.2,1,2.2,2.2,2.2s2.2-1,2.2-2.2v-11.4h1v34.9c0,1.2,1,2.2,2.2,2.2h0c1.2,0,2.2-1,2.2-2.2v-18.5h1.7v18.5c0,1.2,1,2.2,2.2,2.2h0c1.2,0,2.2-1,2.2-2.2v-34.9h1v11.4c0,1.2,1,2.2,2.2,2.2s2.2-1,2.2-2.2v-13.2c0-1.9-1.5-3.2-3.2-3.2h.1-.1Z"/>
    <path class="st3" d="M293.5,202.7c2.2,0,4-3.2,4-5.4s-1.7-4-4-4-4,1.7-4,4,1.7,5.4,4,5.4Z"/>
  </g>
  <g class="st1">
    <path class="st4" d="M185.4,160.6h-9.7v-28.6l-8.8,3.7v-9.5l14.1-5.5h4.4v39.9h0Z"/>
  </g>
  <g>
    <path class="st2" d="M210.1,126.8c0,2.7-2,4.6-4.8,4.6s-4.8-1.9-4.8-4.6,2.2-4.6,4.8-4.6,4.8,1.9,4.8,4.6ZM201.2,134.6h8.1v26h-8.1v-26Z"/>
    <path class="st2" d="M214,134.6h8.1v2.9c1.9-2.4,4.3-3.5,7.5-3.5,5.9,0,9.5,4,9.5,10.3v16.2h-8.1v-14.5c0-2.8-.9-4.5-4.1-4.5s-4.7,1.6-4.7,5.2v13.8h-8.1v-26,.2Z"/>
  </g>
  <path class="st3" d="M273.6,149.2c0,7.5-5.6,12-12.9,12s-12.7-3.5-13-11.5h8.2c.3,2.9,2.5,4,4.7,4s4.8-1.9,4.8-4.5-1.9-4.3-4.7-4.3-3.9,1.2-4.4,2h-7.6l4.1-19.4h19.4v7.6h-13.2l-.9,4.2c1.2-.6,2.7-1.2,4.7-1.2,5.8,0,11,3.9,11,11.1h-.1Z"/>
  <path class="st2" d="M166.1,170.8h1.9l3.5,9h-1.5l-.9-2.4h-3.9l-.9,2.4h-1.5l3.5-9ZM168.5,176l-1.4-3.8-1.4,3.8h2.9Z"/>
  <path class="st2" d="M183.3,175.2v4.6h-1.5v-4.2c0-1.1-.4-1.6-1.4-1.6s-1.7.9-1.7,2.2v3.7s-1.5,0-1.5,0v-4.2c0-1.1-.4-1.6-1.4-1.6s-1.7.9-1.7,2.2v3.7h-1.5v-7.1h1.5v1.1c.5-.8,1.2-1.3,2.2-1.3s1.8.5,2.2,1.5c.5-.9,1.3-1.5,2.4-1.5s2.4,1,2.4,2.7Z"/>
  <path class="st2" d="M184.7,176.3c0-2.1,1.5-3.7,3.7-3.7s3.7,1.8,3.6,4.1h-5.8c.1,1.3,1,2,2.2,2s1.6-.4,1.9-1.1h1.5c-.6,1.6-1.9,2.3-3.4,2.3-2.2,0-3.7-1.5-3.7-3.7ZM190.4,175.5c-.2-1-.9-1.7-2-1.7s-1.9.7-2.1,1.7h4.1Z"/>
  <path class="st2" d="M193.4,172.7h1.5v1.4c.4-1,1.2-1.5,2.4-1.5s.3,0,.4,0v1.5c-.1,0-.2,0-.4,0-1.3,0-2.3.7-2.3,2.5v3.3h-1.5v-7.1Z"/>
  <path class="st2" d="M200.5,170.4c0,.5-.4.9-1,.9s-.9-.4-.9-.9.4-.9.9-.9,1,.4,1,.9ZM198.8,172.7h1.5v7.1h-1.5v-7.1Z"/>
  <path class="st2" d="M201.7,176.3c0-2.1,1.6-3.7,3.7-3.7s3.2,1,3.5,2.7h-1.5c-.3-.9-1.1-1.4-2-1.4-1.3,0-2.2,1-2.2,2.3s.9,2.3,2.2,2.3,1.7-.5,2-1.4h1.5c-.3,1.8-1.8,2.7-3.5,2.7s-3.7-1.6-3.7-3.7Z"/>
  <path class="st2" d="M210,176.3c0-2.2,1.4-3.7,3.3-3.7s2,.6,2.5,1.4v-1.2h1.5v7.1h-1.5v-1.2c-.5.8-1.4,1.3-2.5,1.3-1.9,0-3.3-1.5-3.3-3.7ZM215.8,176.3c0-1.4-.9-2.3-2.2-2.3s-2.1,1-2.1,2.3.9,2.3,2.1,2.3,2.2-.9,2.2-2.3Z"/>
  <path class="st2" d="M218.9,172.7h1.5v1.2c.5-.8,1.3-1.3,2.4-1.3,1.6,0,2.6,1,2.6,2.8v4.5h-1.5v-4.2c0-1.1-.5-1.7-1.5-1.7s-1.9.8-1.9,2.2v3.7h-1.5v-7.1Z"/>
  <path class="st2" d="M226.6,177.5h1.5c.2.8.8,1.1,2,1.1s1.5-.3,1.5-.8-.7-.7-1.9-1c-2-.5-2.8-.9-2.8-2.1s1.2-2.3,3-2.3,2.8.9,3.1,2.2h-1.5c-.2-.6-.7-.9-1.7-.9s-1.5.3-1.5.8.4.6,1.7.9c1.9.5,3,.8,3,2.2s-1.4,2.3-3,2.3-3.2-.9-3.5-2.4Z"/>
  <path class="st2" d="M238.1,176.3c0-2.2,1.4-3.7,3.3-3.7s2,.6,2.5,1.4v-1.2h1.5v7.1h-1.5v-1.2c-.5.8-1.4,1.3-2.5,1.3-1.9,0-3.3-1.5-3.3-3.7ZM243.9,176.3c0-1.4-.9-2.3-2.2-2.3s-2.1,1-2.1,2.3.9,2.3,2.1,2.3,2.2-.9,2.2-2.3Z"/>
  <path class="st2" d="M247,172.7h1.5v1.4c.4-1,1.2-1.5,2.4-1.5s.3,0,.4,0v1.5c-.1,0-.2,0-.4,0-1.3,0-2.3.7-2.3,2.5v3.3h-1.5v-7.1Z"/>
  <path class="st2" d="M252.1,176.3c0-2.1,1.5-3.7,3.7-3.7s3.7,1.8,3.6,4.1h-5.8c.1,1.3,1,2,2.2,2s1.6-.4,1.9-1.1h1.5c-.6,1.6-1.9,2.3-3.4,2.3-2.2,0-3.7-1.5-3.7-3.7ZM257.8,175.5c-.2-1-.9-1.7-2-1.7s-1.9.7-2.1,1.7h4.1Z"/>
  <path class="st2" d="M271.8,176.3c0,2.1-1.6,3.7-3.7,3.7s-3.7-1.6-3.7-3.7,1.7-3.7,3.7-3.7,3.7,1.6,3.7,3.7ZM265.9,176.3c0,1.4,1,2.3,2.2,2.3s2.2-.9,2.2-2.3-1-2.3-2.2-2.3-2.2.9-2.2,2.3Z"/>
  <path class="st2" d="M276.8,169.7c.5,0,1.2.1,1.6.3l-.3,1.2h-.2c-.3-.2-.7-.2-1-.2-1,0-1.5.6-1.5,1.7h0s2.6,0,2.6,0v1.4h-2.6v5.7h-1.5v-5.7h-1.3v-1.4h1.3c0-2,1.2-3,2.8-3Z"/>
  <path class="st4" d="M165.9,193.9h4.1v1.4h-5.6v-9h1.5v7.6Z"/>
  <path class="st4" d="M174.3,186.3h1.9l3.5,9h-1.5l-.9-2.4h-3.9l-.9,2.4h-1.5l3.5-9ZM176.6,191.5l-1.4-3.8-1.4,3.8h2.9Z"/>
  <path class="st4" d="M186.2,187.7h-2.8v7.6h-1.5v-7.6h-2.7v-1.4h7v1.4Z"/>
  <path class="st4" d="M187.6,186.3h1.5v9h-1.5v-9Z"/>
  <path class="st4" d="M197.4,193.2v-3.2c-.1,0-.1-3.8-.1-3.8h1.5v9h-1.7l-4.5-7v3.2c.1,0,.1,3.8.1,3.8h-1.5v-9h1.7l4.5,7Z"/>
  <path class="st4" d="M209.7,190.8c0,2.7-2,4.7-4.7,4.7s-4.7-2-4.7-4.7,2-4.7,4.7-4.7,4.7,2,4.7,4.7ZM201.8,190.8c0,1.9,1.4,3.3,3.2,3.3s3.2-1.4,3.2-3.3-1.4-3.3-3.2-3.3-3.2,1.4-3.2,3.3Z"/>
  <path class="st4" d="M221.4,191.3h-4.6v3.9h-1.5v-9h1.5v3.7h4.6v-3.7h1.5v9h-1.5v-3.9Z"/>
  <path class="st4" d="M230.9,187.7h-4.4v2.3h4.1v1.4h-4.1v2.5h4.4v1.4h-5.9v-9h5.9v1.4Z"/>
  <path class="st4" d="M232.6,186.3h3.7c2,0,3.1,1.2,3.1,2.9s-.8,2.5-2.3,2.7l2.7,3.4h-1.8l-2.6-3.4h-1.4v3.4h-1.5v-9ZM236.1,190.6c1.2,0,1.8-.6,1.8-1.5s-.6-1.5-1.8-1.5h-2.1v3h2.1Z"/>
  <path class="st4" d="M241.1,186.3h1.5v9h-1.5v-9Z"/>
  <path class="st4" d="M251,187.7h-2.8v7.6h-1.5v-7.6h-2.7v-1.4h7v1.4Z"/>
  <path class="st4" d="M254,186.3h1.9l3.5,9h-1.5l-.9-2.4h-3.9l-.9,2.4h-1.5l3.5-9ZM256.4,191.5l-1.4-3.8-1.4,3.8h2.9Z"/>
  <path class="st4" d="M269,190.5v4.8h-1.3v-1.8c-.4,1.1-1.7,1.9-3.3,1.9-2.6,0-4.5-2-4.5-4.7s2-4.7,4.7-4.7,3.8,1.2,4.3,3.1h-1.6c-.5-1-1.5-1.7-2.8-1.7-1.8,0-3.2,1.4-3.2,3.3s1.2,3.3,3.2,3.3,2.7-.9,2.9-2.4h-3.4v-1.2h4.9Z"/>
  <path class="st4" d="M276.9,187.7h-4.4v2.3h4.1v1.4h-4.1v2.5h4.4v1.4h-5.9v-9h5.9v1.4Z"/>
</svg>