<?xml version="1.0" encoding="UTF-8"?>
<svg id="Layer_2" xmlns="http://www.w3.org/2000/svg" version="1.1" viewBox="0 0 616 383.4">
  <!-- Generator: Adobe Illustrator 30.0.0, SVG Export Plug-In . SVG Version: 2.1.1 Build 123)  -->
  <defs>
    <style>
      .st0 {
        fill: #eaeaea;
      }

      .st1 {
        fill: none;
        stroke: #03185a;
        stroke-miterlimit: 10;
        stroke-width: 1.3px;
      }

      .st2 {
        isolation: isolate;
      }

      .st3 {
        fill: #071c35;
      }

      .st4 {
        fill: #7bbafd;
      }

      .st5 {
        fill: #ed473e;
      }
    </style>
  </defs>
  <g>
    <g>
      <rect class="st0" x="165.9" y="161.4" width="31.3" height="1.9"/>
      <rect class="st0" x="174.1" y="162.5" width="1.9" height="31.3" transform="translate(-74.7 176) rotate(-45)"/>
      <rect class="st0" x="158.4" y="169" width="1.9" height="31.3"/>
      <rect class="st0" x="127.9" y="177.1" width="31.3" height="1.9" transform="translate(-83.8 153.7) rotate(-45)"/>
      <rect class="st0" x="121.4" y="161.5" width="31.3" height="1.9"/>
      <rect class="st0" x="142.7" y="131" width="1.9" height="31.3" transform="translate(-61.7 144.5) rotate(-45)"/>
      <rect class="st0" x="158.4" y="124.5" width="1.9" height="31.3"/>
      <rect class="st0" x="159.4" y="145.8" width="31.3" height="1.9" transform="translate(-52.5 166.8) rotate(-45)"/>
    </g>
    <g>
      <rect class="st0" x="178.7" y="155.6" width="1.9" height="31.3" transform="translate(-48.1 269.7) rotate(-67)"/>
      <rect class="st0" x="166.6" y="167.3" width="1.9" height="31.3" transform="translate(-56.3 76.1) rotate(-22)"/>
      <rect class="st0" x="134.9" y="181.7" width="31.3" height="1.9" transform="translate(-76.4 249.9) rotate(-67)"/>
      <rect class="st0" x="123.2" y="169.5" width="31.3" height="1.9" transform="translate(-53.7 64.4) rotate(-22)"/>
      <rect class="st0" x="138.1" y="138" width="1.9" height="31.3" transform="translate(-56.7 221.6) rotate(-67)"/>
      <rect class="st0" x="150.2" y="126.2" width="1.9" height="31.3" transform="translate(-42.1 67) rotate(-22)"/>
      <rect class="st0" x="152.5" y="141.3" width="31.3" height="1.9" transform="translate(-28.5 241.5) rotate(-67)"/>
      <rect class="st0" x="164.3" y="153.4" width="31.3" height="1.9" transform="translate(-44.7 78.6) rotate(-22)"/>
    </g>
  </g>
  <g>
    <g>
      <rect class="st0" x="383.3" y="197.9" width="31.3" height="1.9"/>
      <rect class="st0" x="391.4" y="198.9" width="1.9" height="31.3" transform="translate(-36.8 340.3) rotate(-45)"/>
      <rect class="st0" x="375.7" y="205.5" width="1.9" height="31.3"/>
      <rect class="st0" x="345.3" y="213.6" width="31.3" height="1.9" transform="translate(-46 318.1) rotate(-45)"/>
      <rect class="st0" x="338.8" y="197.9" width="31.3" height="1.9"/>
      <rect class="st0" x="360.1" y="167.6" width="1.9" height="31.3" transform="translate(-23.8 308.9) rotate(-45)"/>
      <rect class="st0" x="375.7" y="161" width="1.9" height="31.3"/>
      <rect class="st0" x="376.7" y="182.4" width="31.3" height="1.9" transform="translate(-14.7 331.1) rotate(-45)"/>
    </g>
    <g>
      <rect class="st0" x="396.1" y="192.2" width="1.9" height="31.3" transform="translate(50.6 492.1) rotate(-67)"/>
      <rect class="st0" x="383.7" y="203.8" width="1.9" height="31.3" transform="translate(-54.2 160.1) rotate(-22)"/>
      <rect class="st0" x="352.1" y="218.2" width="31.3" height="1.9" transform="translate(22.3 472) rotate(-67)"/>
      <rect class="st0" x="340.4" y="206" width="31.3" height="1.9" transform="translate(-51.6 148.4) rotate(-22)"/>
      <rect class="st0" x="355.6" y="174.4" width="1.9" height="31.3" transform="translate(42.3 444) rotate(-67)"/>
      <rect class="st0" x="367.7" y="162.7" width="1.9" height="31.3" transform="translate(-40 151.1) rotate(-22)"/>
      <rect class="st0" x="370" y="177.6" width="31.3" height="1.9" transform="translate(70.6 463.8) rotate(-67)"/>
      <rect class="st0" x="381.7" y="189.9" width="31.3" height="1.9" transform="translate(-42.6 162.7) rotate(-22)"/>
    </g>
  </g>
  <path class="st1" d="M39.6,16c6.1,1.7,9.9,4.7,13.3,10.2.5.8.3,2.2,0,3.1-.6,1.7-1.5,3.3-2.5,4.6-2.5,3.4-2.2,6.7.3,10.4.6-.9,1.2-1.8,1.8-2.7,1.5-2.2,3.4-4.2,4.7-6.5.6-.9.9-2.4.9-3.6,0-4.7-.3-9.4-.3-14.4s1.2-3.1,3.6-2.4c16.4,5.4,33.5,8.2,50.3,11.1,19,3.4,38.1,6.5,57.2,9.3,17.3,2.7,34.8,5.7,52.2,7.3,18.8,1.5,38,1.4,56.7,1.8,11.7.3,23.4,0,35,0,9.1.3,18.3,1.2,27.4,2.4,1.5,0,3.4,1.4,4.3,2.8,2.9,4.2,6.6,5.2,11.2,4.2,3.7-.8,7.4-1.4,11.3-1.5-1.8,1.8-3.7,3.7-5.5,5.5-3.6,3.4-7.3,6.7-10.7,10.3-.6.8-.6,2.2-.9,3.3,1.2,0,2.5.3,3.6,0,1-.3,2.2-1,3.3-1.7,1.9-.9,4.2-1,5.6.6,1.5,1.5,2.8,1.2,4.2,0,3.8-2.7,7.5-5.2,11.3-7.6s3.9-2.5,6.1-3.6c.9-.5,2.2,0,3.3-.3v3.1c-.3,1.2-1,2.2-1.2,3.4,0,.8,0,1.8.6,2.5.3.3,1.7,0,2.2-.3,1.4-1,2.7-1,4.2,0,2.8,1.8,5.7,1.9,8.9.9,3.8-1.4,7.6-2.8,11.7-3.9.6,0,1.4-.6,1.8-.5,3.9,1.8,7.9,0,11.8-.5,3.7-.5,5.4,2.5,8.4,4.7-3.6,1-6.4,1.9-9.2,2.8-1.7.5-3.7.5-4.3,2.8-.1.6-1.7.8-2.8,1-5.1,1.5-10.2,2.9-15.4,4.5-4.6,1.4-6.7,4.7-7.4,9.2-.3,2.2-.8,4.2-1.2,6.6,1.2,0,2.7-.3,3.7-.5v10.7c0,1.9-.8,3.9-1,6.1-.3,2.8-1.2,5.6-.6,8.3,1.4,6.6,3.6,13,5.4,19.4,1.8.1,3.4.3,4.8.6,2.7.5,4.3-.5,4.8-2.9.8-2.9,1-5.7,1.7-8.8.5-1.9,1.4-3.8,2.4-6.2,0,0-.3-.3-.8-.6-4.6-3.9-6.7-8.5-4.7-14.8.9-3.1-.5-5.7-1.2-8.8-.6-1.7-1.2-3.7-1-5.4,0-1.2,1.4-2.9,2.7-3.4,4.6-1.8,7.6-5.5,10.8-9.1,1.5-1.8,3.3-2.4,5.4-1.8,3.6.6,7.3.9,10.8,1.7,1,.3,2.5,1.8,2.5,2.8,0,4.3-.5,8.4-1.2,12.6-.6,3.4-2.5,6.5-1.2,10.4,1.9-2.4,3.8-4.7,6.4-7.9,2.9,3.3,5.7,6.2,8.5,9.3.5.6.5,1.7.5,2.7-1.2,7.1-2.7,14.3-3.8,20.9,2.4.8,5.1,1.5,7.6,2.5,3.4,1.2,6.7,1,9.4-1.2,4.5-3.7,8.8-7.6,13-11.8,2.9-2.8,5.4-5.6,8.3-8.4,1.9-1.9,3.4-4.3,3.7-7.1.5-4.5,3.1-7.1,7-8.8.5,0,.9-.5,1.2-.5,7-1,9.9-5.6,11.8-11.8,1.5-4.8,3.6-9.7,5.7-14.4.9-1.8,3.1-3.4,4.8-4.2,4.6-1.8,9.4-3.1,14.4-4.8,3.4-1.2,7-2.5,9.7-4.7s3.9-5.5,6.2-8.3c.6-.8,1.2-1.8,1.9-2.2,2.8-1,3.1-3.3,3.3-5.7.5-5.7,1.8-11.7,2.4-17.5.3-2.9,0-6.1-.3-8.9,0-.9,0-2.5.3-2.5,1.2-.5,3.4-1,3.9-.5,1.8,1.8,3.1,1,4.6,0,.8-.6,1.7-1.2,2.7-1.5,2.4-.8,4.2-.8,5.2,2.2,1.7,4.7,4.2,9.2,6.1,13.9s1.4,1.9,3.1,1.8c4.5-.6,4.8-.3,5.7,3.8.5,1.8,1.4,2.5,3.1,2.5,2.7,0,2.8,1.5,2.4,3.6-.5,1.8-.9,3.7-1.5,5.4-.3.8-1.2,1.7-1.9,1.9-1.9.6-4.5,0-4.8,2.9,0,.3-1,.5-1.7.6-4.2.5-5.1,1.4-5.7,5.4-.5,2.2-.9,4.2-1.4,6.4-.5,1.9-1.5,2.9-3.7,2.9-4.3,0-5.1,1-3.9,5.4.9,3.9,2.8,8,1.5,12.4,0,.8,1,2.4,1.9,3.1,1.5,1.2,3.4,1.8,5.1,2.9,2.2,1.2,3.3,2.9,2.4,5.6-.6,1.9-.9,3.9-1.4,5.6-.3,0-.5.3-.5.3-5.6.5-8.3,3.7-8.2,9.4v5.5c0,2.2-1.2,2.9-3.3,2.2-1.9-.6-3.4-.5-4.5,1.5-.3.8-1,1.2-1.8,1.7-3.9,2.2-4.8,5.6-4.5,10.1.3,3.3.5,6.4.9,9.4.5,3.1-.8,5.6-2.4,8.2-1.2,2.2-2.5,4.3-3.8,7-1.9-1.5-4.3-3.3-6.5-4.8,0,0-.3.1-.6.3.6,2.4,1.4,4.5,2.2,7,1-.3,1.9-.6,2.5-.6,1,2.8,2.2,5.1,2.9,7.6.3.8,0,1.8-.6,2.7-2.2,4.7-4.5,9.4-6.7,14.4-.3-5.1-.6-10.2-.8-15.3h-.9c-.6.8-1.4,1.7-2.4,3.1-3.6-6.1-6.4-11.7-1.7-18.5-.3,0-.6-.1-.8-.3-1.4.8-2.9,1.4-4.2,2.5s-1,1.8-.8,2.7c1,3.1,1.2,5.6.3,8.2,6.1,3.7,4.8,11,8,16.1.3.5-.5,1.7-.9,2.4-.6.9-1.4,1.5-2.8,2.9,1.9.5,3.6.6,4.7,1.2,1,.6,2.5,1.4,2.9,2.5,3.8,8.4,1.9,16.6-1.9,24.3-3.3,6.2-6.7,12.4-10.7,18.2-1.2,1.9-3.6,3.7-5.6,4.5-5.6,1.9-8.4,6.1-10.3,11.3-.9,2.9-2.4,5.6-3.9,8.3-2.4,3.7-4.8,7.1-7.4,10.7-3.3,4.6-5.1,9.7-5.7,15.4-.5,4.2.8,7.4,3.7,10.1,1.5,1.2,3.1,2.7,4.3,3.9.9,1.2,2.4,2.8,2.2,3.9,0,3.1,1.7,5.2,3.3,7.5,2.5,3.8,5.2,7.5,7.6,11.3,1.7,2.8,3.8,5.4,3.3,8.9,0,.5.5.9.8,1.4,3.1,3.6,5.4,7.4,6.6,12,.3,1.4,1.4,2.8,2.5,3.7,2.8,2.7,3.8,5.6,3.8,9.2s0,9.3-.6,14c-.6,3.9-7.5,7.4-11.3,5.7-1-.5-2.2-1.8-2.7-3.1-1.4-3.6-3.4-6.4-7.4-7.4-2.5-.6-3.8-2.5-4.5-5.1-.3-1.4-.6-2.8-1-3.9-.6-2.4-1.7-3.7-4.3-1.9-.5.3-2.2,0-2.5-.6-1.7-2.5-3.6-5.1-4.6-8-.5-1.2.6-2.9,1-4.6,0,0,0-.3-.3-.3-4.7-1.4-4.6-1.4-4.7-6.6,0-3.7,0-7.5-.6-11.2-.3-2.9-1-3.1-3.8-2.4-.6.1-1.8-.9-2.7-1.7-.8-.6-1.2-1.5-1.9-2.4-2.2-1.9-4.5-3.7-6.6-5.6-1.4-1.2-2.7-2.7-4.2-3.8-3.6-2.9-5.4-2.8-8.8.3l-.5.3c-5.4,7.9-13,8.3-21.2,6.1-9.3-2.7-18.8-.8-28.2-.5-2.5,0-4.8,2.2-7.1,3.6-.9.6-1.4,2.2-1.9,3.3l.6.5c.9-.8,1.8-1.7,2.9-2.5.9,1.5,1.8,2.9,2.4,3.8-2.4,1-3.9,1.9-6.5,3.1,3.4,2.2,5.4,4.7,9.1,4.5,1,0,2.5,1.4,3.6,2.2v.9c-2.2.9-4.3,1.7-6.5,2.7-.3-3.6-1.9-4.8-5.6-4.3,0,0-.3-.3-.3-.5,0-1.2,0-2.9-1.7-2.5-.9.3-1.4,1.9-1.8,3.3-.3.9-.3,1.9-.6,3.7-1.8-1.7-3.1-2.8-4.3-3.9-.3.1-.8.3-.9.6-1.7,4.3-5.1,2.8-8,2.5-1.9-.3-2.5-1.8-1.7-5.2-.8-.3-1.7-.5-2.5-.8-1.4-.5-2.9-.9-4.3-1.7-1.9-1.2-3.7-.9-4.6,1.2-.9,2.5-2.8,2.5-4.7,1.9-7-1.5-13.9-2.9-20.8-4.6-5.6-1.4-7.5-.8-11,3.9-2.5,3.6-4.7,7.3-7.5,10.4-1.8,1.9-4.3,3.8-7,4.8-2.9,1.2-6.2,1.7-9.1,2.7-11.6,3.4-16.1,11-13.3,22.7.8,3.6,1.9,7.1,2.8,10.7.3,1.2.3,2.5.6,4.2-9.1-1.8-18-2.8-25.8-6.6-2.2-.9-3.4-2.8-3.3-5.1v-3.1c.9-5.5-.8-10.1-4.6-14-7.1-7.4-13.5-15.3-20.8-22.5s-6.2-4.6-9.4-6.4c-3.9-1.8-5.7-.9-7.9,3.1-1,1.8-1.9,3.8-3.1,5.6-1,1.9-2.8,2.7-4.8,2.4-8.4-.9-13.6-6.1-15.7-15.3-.5-2.4-.9-4.7-1.7-7.1-.3-.8-1.4-1.7-1.9-1.7-3.1,0-4.6-1.7-6.1-3.9-1.8-2.8-3.4-5.6-5.2-8.3-1.7-2.5-3.7-3.6-7.1-3.3-3.4.3-6.7-.8-10.2-1.4-2.7-.5-5.2-1.4-7.9-1.8-2.2-.5-3.7.3-4.3,2.5s-1.8,3.1-4.2,2.9c-10.8-.8-21.5-1-32.1-2.2-3.3-.3-6.2-2.9-9.1-4.6-11-6.6-21.8-13.6-32.8-20.1-2.5-1.5-5.7-1.8-8.9-2.2-4.7-.6-9.4-.5-14.4-1.2-1.9-.3-3.9-1.5-5.5-3.1-6.2-6.1-10.3-13.4-11.7-21.9-.9-5.5-4.3-7.9-9.1-8.8-4.2-.8-8.2-1.7-11.2-4.6-1-.9-2.2-2.7-2.2-3.9.5-5.2-1.4-9.7-4.5-13.5-3.6-4.5-4.5-9.2-4.2-14.8,0-1.9-.9-4.2-1.5-6.4-.8-2.7-2.5-5.1-2.4-7.5.3-6.4-1.9-11.6-4.8-16.6-.8-1.2-1.5-2.4-2.4-3.6-1-1.7-.9-3.1,0-5.2.9-2.5,1.5-5.5.8-8-2.7-8.8-1.7-16.7,2.5-24.9,1.8-3.6,2.4-7.9,3.1-11.8,1-5.5,1.7-11.2,2.8-16.7.3-1.8,1-3.7,2.4-5.1,6.2-7.3,8.5-16.2,11.3-24.7,3.9-13,6.6-26.4,6.5-40,0-2.4-.3-4.6-.5-7.3h0l3.3,1.7,1.2.3"/>
  <g>
    <path class="st5" d="M385.5,181.6h-18.7c-2.5,0-4.2,1.9-4.2,4.2v17.1c0,1.5,1.3,2.9,2.9,2.9s2.9-1.3,2.9-2.9v-14.8h1.3v45.4c0,1.5,1.3,2.9,2.9,2.9h0c1.5,0,2.9-1.3,2.9-2.9v-24h2.3v24c0,1.5,1.3,2.9,2.9,2.9h0c1.5,0,2.9-1.3,2.9-2.9v-45.4h1.3v14.8c0,1.5,1.3,2.9,2.9,2.9s2.9-1.3,2.9-2.9v-17.1c0-2.5-1.9-4.2-4.2-4.2h.1-1.1Z"/>
    <path class="st5" d="M376.2,178.8c2.9,0,5.2-4.2,5.2-7s-2.3-5.2-5.2-5.2-5.2,2.3-5.2,5.2,2.3,7,5.2,7Z"/>
  </g>
  <g>
    <path class="st4" d="M352.7,140.4h-18.7c-2.5,0-4.2,1.9-4.2,4.2v17.1c0,1.5,1.3,2.9,2.9,2.9s2.9-1.3,2.9-2.9v-14.8h1.3v45.4c0,1.5,1.3,2.9,2.9,2.9h0c1.5,0,2.9-1.3,2.9-2.9v-24h2.3v24c0,1.5,1.3,2.9,2.9,2.9h0c1.5,0,2.9-1.3,2.9-2.9v-45.4h1.3v14.8c0,1.5,1.3,2.9,2.9,2.9s2.9-1.3,2.9-2.9v-17.1c0-2.5-1.9-4.2-4.2-4.2h.1-1.1Z"/>
    <path class="st4" d="M343.5,137.6c2.9,0,5.2-4.2,5.2-7s-2.3-5.2-5.2-5.2-5.2,2.3-5.2,5.2,2.3,7,5.2,7h0Z"/>
  </g>
  <g>
    <path class="st4" d="M316.6,104.1h-18.7c-2.5,0-4.2,1.9-4.2,4.2v17.1c0,1.5,1.3,2.9,2.9,2.9s2.9-1.3,2.9-2.9v-14.8h1.3v45.4c0,1.5,1.3,2.9,2.9,2.9h0c1.5,0,2.9-1.3,2.9-2.9v-24h2.3v24c0,1.5,1.3,2.9,2.9,2.9h0c1.5,0,2.9-1.3,2.9-2.9v-45.4h1.3v14.8c0,1.5,1.3,2.9,2.9,2.9s2.9-1.3,2.9-2.9v-17.1c0-2.5-1.9-4.2-4.2-4.2h.1-1.1Z"/>
    <path class="st4" d="M307.2,101.5c2.9,0,5.2-4.2,5.2-7s-2.3-5.2-5.2-5.2-5.2,2.3-5.2,5.2,2.3,7,5.2,7Z"/>
  </g>
  <g>
    <path class="st4" d="M352.7,218.4h-18.7c-2.5,0-4.2,1.9-4.2,4.2v17.1c0,1.5,1.3,2.9,2.9,2.9s2.9-1.3,2.9-2.9v-14.8h1.3v45.4c0,1.5,1.3,2.9,2.9,2.9h0c1.5,0,2.9-1.3,2.9-2.9v-24h2.3v24c0,1.5,1.3,2.9,2.9,2.9h0c1.5,0,2.9-1.3,2.9-2.9v-45.4h1.3v14.8c0,1.5,1.3,2.9,2.9,2.9s2.9-1.3,2.9-2.9v-17.1c0-2.5-1.9-4.2-4.2-4.2h.1-1.1Z"/>
    <path class="st4" d="M343.5,215.9c2.9,0,5.2-4.2,5.2-7s-2.3-5.2-5.2-5.2-5.2,2.3-5.2,5.2,2.3,7,5.2,7h0Z"/>
  </g>
  <g>
    <path class="st4" d="M317.3,254h-18.7c-2.5,0-4.2,1.9-4.2,4.2v17.1c0,1.5,1.3,2.9,2.9,2.9s2.9-1.3,2.9-2.9v-14.8h1.3v45.4c0,1.5,1.3,2.9,2.9,2.9h0c1.5,0,2.9-1.3,2.9-2.9v-24h2.3v24c0,1.5,1.3,2.9,2.9,2.9h0c1.5,0,2.9-1.3,2.9-2.9v-45.4h1.3v14.8c0,1.5,1.3,2.9,2.9,2.9s2.9-1.3,2.9-2.9v-17.1c0-2.5-1.9-4.2-4.2-4.2h.1-1.1Z"/>
    <path class="st4" d="M307.8,251.3c2.9,0,5.2-4.2,5.2-7s-2.3-5.2-5.2-5.2-5.2,2.3-5.2,5.2,2.3,7,5.2,7Z"/>
  </g>
  <g class="st2">
    <path class="st5" d="M167.5,196.6h-12.6v-37.1l-11.4,4.8v-12.3l18.3-7.2h5.7v51.8h0Z"/>
  </g>
  <g>
    <path class="st3" d="M199.5,152.8c0,3.5-2.6,6-6.3,6s-6.3-2.5-6.3-6,2.9-6,6.3-6,6.3,2.5,6.3,6ZM188,162.8h10.6v33.8h-10.6v-33.8h0Z"/>
    <path class="st3" d="M204.6,162.8h10.6v3.8c2.5-3.1,5.5-4.5,9.7-4.5,7.7,0,12.3,5.2,12.3,13.3v21h-10.6v-18.9c0-3.6-1.1-5.8-5.3-5.8s-6.1,2.1-6.1,6.8v18h-10.6v-33.8.3h-.1v-.2h.1Z"/>
  </g>
  <path class="st4" d="M282,181.8c0,9.7-7.3,15.6-16.7,15.6s-16.5-4.5-16.9-15h10.7c.4,3.8,3.3,5.2,6.1,5.2s6.3-2.5,6.3-5.8-2.5-5.5-6.1-5.5-5,1.5-5.7,2.6h-9.9l5.3-25.2h25.2v9.9h-17.1l-1.1,5.4c1.5-.8,3.5-1.5,6.1-1.5,7.5,0,14.3,5,14.3,14.4h-.5Z"/>
  <path class="st3" d="M142.4,209.9h2.5l4.5,11.7h-1.9l-1.1-3.1h-5l-1.1,3.1h-1.9l4.5-11.7h-.5ZM145.5,216.6l-1.8-4.9-1.8,4.9h3.8-.2Z"/>
  <path class="st3" d="M164.7,215.6v6h-1.9v-5.4c0-1.4-.5-2.1-1.8-2.1s-2.3,1.1-2.3,2.9v4.8h-1.9v-5.4c0-1.4-.5-2.1-1.8-2.1s-2.3,1.1-2.3,2.9v4.8h-1.9v-9.2h1.9v1.4c.6-1,1.5-1.6,2.9-1.6s2.4.6,2.9,1.9c.6-1.1,1.6-1.9,3.1-1.9s3.1,1.3,3.1,3.5v-.3h.2l-.2-.2Z"/>
  <path class="st3" d="M166.6,217c0-2.8,1.9-4.8,4.8-4.8s4.8,2.4,4.7,5.3h-7.5c.1,1.6,1.3,2.6,2.9,2.6s2.1-.5,2.5-1.4h1.9c-.8,2.1-2.5,3-4.4,3-2.9,0-4.8-1.9-4.8-4.8h0v.2h-.1,0ZM173.9,216c-.3-1.3-1.1-2.3-2.6-2.3s-2.5.9-2.8,2.3h5.4Z"/>
  <path class="st3" d="M177.8,212.4h1.9v1.8c.5-1.3,1.5-1.9,3.1-1.9s.4,0,.5,0v1.9h-.5c-1.6,0-3,.9-3,3.3v4.3h-1.9v-9.2h-.1v-.2h0Z"/>
  <path class="st3" d="M187.1,209.3c0,.6-.5,1.1-1.3,1.1s-1.1-.5-1.1-1.1.5-1.1,1.1-1.1,1.3.5,1.3,1.1ZM184.8,212.4h1.9v9.2h-1.9v-9.2Z"/>
  <path class="st3" d="M188.6,217c0-2.8,2.1-4.8,4.8-4.8s4.2,1.3,4.5,3.5h-1.9c-.4-1.1-1.4-1.8-2.6-1.8s-2.9,1.3-2.9,3,1.1,3,2.9,3,2.3-.6,2.6-1.8h1.9c-.4,2.4-2.4,3.5-4.5,3.5s-4.8-2.1-4.8-4.8v.3h0Z"/>
  <path class="st3" d="M199.4,217c0-2.9,1.8-4.8,4.3-4.8s2.6.8,3.3,1.8v-1.5h1.9v9.2h-1.9v-1.5c-.6,1-1.8,1.6-3.3,1.6-2.5,0-4.3-1.9-4.3-4.8h0ZM207,217c0-1.8-1.1-3-2.9-3s-2.8,1.3-2.8,3,1.1,3,2.8,3,2.9-1.1,2.9-3Z"/>
  <path class="st3" d="M211,212.4h1.9v1.5c.6-1,1.6-1.6,3.1-1.6s3.4,1.3,3.4,3.6v5.8h-1.9v-5.4c0-1.4-.6-2.3-1.9-2.3s-2.5,1-2.5,2.9v4.8h-1.9v-9.2h-.2Z"/>
  <path class="st3" d="M220.9,218.5h1.9c.3,1,1,1.4,2.6,1.4s1.9-.4,1.9-1-.9-.9-2.5-1.3c-2.6-.6-3.6-1.1-3.6-2.8s1.5-3,3.9-3,3.6,1.1,4,2.9h-1.9c-.3-.8-.9-1.1-2.3-1.1s-1.9.4-1.9,1,.5.8,2.3,1.1c2.5.6,3.9,1,3.9,2.9s-1.8,3-3.9,3-4.2-1.1-4.5-3.1h.1Z"/>
  <path class="st3" d="M235.9,217c0-2.9,1.8-4.8,4.3-4.8s2.6.8,3.3,1.8v-1.5h1.9v9.2h-1.9v-1.5c-.6,1-1.8,1.6-3.3,1.6-2.5,0-4.3-1.9-4.3-4.8h0ZM243.4,217c0-1.8-1.1-3-2.9-3s-2.8,1.3-2.8,3,1.1,3,2.8,3,2.9-1.1,2.9-3Z"/>
  <path class="st3" d="M247.4,212.4h1.9v1.8c.5-1.3,1.5-1.9,3.1-1.9s.4,0,.5,0v1.9h-.5c-1.6,0-3,.9-3,3.3v4.3h-1.9v-9.2h-.1v-.2h0Z"/>
  <path class="st3" d="M254.1,217c0-2.8,1.9-4.8,4.8-4.8s4.8,2.4,4.7,5.3h-7.5c.1,1.6,1.3,2.6,2.9,2.6s2.1-.5,2.5-1.4h1.9c-.8,2.1-2.5,3-4.4,3-2.9,0-4.8-1.9-4.8-4.8h0v.2h-.1,0ZM261.5,216c-.3-1.3-1.1-2.3-2.6-2.3s-2.5.9-2.8,2.3h5.4Z"/>
  <path class="st3" d="M279.6,217c0,2.8-2.1,4.8-4.8,4.8s-4.8-2.1-4.8-4.8,2.3-4.8,4.8-4.8,4.8,2.1,4.8,4.8ZM272,217c0,1.8,1.3,3,2.9,3s2.9-1.1,2.9-3-1.3-3-2.9-3-2.9,1.1-2.9,3Z"/>
  <path class="st3" d="M286.2,208.5c.6,0,1.5.1,2.1.4l-.4,1.5h-.3c-.4-.3-.9-.3-1.3-.3-1.3,0-1.9.8-1.9,2.3h3.4v1.8h-3.4v7.4h-1.9v-7.4h-1.6v-1.8h1.6c0-2.6,1.5-3.9,3.6-3.9h.3-.2Z"/>
  <path class="st5" d="M142.1,239.9h5.3v1.8h-7.3v-11.7h1.9v9.9h.1Z"/>
  <path class="st5" d="M153,230h2.5l4.5,11.7h-1.9l-1.1-3.1h-5l-1.1,3.1h-1.9l4.5-11.7h-.5ZM156,236.8l-1.8-4.9-1.8,4.9h3.8-.2Z"/>
  <path class="st5" d="M168.5,231.8h-3.6v9.9h-1.9v-9.9h-3.5v-1.8h9.1v1.8h-.1Z"/>
  <path class="st5" d="M170.3,230h1.9v11.7h-1.9v-11.7Z"/>
  <path class="st5" d="M183.1,239v-4.2c-.1,0-.1-4.9-.1-4.9h1.9v11.7h-2.3l-5.8-9.1v4.2c.1,0,.1,4.9.1,4.9h-1.9v-11.7h2.3l5.8,9.1Z"/>
  <path class="st5" d="M199,235.9c0,3.5-2.6,6.1-6.1,6.1s-6.1-2.6-6.1-6.1,2.6-6.1,6.1-6.1,6.1,2.6,6.1,6.1ZM188.7,235.9c0,2.5,1.8,4.3,4.2,4.3s4.2-1.8,4.2-4.3-1.8-4.3-4.2-4.3-4.2,1.8-4.2,4.3Z"/>
  <path class="st5" d="M214.2,236.5h-6v5h-1.9v-11.7h1.9v4.8h6v-4.8h1.9v11.7h-1.9v-5Z"/>
  <path class="st5" d="M226.6,231.8h-5.7v3h5.3v1.8h-5.3v3.3h5.7v1.8h-7.7v-11.7h7.7v1.8h0Z"/>
  <path class="st5" d="M228.7,230h4.8c2.6,0,4,1.5,4,3.8s-1,3.3-3,3.5l3.5,4.4h-2.4l-3.4-4.4h-1.8v4.4h-1.9v-11.7h.2,0ZM233.2,235.6c1.5,0,2.4-.8,2.4-1.9s-.8-1.9-2.4-1.9h-2.8v3.9h2.8Z"/>
  <path class="st5" d="M239.8,230h1.9v11.7h-1.9v-11.7Z"/>
  <path class="st5" d="M252.6,231.8h-3.6v9.9h-1.9v-9.9h-3.5v-1.8h9.1v1.8h-.1Z"/>
  <path class="st5" d="M256.5,230h2.5l4.5,11.7h-1.9l-1.1-3.1h-5l-1.1,3.1h-1.9l4.5-11.7h-.5ZM259.6,236.8l-1.8-4.9-1.8,4.9h3.8-.2Z"/>
  <path class="st5" d="M276,235.5v6.3h-1.6v-2.4c-.5,1.4-2.3,2.5-4.3,2.5-3.4,0-5.8-2.6-5.8-6.1s2.6-6.1,6.1-6.1,4.9,1.5,5.5,4h-2.1c-.6-1.3-1.9-2.3-3.6-2.3s-4.2,1.8-4.2,4.3,1.5,4.3,4.2,4.3,3.5-1.1,3.8-3.1h-4.4v-1.5h6.5-.1Z"/>
  <path class="st5" d="M286.3,231.8h-5.7v3h5.3v1.8h-5.3v3.3h5.7v1.8h-7.7v-11.7h7.7v1.8h0Z"/>
</svg>