<?xml version="1.0" encoding="UTF-8"?>
<svg id="Layer_2" xmlns="http://www.w3.org/2000/svg" version="1.1" viewBox="0 0 291.6 133.4">
  <!-- Generator: Adobe Illustrator 30.0.0, SVG Export Plug-In . SVG Version: 2.1.1 Build 123)  -->
  <defs>
    <style>
      .st0 {
        fill: #f93d61;
      }

      .st1 {
        isolation: isolate;
      }

      .st2 {
        fill: #04454c;
      }

      .st3 {
        fill: #21bfd8;
      }
    </style>
  </defs>
  <g class="st1">
    <g class="st1">
      <path class="st2" d="M3.6,32.6c0-9.4,7-17.2,15.1-27.9h12.4l-11.5,14.5c1.3-.5,2.4-.9,4.1-.9,7,0,13.9,4.5,13.9,14s-7.6,16.4-16.9,16.4S3.6,42.4,3.6,32.6ZM27.1,32.4c0-3.9-2.7-6.1-6.4-6.1s-6.4,2.2-6.4,6.1,2.7,6.4,6.4,6.4,6.4-2.4,6.4-6.4Z"/>
      <path class="st2" d="M42,35.6c0-4.5,2.2-8.3,6.3-10.2-3.1-1.7-5.1-5-5.1-8.9,0-7.2,6.8-12.6,15.7-12.6s15.7,5.2,15.7,12.6-2,7.2-5.1,8.9c4,1.8,6.3,5.6,6.3,10.2,0,8.2-7.1,13.2-16.8,13.2s-16.8-5-16.8-13.2h-.2ZM65.2,34.6c0-2.9-2.2-4.1-6.3-4.1s-6.3,1.3-6.3,4.1,2,4.3,6.3,4.3,6.3-1.5,6.3-4.3ZM64.1,17.8c0-2.1-1.3-4-5.2-4s-5.2,1.8-5.2,4,1.3,3.5,5.2,3.5,5.2-1.4,5.2-3.5Z"/>
      <path class="st2" d="M100.4,4.7h11.9l9.9,14.8,9.9-14.8h11.9v43.2h-10.5v-28.5l-10.9,16.5h-1l-10.7-16.5v28.5h-10.5V4.7Z"/>
    </g>
  </g>
  <g class="st1">
    <g class="st1">
      <path class="st3" d="M5.9,117.9l12.6-11c8-7,9.3-8.3,9.3-10.9s-1.3-4.5-5.2-4.5-5.2,1.9-5.6,5.9H6.3c.3-9.7,7.2-15.7,16.6-15.7s15.2,6.5,15.2,13.8-4.5,10.4-11.2,16.3l-3.9,3.5h-.1,16.1v9.9H5.9v-7.4h0Z"/>
    </g>
    <g class="st1">
      <path class="st3" d="M80.9,103.9c0,13.3-7.1,22.2-18.9,22.2s-18.9-8.8-18.9-22.2,7.1-22.2,18.9-22.2,18.9,8.8,18.9,22.2ZM70.4,103.9c0-7.9-2.3-12.2-8.4-12.2s-8.4,4.4-8.4,12.2,2.3,12.2,8.4,12.2,8.4-4.4,8.4-12.2Z"/>
      <path class="st3" d="M87.6,94.6c0-8.1,5-12.9,12.3-12.9s12.3,4.8,12.3,12.9-5,12.9-12.3,12.9-12.3-4.8-12.3-12.9ZM103.3,94.6c0-3.2-.7-4.9-3.3-4.9s-3.3,1.7-3.3,4.9.7,4.9,3.3,4.9,3.3-1.7,3.3-4.9ZM110.3,125.2h-9.8l24.5-42.8h9.8l-24.5,42.8ZM147.6,113.1c0,8.1-5,12.9-12.3,12.9s-12.3-4.8-12.3-12.9,5-12.9,12.3-12.9,12.3,4.8,12.3,12.9ZM132.1,113.1c0,3.2.7,4.9,3.3,4.9s3.3-1.7,3.3-4.9-.7-4.9-3.3-4.9-3.3,1.7-3.3,4.9Z"/>
    </g>
  </g>
  <rect class="st0" x="3.6" y="62.2" width="145.2" height="6.6"/>
  <g>
    <circle class="st2" cx="163.9" cy="7.6" r="5.3"/>
    <circle class="st2" cx="176.3" cy="7.6" r="5.3"/>
    <circle class="st2" cx="188.3" cy="7.6" r="5.3"/>
    <circle class="st2" cx="200.7" cy="7.6" r="5.3"/>
    <circle class="st2" cx="212.7" cy="7.6" r="5.3"/>
    <circle class="st2" cx="225.1" cy="7.6" r="5.3"/>
    <circle class="st2" cx="238" cy="7.6" r="5.3"/>
    <circle class="st2" cx="250.7" cy="7.6" r="5.3"/>
    <circle class="st2" cx="263.1" cy="7.6" r="5.3" transform="translate(199 262.9) rotate(-77.6)"/>
    <circle class="st2" cx="275.7" cy="7.6" r="5.3"/>
  </g>
  <g>
    <circle class="st2" cx="164" cy="20" r="5.3"/>
    <circle class="st2" cx="176.3" cy="20" r="5.3"/>
    <circle class="st2" cx="188.4" cy="20" r="5.3"/>
    <circle class="st2" cx="200.8" cy="20" r="5.3"/>
    <circle class="st2" cx="212.7" cy="20" r="5.3"/>
    <circle class="st2" cx="225.2" cy="20" r="5.3"/>
    <circle class="st2" cx="238.1" cy="20" r="5.3"/>
    <circle class="st2" cx="250.8" cy="20" r="5.3"/>
    <circle class="st2" cx="263.2" cy="20" r="5.3" transform="translate(184.8 272) rotate(-77.1)"/>
    <circle class="st2" cx="275.8" cy="20" r="5.3"/>
  </g>
  <g>
    <circle class="st2" cx="163.9" cy="33.2" r="5.3"/>
    <circle class="st2" cx="176.3" cy="33.2" r="5.3"/>
    <circle class="st2" cx="188.3" cy="33.2" r="5.3"/>
    <circle class="st2" cx="200.7" cy="33.2" r="5.3"/>
    <circle class="st2" cx="212.7" cy="33.2" r="5.3"/>
    <circle class="st2" cx="225.1" cy="33.2" r="5.3"/>
    <circle class="st2" cx="238" cy="33.2" r="5.3"/>
    <circle class="st2" cx="250.7" cy="33.2" r="5.3"/>
    <circle class="st2" cx="263.1" cy="33.2" r="5.3" transform="translate(170.3 281.6) rotate(-76.7)"/>
    <circle class="st2" cx="275.7" cy="33.2" r="5.3"/>
  </g>
  <g>
    <circle class="st2" cx="164" cy="45.5" r="5.3"/>
    <circle class="st2" cx="176.3" cy="45.5" r="5.3"/>
    <circle class="st2" cx="188.4" cy="45.5" r="5.3"/>
    <circle class="st2" cx="200.8" cy="45.5" r="5.3"/>
    <circle class="st2" cx="212.7" cy="45.5" r="5.3"/>
    <circle class="st2" cx="225.2" cy="45.5" r="5.3"/>
    <circle class="st2" cx="238.1" cy="45.5" r="5.3"/>
    <circle class="st2" cx="250.8" cy="45.5" r="5.3"/>
    <circle class="st2" cx="263.2" cy="45.5" r="5.3" transform="translate(158.4 291.2) rotate(-76.7)"/>
    <circle class="st2" cx="275.8" cy="45.5" r="5.3"/>
  </g>
  <g>
    <circle class="st2" cx="164" cy="58" r="5.3"/>
    <circle class="st2" cx="176.4" cy="58" r="5.3"/>
    <circle class="st2" cx="188.5" cy="58" r="5.3"/>
    <circle class="st2" cx="200.8" cy="58" r="5.3"/>
    <circle class="st2" cx="212.8" cy="58" r="5.3"/>
    <circle class="st2" cx="225.2" cy="58" r="5.3"/>
    <circle class="st2" cx="238.2" cy="58" r="5.3"/>
    <circle class="st2" cx="250.9" cy="58" r="5.3"/>
    <circle class="st2" cx="263.2" cy="58" r="5.3" transform="translate(146.3 300.8) rotate(-76.7)"/>
    <circle class="st2" cx="275.8" cy="58" r="5.3"/>
  </g>
  <g>
    <circle class="st2" cx="164.7" cy="70.8" r="5.3"/>
    <circle class="st2" cx="177.2" cy="70.8" r="5.3"/>
    <circle class="st2" cx="189.2" cy="70.8" r="5.3"/>
    <circle class="st2" cx="201.6" cy="70.8" r="5.3"/>
    <circle class="st2" cx="213.5" cy="70.8" r="5.3"/>
    <circle class="st2" cx="226" cy="70.8" r="5.3"/>
    <circle class="st2" cx="238.9" cy="70.8" r="5.3"/>
    <circle class="st2" cx="251.6" cy="70.8" r="5.3"/>
    <circle class="st2" cx="263.9" cy="70.8" r="5.3" transform="translate(151.7 320) rotate(-80.8)"/>
    <circle class="st2" cx="276.5" cy="70.8" r="5.3"/>
  </g>
  <g>
    <circle class="st2" cx="164.8" cy="83.1" r="5.3"/>
    <circle class="st2" cx="177.3" cy="83.1" r="5.3"/>
    <circle class="st2" cx="189.3" cy="83.1" r="5.3"/>
    <circle class="st2" cx="201.7" cy="83.1" r="5.3"/>
    <circle class="st2" cx="213.6" cy="83.1" r="5.3"/>
    <circle class="st2" cx="226.1" cy="83.1" r="5.3"/>
    <circle class="st2" cx="239" cy="83.1" r="5.3"/>
    <circle class="st2" cx="251.6" cy="83.1" r="5.3"/>
    <circle class="st2" cx="264" cy="83.1" r="5.3" transform="translate(139.7 330.4) rotate(-80.8)"/>
    <circle class="st2" cx="276.6" cy="83.1" r="5.3"/>
  </g>
  <g>
    <circle class="st2" cx="164.7" cy="96.3" r="5.3"/>
    <circle class="st2" cx="177.2" cy="96.3" r="5.3"/>
    <circle class="st2" cx="189.2" cy="96.3" r="5.3"/>
    <circle class="st2" cx="201.6" cy="96.3" r="5.3"/>
    <circle class="st2" cx="213.5" cy="96.3" r="5.3"/>
    <circle class="st2" cx="226" cy="96.3" r="5.3"/>
    <circle class="st2" cx="238.9" cy="96.3" r="5.3"/>
    <circle class="st2" cx="251.6" cy="96.3" r="5.3"/>
    <circle class="st2" cx="263.9" cy="96.3" r="5.3" transform="translate(126.6 341.4) rotate(-80.8)"/>
    <circle class="st2" cx="276.5" cy="96.3" r="5.3"/>
  </g>
  <g>
    <circle class="st3" cx="164.8" cy="109.7" r="5.3"/>
    <circle class="st3" cx="177.3" cy="109.5" r="5.3"/>
    <circle class="st3" cx="189.3" cy="109.5" r="5.3"/>
    <circle class="st3" cx="201.7" cy="109.5" r="5.3"/>
    <circle class="st3" cx="213.7" cy="109.4" r="5.3"/>
    <circle class="st3" cx="226.1" cy="109.5" r="5.3"/>
    <circle class="st3" cx="239" cy="109.5" r="5.3"/>
    <circle class="st3" cx="251.6" cy="109.5" r="5.3"/>
    <circle class="st3" cx="264" cy="109.7" r="5.3" transform="translate(96.5 341.4) rotate(-76.7)"/>
    <circle class="st3" cx="276.6" cy="109.5" r="5.3"/>
  </g>
  <g>
    <circle class="st3" cx="164.9" cy="122.1" r="5.3"/>
    <circle class="st3" cx="177.4" cy="122.1" r="5.3"/>
    <circle class="st3" cx="189.3" cy="122.1" r="5.3"/>
    <circle class="st3" cx="201.8" cy="122.1" r="5.3"/>
    <circle class="st3" cx="213.8" cy="121.9" r="5.3"/>
    <circle class="st3" cx="226.1" cy="122.1" r="5.3"/>
    <circle class="st3" cx="239" cy="122.1" r="5.3"/>
    <circle class="st3" cx="251.7" cy="122.1" r="5.3"/>
    <circle class="st3" cx="264.2" cy="122" r="5.3" transform="translate(108.2 367.7) rotate(-82.4)"/>
    <circle class="st3" cx="276.7" cy="122.1" r="5.3"/>
  </g>
</svg>