<?xml version="1.0" encoding="UTF-8"?>
<svg id="Layer_2" xmlns="http://www.w3.org/2000/svg" version="1.1" viewBox="0 0 399.4 207.4">
  <!-- Generator: Adobe Illustrator 30.0.0, SVG Export Plug-In . SVG Version: 2.1.1 Build 123)  -->
  <defs>
    <style>
      .st0 {
        isolation: isolate;
      }

      .st1 {
        stroke-width: 1.4px;
      }

      .st1, .st2 {
        fill: none;
        stroke: #7bbafd;
        stroke-miterlimit: 10;
      }

      .st3 {
        fill: #03185a;
      }

      .st4 {
        fill: #7bbafd;
      }

      .st5 {
        fill: #ed473e;
      }
    </style>
  </defs>
  <path class="st5" d="M352.5,179.3c0-2.5,1.8-4.5,4-7.2h3.2l-3,3.8c.4,0,.6-.3,1.1-.3,1.8,0,3.6,1.2,3.6,3.6s-2,4.3-4.4,4.3-4.5-1.6-4.5-4.2h0ZM358.6,179.2c0-1-.7-1.6-1.6-1.6s-1.6.5-1.6,1.6.7,1.6,1.6,1.6,1.6-.6,1.6-1.6Z"/>
  <path class="st5" d="M362.5,180c0-1.2.5-2.2,1.6-2.7-.8-.5-1.3-1.3-1.3-2.3,0-1.8,1.7-3.3,4.1-3.3s4.1,1.4,4.1,3.3-.5,1.8-1.3,2.3c1,.5,1.6,1.5,1.6,2.7,0,2.1-1.8,3.5-4.4,3.5s-4.4-1.3-4.4-3.5h-.2.2ZM368.5,179.8c0-.7-.5-1.1-1.6-1.1s-1.6.4-1.6,1.1.5,1.1,1.6,1.1,1.6-.4,1.6-1.1ZM368.2,175.4c0-.5-.4-1-1.4-1s-1.4.5-1.4,1,.4.9,1.4.9,1.4-.4,1.4-.9Z"/>
  <path class="st5" d="M374.4,172h3.1l2.5,3.8,2.5-3.8h3.1v11.2h-2.7v-7.4l-2.8,4.3h-.3l-2.7-4.3v7.4h-2.7v-11.2h0Z"/>
  <g class="st0">
    <g class="st0">
      <path class="st4" d="M298.5,180.9l3.3-2.9c2.1-1.8,2.5-2.2,2.5-2.8s-.4-1.2-1.4-1.2-1.4.5-1.5,1.6h-2.8c0-2.5,1.9-4.1,4.4-4.1s4,1.7,4,3.6-1.2,2.7-2.9,4.3l-1,.9h4.2v2.5h-8.7v-1.9h0Z"/>
    </g>
    <g class="st0">
      <path class="st4" d="M318.3,177.3c0,3.5-1.8,5.8-4.9,5.8s-4.9-2.3-4.9-5.8,1.8-5.8,4.9-5.8,4.9,2.3,4.9,5.8ZM315.5,177.3c0-2.1-.6-3.2-2.2-3.2s-2.2,1.2-2.2,3.2.6,3.2,2.2,3.2,2.2-1.2,2.2-3.2Z"/>
      <path class="st4" d="M320,174.8c0-2.1,1.3-3.4,3.2-3.4s3.2,1.3,3.2,3.4-1.3,3.4-3.2,3.4-3.2-1.3-3.2-3.4ZM324.1,174.8c0-.8-.2-1.3-.8-1.3s-.8.5-.8,1.3.2,1.3.8,1.3.8-.5.8-1.3ZM325.9,182.9h-2.5l6.4-11.2h2.5l-6.4,11.2ZM335.7,179.6c0,2.1-1.3,3.4-3.2,3.4s-3.2-1.3-3.2-3.4,1.3-3.4,3.2-3.4,3.2,1.3,3.2,3.4ZM331.7,179.6c0,.8.2,1.3.8,1.3s.8-.5.8-1.3-.2-1.3-.8-1.3-.8.5-.8,1.3Z"/>
    </g>
  </g>
  <g>
    <circle class="st3" cx="114.7" cy="22.6" r="7.5"/>
    <circle class="st3" cx="132.1" cy="22.6" r="7.5"/>
    <circle class="st3" cx="149.1" cy="22.6" r="7.5"/>
    <circle class="st3" cx="166.6" cy="22.6" r="7.5"/>
    <circle class="st3" cx="183.5" cy="22.6" r="7.5"/>
    <circle class="st3" cx="201" cy="22.6" r="7.5"/>
    <circle class="st3" cx="219.2" cy="22.6" r="7.5"/>
    <circle class="st3" cx="237.1" cy="22.6" r="7.5"/>
    <circle class="st3" cx="254.3" cy="22.7" r="7.5"/>
    <circle class="st3" cx="272.3" cy="22.6" r="7.5"/>
  </g>
  <g>
    <circle class="st3" cx="114.8" cy="40.1" r="7.5"/>
    <circle class="st3" cx="132.1" cy="40.1" r="7.5"/>
    <circle class="st3" cx="149.2" cy="40.1" r="7.5"/>
    <circle class="st3" cx="166.7" cy="40.1" r="7.5"/>
    <circle class="st3" cx="183.5" cy="40.1" r="7.5"/>
    <circle class="st3" cx="201.1" cy="40.1" r="7.5"/>
    <circle class="st3" cx="219.3" cy="40.1" r="7.5"/>
    <circle class="st3" cx="237.2" cy="40.1" r="7.5"/>
    <circle class="st3" cx="254.5" cy="40" r="7.5"/>
    <circle class="st3" cx="272.5" cy="40.1" r="7.5"/>
  </g>
  <g>
    <circle class="st3" cx="114.7" cy="58.7" r="7.5"/>
    <circle class="st3" cx="132.1" cy="58.7" r="7.5"/>
    <circle class="st3" cx="149.1" cy="58.7" r="7.5"/>
    <circle class="st3" cx="166.6" cy="58.7" r="7.5"/>
    <circle class="st3" cx="183.5" cy="58.7" r="7.5"/>
    <circle class="st3" cx="201" cy="58.7" r="7.5"/>
    <circle class="st3" cx="219.2" cy="58.7" r="7.5"/>
    <circle class="st3" cx="237.1" cy="58.7" r="7.5"/>
    <circle class="st3" cx="254.5" cy="58.7" r="7.5"/>
    <circle class="st3" cx="272.3" cy="58.7" r="7.5"/>
  </g>
  <g>
    <circle class="st3" cx="114.8" cy="76" r="7.5"/>
    <circle class="st3" cx="132.1" cy="76" r="7.5"/>
    <circle class="st3" cx="149.2" cy="76" r="7.5"/>
    <circle class="st3" cx="166.7" cy="76" r="7.5"/>
    <circle class="st3" cx="183.5" cy="76" r="7.5"/>
    <circle class="st3" cx="201.1" cy="76" r="7.5"/>
    <circle class="st3" cx="219.3" cy="76" r="7.5"/>
    <circle class="st3" cx="237.2" cy="76" r="7.5"/>
    <circle class="st3" cx="254.8" cy="76.1" r="7.5"/>
    <circle class="st3" cx="272.5" cy="76" r="7.5"/>
  </g>
  <g>
    <circle class="st3" cx="114.8" cy="93.6" r="7.5"/>
    <circle class="st3" cx="132.3" cy="93.6" r="7.5"/>
    <circle class="st3" cx="149.4" cy="93.6" r="7.5"/>
    <circle class="st3" cx="166.7" cy="93.6" r="7.5"/>
    <circle class="st3" cx="183.6" cy="93.6" r="7.5"/>
    <circle class="st3" cx="201.1" cy="93.6" r="7.5"/>
    <circle class="st3" cx="219.3" cy="93.7" r="7.5"/>
    <circle class="st3" cx="237.4" cy="93.9" r="7.5"/>
    <circle class="st3" cx="254.8" cy="93.7" r="7.5"/>
    <circle class="st3" cx="272.5" cy="93.6" r="7.5"/>
  </g>
  <g>
    <circle class="st3" cx="115.8" cy="111.7" r="7.5"/>
    <circle class="st3" cx="133.4" cy="111.7" r="7.5"/>
    <circle class="st3" cx="150.3" cy="111.7" r="7.5"/>
    <circle class="st3" cx="167.8" cy="111.7" r="7.5"/>
    <circle class="st3" cx="184.6" cy="111.7" r="7.5"/>
    <circle class="st3" cx="202.2" cy="111.7" r="7.5"/>
    <circle class="st3" cx="220.4" cy="111.7" r="7.5"/>
    <circle class="st3" cx="238.2" cy="111.8" r="7.5"/>
    <circle class="st3" cx="255.6" cy="111.8" r="7.5"/>
    <circle class="st3" cx="273.5" cy="111.7" r="7.5"/>
  </g>
  <g>
    <circle class="st3" cx="115.9" cy="129" r="7.5"/>
    <circle class="st3" cx="133.6" cy="129" r="7.5"/>
    <circle class="st3" cx="150.5" cy="129" r="7.5"/>
    <circle class="st3" cx="168" cy="129" r="7.5"/>
    <circle class="st3" cx="184.7" cy="129" r="7.5"/>
    <circle class="st3" cx="202.4" cy="129" r="7.5"/>
    <circle class="st3" cx="220.6" cy="129" r="7.5"/>
    <circle class="st3" cx="238.2" cy="129.1" r="7.5"/>
    <circle class="st3" cx="255.8" cy="129.1" r="7.5"/>
    <circle class="st3" cx="273.6" cy="129" r="7.5"/>
  </g>
  <g>
    <circle class="st3" cx="115.8" cy="147.7" r="7.5"/>
    <circle class="st3" cx="133.4" cy="147.7" r="7.5"/>
    <circle class="st3" cx="150.3" cy="147.7" r="7.5"/>
    <circle class="st3" cx="167.8" cy="147.7" r="7.5"/>
    <circle class="st3" cx="184.6" cy="147.7" r="7.5"/>
    <circle class="st3" cx="202.2" cy="147.7" r="7.5"/>
    <circle class="st3" cx="220.4" cy="147.6" r="7.5"/>
    <circle class="st3" cx="238.2" cy="147.7" r="7.5"/>
    <circle class="st3" cx="255.6" cy="147.7" r="7.5"/>
    <circle class="st3" cx="273.5" cy="147.7" r="7.5"/>
  </g>
  <g>
    <circle class="st4" cx="115.9" cy="166.6" r="7.5"/>
    <circle class="st4" cx="133.6" cy="166.3" r="7.5"/>
    <circle class="st4" cx="150.5" cy="166.3" r="7.5"/>
    <circle class="st4" cx="168" cy="166.3" r="7.5"/>
    <circle class="st4" cx="184.9" cy="166.1" r="7.5"/>
    <circle class="st4" cx="202.4" cy="166.3" r="7.5"/>
    <circle class="st4" cx="220.6" cy="166.3" r="7.5"/>
    <circle class="st4" cx="238.3" cy="166.3" r="7.5"/>
    <circle class="st4" cx="255.9" cy="166.7" r="7.5"/>
    <circle class="st4" cx="273.6" cy="166.3" r="7.5"/>
  </g>
  <g>
    <circle class="st4" cx="116.1" cy="184" r="7.5"/>
    <circle class="st4" cx="133.7" cy="184" r="7.5"/>
    <circle class="st4" cx="150.5" cy="184" r="7.5"/>
    <circle class="st4" cx="168.1" cy="184" r="7.5"/>
    <circle class="st4" cx="185" cy="183.8" r="7.5"/>
    <circle class="st4" cx="202.4" cy="184" r="7.5"/>
    <circle class="st4" cx="220.6" cy="184" r="7.5"/>
    <circle class="st4" cx="238.5" cy="184" r="7.5" transform="translate(18.7 390) rotate(-80.8)"/>
    <circle class="st4" cx="256" cy="184" r="7.5"/>
    <circle class="st4" cx="273.7" cy="184" r="7.5"/>
  </g>
  <g>
    <g class="st0">
      <path class="st3" d="M13.9,96.2h-1.8v5h-1.3v-5h-1.8v-1.2h4.9s0,1.2,0,1.2Z"/>
      <path class="st3" d="M18.9,98.8c0,1.5-1.1,2.6-2.6,2.6s-2.6-1.1-2.6-2.6,1.1-2.6,2.6-2.6,2.6,1.1,2.6,2.6ZM15,98.8c0,.8.6,1.4,1.3,1.4s1.3-.5,1.3-1.4-.6-1.4-1.3-1.4-1.3.5-1.3,1.4Z"/>
      <path class="st3" d="M20.2,99.4v-1.8h-.9v-1.2h.9v-1.1l1.3-.3v1.3h1.8v1.2h-1.8v1.7c0,.6.3.9.8.9s.6,0,1-.2l.2,1c-.3.2-.9.4-1.5.4-1,0-1.8-.6-1.8-2h0Z"/>
      <path class="st3" d="M24,98.8c0-1.5,1-2.6,2.2-2.6s1.2.3,1.6.8v-.7h1.3v4.9h-1.3v-.7c-.3.5-.9.8-1.5.8-1.3,0-2.2-1.1-2.2-2.6h0ZM27.8,98.8c0-.8-.5-1.4-1.3-1.4s-1.2.5-1.2,1.4.5,1.4,1.2,1.4,1.3-.5,1.3-1.4Z"/>
      <path class="st3" d="M30.1,94.4h1.3v6.9h-1.3v-6.9Z"/>
      <path class="st3" d="M35.2,101.3v-6.3h2.6c1.3,0,2.2.8,2.2,2.1s-.9,2.1-2.2,2.1h-1.4v2h-1.3.1ZM37.8,98c.7,0,1-.4,1-.9s-.3-.9-1-.9h-1.3v1.8h1.3Z"/>
      <path class="st3" d="M45.8,98.8c0,1.5-1.1,2.6-2.6,2.6s-2.6-1.1-2.6-2.6,1.1-2.6,2.6-2.6,2.6,1.1,2.6,2.6ZM42,98.8c0,.8.6,1.4,1.3,1.4s1.3-.5,1.3-1.4-.6-1.4-1.3-1.4-1.3.5-1.3,1.4Z"/>
      <path class="st3" d="M46.8,96.3h1.3v.7c.3-.5.9-.8,1.6-.8,1.3,0,2.2,1,2.2,2.6s-1,2.6-2.2,2.6-1.2-.3-1.6-.8v2.9h-1.3s0-7.2,0-7.2ZM50.6,98.8c0-.8-.5-1.4-1.2-1.4s-1.3.5-1.3,1.4.5,1.4,1.3,1.4,1.2-.5,1.2-1.4Z"/>
      <path class="st3" d="M57.3,96.3v4.9h-1.3v-.7c-.4.5-.8.8-1.5.8-1.1,0-1.8-.7-1.8-1.9v-3.1h1.3v2.8c0,.6.2,1,.9,1s1.1-.4,1.1-1.2v-2.6h1.3Z"/>
      <path class="st3" d="M58.3,94.4h1.3v6.9h-1.3v-6.9Z"/>
      <path class="st3" d="M60.5,98.8c0-1.5,1-2.6,2.2-2.6s1.2.3,1.6.8v-.7h1.3v4.9h-1.3v-.7c-.3.5-.9.8-1.5.8-1.3,0-2.2-1.1-2.2-2.6h0ZM64.3,98.8c0-.8-.5-1.4-1.3-1.4s-1.2.5-1.2,1.4.5,1.4,1.2,1.4,1.3-.5,1.3-1.4Z"/>
      <path class="st3" d="M67.1,99.4v-1.8h-.9v-1.2h.9v-1.1l1.3-.3v1.3h1.8v1.2h-1.8v1.7c0,.6.3.9.8.9s.6,0,1-.2l.2,1c-.3.2-.9.4-1.5.4-1,0-1.8-.6-1.8-2h0Z"/>
      <path class="st3" d="M72.7,94.8c0,.4-.3.8-.8.8s-.8-.3-.8-.8.3-.8.8-.8.8.3.8.8ZM71.3,96.3h1.3v4.9h-1.3v-4.9Z"/>
      <path class="st3" d="M78.6,98.8c0,1.5-1.1,2.6-2.6,2.6s-2.6-1.1-2.6-2.6,1.1-2.6,2.6-2.6,2.6,1.1,2.6,2.6ZM74.7,98.8c0,.8.6,1.4,1.3,1.4s1.3-.5,1.3-1.4-.6-1.4-1.3-1.4-1.3.5-1.3,1.4Z"/>
      <path class="st3" d="M79.5,96.3h1.3v.7c.4-.5.9-.8,1.5-.8,1.1,0,1.8.7,1.8,1.9v3.1h-1.3v-2.8c0-.6-.2-1-.9-1s-1.1.4-1.1,1.2v2.6h-1.3v-4.9h0Z"/>
      <path class="st3" d="M86.8,97.4c0,.4-.3.8-.8.8s-.8-.3-.8-.8.3-.8.8-.8.8.3.8.8ZM86.8,100.6c0,.4-.3.8-.8.8s-.8-.3-.8-.8.3-.8.8-.8.8.3.8.8Z"/>
    </g>
    <g class="st0">
      <path class="st3" d="M11.9,112.4c.2,1,.8,1.3,1.8,1.3s1.7-.5,1.7-1.3-.4-1.1-1.5-1.1h-1.3v-1.8h1.1c.9,0,1.5-.3,1.5-1s-.5-1.2-1.5-1.2-1.4.3-1.6,1.2h-2c.2-2.1,1.7-3.1,3.7-3.1s3.5,1.2,3.5,2.9-.4,1.6-1.2,2c.9.4,1.5,1.2,1.5,2.3,0,1.9-1.5,3-3.7,3s-3.7-1.1-3.9-3.2h2-.1Z"/>
      <path class="st3" d="M18.4,111.5l3.9-5.8h3v5.8h1.4v1.9h-1.4v2.2h-2v-2.2h-4.9v-1.9ZM23.3,111.5v-3.9h0l-2.6,3.9h2.7Z"/>
      <path class="st3" d="M36.2,110.6c0,3.1-1.6,5.1-4.2,5.1s-4.2-2-4.2-5.1,1.6-5.1,4.2-5.1,4.2,2,4.2,5.1ZM34.1,110.6c0-2.1-.7-3.2-2.2-3.2s-2.2,1.1-2.2,3.2.7,3.2,2.2,3.2,2.2-1.1,2.2-3.2Z"/>
      <path class="st3" d="M53.8,110.6v4.9h-2v-4.5c0-1-.4-1.5-1.3-1.5s-1.6.7-1.6,1.9v4.1h-2v-4.5c0-1-.4-1.5-1.3-1.5s-1.6.7-1.6,1.9v4.1h-2v-7.8h2v1c.5-.8,1.3-1.2,2.3-1.2s1.9.5,2.4,1.5c.6-.9,1.5-1.5,2.6-1.5,1.6,0,2.7,1.1,2.7,3h-.2Z"/>
      <path class="st3" d="M57.6,105.4c0,.7-.5,1.2-1.3,1.2s-1.3-.5-1.3-1.2.5-1.2,1.3-1.2,1.3.5,1.3,1.2ZM55.4,107.8h2v7.8h-2v-7.8Z"/>
      <path class="st3" d="M59,104.7h2v10.9h-2v-10.9Z"/>
      <path class="st3" d="M62.7,104.7h2v10.9h-2v-10.9Z"/>
      <path class="st3" d="M68.6,105.4c0,.7-.5,1.2-1.3,1.2s-1.3-.5-1.3-1.2.5-1.2,1.3-1.2,1.3.5,1.3,1.2ZM66.3,107.8h2v7.8h-2v-7.8Z"/>
      <path class="st3" d="M77.8,111.6c0,2.3-1.8,4-4,4s-4-1.7-4-4,1.8-4,4-4,4,1.7,4,4ZM71.8,111.6c0,1.3.9,2.1,2,2.1s2-.8,2-2.1-.9-2.1-2-2.1-2,.9-2,2.1Z"/>
      <path class="st3" d="M79.2,107.8h2v1.1c.6-.8,1.3-1.2,2.4-1.2,1.7,0,2.8,1.2,2.8,3.1v4.9h-2v-4.4c0-1-.4-1.6-1.5-1.6s-1.7.7-1.7,1.9v4.1h-2v-7.8h0Z"/>
    </g>
  </g>
  <path class="st3" d="M347.3,176.4h-6.7v-1.4h6.7v1.4ZM347.3,179.1h-6.7v-1.4h6.7v1.4Z"/>
  <polyline class="st1" points="284.9 164 291.8 164 291.8 189 285.3 189"/>
  <polyline class="st2" points="102.2 20.5 95.3 20.5 95.3 189.8 101.7 189.8"/>
</svg>