<?xml version="1.0" encoding="UTF-8"?>
<svg id="Layer_2" xmlns="http://www.w3.org/2000/svg" version="1.1" viewBox="0 0 332.2 65.2">
  <!-- Generator: Adobe Illustrator 30.0.0, SVG Export Plug-In . SVG Version: 2.1.1 Build 123)  -->
  <g id="Layer_1-2">
    <g>
      <g>
        <path d="M12.7,28.7h-7l-2.4,6.8h2.6v1H0v-1h2L10.3,13.1h1.9l8.2,22.4h2v1h-10v-1h2.6l-2.3-6.8h0ZM6,27.7h6.4l-3.1-8.9-3.3,8.9h0Z"/>
        <path d="M30,20.6v3c.7-1.7,2.1-3.3,5.4-3.3s5,1.5,5,5.6v9.8h2.2v.9h-8.8v-.9h1.9v-10.3c0-2.6-.5-3.5-1.9-3.5s-3.8,2.2-3.8,5.1v8.7h2v.9h-8.8v-.9h2.2v-14.1h-2.2v-.9h6.9,0Z"/>
        <path d="M67.7,13.1l.3,6.4h-.8c-1.2-4.6-3-5.5-7.1-5.5h-2.2v10h1.4c2.4,0,3.4-1.3,3.9-4.3h.7v9.9h-.8c-.7-3.5-1.6-4.5-4.2-4.5h-1.1v10.4h2.4c4.5,0,6.8-2.1,7.7-6.1h.7l-.2,7.1h-17.8v-1h2.3V14.1h-2.3v-1h17Z"/>
        <path d="M76.1,28.5c0,5,1.1,7,4,7s4.1-2.4,4.5-4.3h.9c-.4,2.2-1.5,5.6-6.7,5.6s-7.6-2.9-7.6-8,3.3-8.5,8.4-8.5,5.8,1.7,5.8,4.2-1,2.8-2.4,2.8-2.5-.8-2.5-2.4,0-.7.2-1.2h1c.1-.3.2-.7.2-1,0-.9-.7-1.6-2.1-1.6-2.6,0-3.7,1.9-3.7,7.5h0Z"/>
        <path d="M95.3,20.2c5.1,0,7.9,2.6,7.9,8.1s-2.7,8.4-8.1,8.4-8.1-3-8.1-8.2,3.1-8.3,8.2-8.3h0ZM95.2,21c-2.7,0-3.2,2.8-3.2,7.4s.5,7.5,3.2,7.5,3-2.4,3-7.6-.5-7.3-3-7.3Z"/>
        <path d="M111.5,20.6v3c.7-1.7,2.1-3.3,5.4-3.3s5,1.5,5,5.6v9.8h2.2v.9h-8.8v-.9h1.9v-10.3c0-2.6-.5-3.5-1.9-3.5s-3.8,2.2-3.8,5.1v8.7h2v.9h-8.8v-.9h2.2v-14.1h-2.2v-.9h6.9,0Z"/>
        <path d="M133.6,20.2c5.1,0,7.9,2.6,7.9,8.1s-2.7,8.4-8.1,8.4-8.1-3-8.1-8.2,3.1-8.3,8.2-8.3h0ZM133.5,21c-2.7,0-3.2,2.8-3.2,7.4s.5,7.5,3.2,7.5,3-2.4,3-7.6-.5-7.3-3-7.3Z"/>
        <path d="M149.7,20.6v3c.7-1.6,1.9-3.3,5-3.3s4.1,1,4.7,3.6c.7-1.7,2.2-3.6,5.3-3.6s4.8,1.5,4.8,5.6v9.8h2.2v.9h-8.7v-.9h1.8v-10.5c0-2.7-.5-3.4-1.7-3.4-1.9,0-3.5,2-3.5,5v8.9h1.9v.9h-8.4v-.9h1.8v-10.4c0-2.7-.5-3.4-1.7-3.4-1.9,0-3.5,2.2-3.5,5.1v8.7h1.9v.9h-8.7v-.9h2.2v-14.1h-2.2v-.9h6.9Z"/>
        <path d="M170.7,20.6h8.7v.9h-2.2l3.9,11,3.9-11h-2.3v-.9h5.2v.9h-1.6l-6.5,17.7c-1.6,4.3-2.7,5.6-5.4,5.6s-3.7-1.4-3.7-3.1,1-2.6,2.3-2.6,2.2.6,2.2,2,0,.7-.2,1.2h-1.1c-.1.3-.2.5-.2.8,0,.5.4.8,1.2.8,1.8,0,2.7-1.9,3.9-5.3l.7-2.1h-1.3l-5.9-15h-1.5v-.9h0Z"/>
        <path d="M204.4,13.1c5.9,0,9.8,1.4,9.8,6.6s-4.6,7.2-10.7,7.2h-.8v8.6h4.2v1h-11.7v-1h2.5V14.1h-2.5v-1h9.1ZM202.8,25.9h1.2c3.6,0,4.9-1.8,4.9-6.2s-1.3-5.7-4.7-5.7h-1.4s0,11.8,0,11.8Z"/>
        <path d="M223.2,20.2c5.1,0,7.9,2.6,7.9,8.1s-2.7,8.4-8.1,8.4-8.1-3-8.1-8.2,3.1-8.3,8.2-8.3h0ZM223.1,21c-2.7,0-3.2,2.8-3.2,7.4s.5,7.5,3.2,7.5,3-2.4,3-7.6-.5-7.3-3-7.3Z"/>
        <path d="M241.8,20.6h7.8v.9h-1.7l3.7,10.8,3.2-10.8h-2.4v-.9h5v.9h-1.6l-4.6,15.1h-2.6l-3.8-10.7-4,10.7h-2.5l-5.5-15.1h-1.6v-.9h8.5v.9h-1.9l3.5,11,2.9-8-1-3h-1.5s0-.9,0-.9Z"/>
        <path d="M265.6,20.2c4.6,0,6.8,2.6,6.6,7.6h-9.9v.9c0,4.3.9,6.8,4.3,6.8s4-1.5,4.7-4h.9c-.7,2.9-2.4,5.2-6.9,5.2s-8-3.3-8-8.2,3.6-8.4,8.2-8.4h0ZM267.6,26.9c0-4.2-.4-5.9-2.4-5.9s-2.8,1.5-2.9,5.9h5.3Z"/>
        <path d="M280.6,27.3v8.2h3v.9h-9.8v-.9h2.2v-14.1h-2.2v-.9h6.9v3.1c.7-2.4,2.3-3.4,4.3-3.4s3.4,1.3,3.4,3.5-1,2.8-2.4,2.8-2.3-.7-2.3-2.5,0-.6.1-1h1c.1-.3.2-.5.2-.7,0-.6-.5-.8-.9-.8-1.8,0-3.4,2.7-3.4,5.7h0Z"/>
        <path d="M297.5,20.2c4.6,0,6.8,2.6,6.6,7.6h-9.9v.9c0,4.3.9,6.8,4.3,6.8s4-1.5,4.7-4h.9c-.7,2.9-2.4,5.2-6.9,5.2s-8-3.3-8-8.2,3.6-8.4,8.2-8.4h0ZM299.5,26.9c0-4.2-.4-5.9-2.4-5.9s-2.8,1.5-2.9,5.9h5.3Z"/>
        <path d="M317.2,34c-.9,1.7-2.3,2.7-4.9,2.7-3.8,0-6.2-2.7-6.2-8.2s2.5-8.4,6.8-8.4,3.5.8,4.3,2v-9.9h-2.6v-.9h7.3v24.1h2.2v.9h-6.5l-.3-2.4h0ZM317.2,31.2v-6c0-1.8-1.2-3.8-3.2-3.8s-3,2.1-3,7.2.6,6.7,2.8,6.7,3.4-1.4,3.4-4.1Z"/>
      </g>
      <path d="M85,51.2c.5-.8,1.2-1.4,2.4-1.4,1.9,0,3,1.3,3,4s-1.2,4-3.4,4-1.8-.3-2.3-1.1l-1,1.1h-.9v-11.8h-1.1v-.4h3.3v5.6h0ZM85,52.8v2.6c0,1,.6,1.9,1.6,1.9s1.4-1,1.4-3.5-.3-3.3-1.2-3.3-1.8.9-1.8,2.3h0Z"/>
      <path d="M90.8,50h4.2v.4h-1.1l1.9,5.3,1.9-5.3h-1.1v-.4h2.5v.4h-.8l-3.2,8.6c-.8,2.1-1.3,2.7-2.6,2.7s-1.8-.7-1.8-1.5.5-1.3,1.1-1.3,1.1.3,1.1,1,0,.4-.1.6h-.5c0,.1-.1.3-.1.4,0,.2.2.4.6.4.9,0,1.3-.9,1.9-2.6l.3-1h-.6l-2.9-7.3h-.7v-.4h0Z"/>
      <g>
        <path d="M115.3,42.4v.9h-3.4v20.6h1.8c4.3,0,6.1-2.1,7.3-6.4h.8l-.5,7.3h-16.5v-.9h2.2v-20.6h-2.2v-.9h10.4Z"/>
        <path d="M132.3,57.2v-2.3c0-3.5-.5-4.8-2.5-4.8s-2,.4-2,1.3,0,.4,0,.6h.9c.2.4.3.8.3,1.3,0,1.3-1,2.1-2.3,2.1s-2.2-.9-2.2-2.3c0-2.5,2.5-3.8,6.1-3.8s6.2,1.4,6.2,6.1v6.3c0,1.3.4,1.8,1,1.8s1.1-.5,1.3-3.1h.7c-.2,3.6-1.2,4.8-3.7,4.8s-3.3-.8-3.7-2.3c-.7,1.5-2.1,2.3-4.1,2.3s-4.6-.8-4.6-3.8,2.8-4.2,7.1-4.2h1.5ZM132.3,60.7v-2.7h-.7c-2.3,0-3.1,1.1-3.1,3.3s.5,2.5,1.5,2.5,2.3-1.2,2.3-3.1Z"/>
        <path d="M141.6,50.4h-2.1v-.8h2.1v-4.1l4.5-1.2v5.3h4.3v.8h-4.3v10.5c0,1.8.4,2.8,1.8,2.8s2.4-1.3,2.7-3.4h.7c-.3,2.6-1.3,4.9-4.9,4.9s-4.8-.9-4.8-4.4v-10.4h0Z"/>
        <path d="M158.7,49.6v14.4h2.1v.8h-8.7v-.8h2.1v-13.6h-2.1v-.8h6.7,0ZM156.2,42c1.5,0,2.5.8,2.5,2.4s-.8,2.5-2.6,2.5-2.6-1.3-2.6-2.5.8-2.4,2.6-2.4h0Z"/>
        <path d="M168.4,49.6v2.9c.7-1.6,2.1-3.2,5.2-3.2s4.8,1.5,4.8,5.3v9.4h2.1v.8h-8.5v-.8h1.9v-9.9c0-2.5-.5-3.4-1.9-3.4s-3.7,2.1-3.7,4.9v8.3h1.9v.8h-8.5v-.8h2.1v-13.6h-2.1v-.8h6.6,0Z"/>
        <path d="M189.6,49.3c4.9,0,7.6,2.5,7.6,7.8s-2.6,8.1-7.8,8.1-7.8-2.9-7.8-7.9,3-8,7.9-8ZM189.6,50.1c-2.6,0-3,2.7-3,7.1s.5,7.2,3,7.2,2.9-2.3,2.9-7.3-.5-7-2.9-7Z"/>
        <path d="M199.3,59.6h.7c.7,3.3,2.8,4.5,5.3,4.5s3.5-1,3.5-2.3-1.7-2.1-4-2.6c-2.6-.6-5.4-1.3-5.4-4.8s2.2-5.1,5.5-5.1,2.3.3,3.2.7c.3.1.6.3.9.3s.5-.3.6-1.1h.6v4.8h-.7c-.9-2.7-2.4-3.9-4.6-3.9s-3.1.8-3.1,2.1,1.9,2.1,4,2.5c2.5.6,5.3,1.4,5.3,5.2s-2.2,5.2-5.8,5.2-2.9-.4-4-1c-.2-.1-.4-.3-.5-.3-.4,0-.5.3-.8,1.3h-.7v-5.5h0Z"/>
      </g>
    </g>
  </g>
</svg>