<?xml version="1.0" encoding="UTF-8"?>
<svg id="Layer_2" xmlns="http://www.w3.org/2000/svg" xmlns:xlink="http://www.w3.org/1999/xlink" version="1.1" viewBox="0 0 290.7 59.6">
  <!-- Generator: Adobe Illustrator 30.0.0, SVG Export Plug-In . SVG Version: 2.1.1 Build 123)  -->
  <defs>
    <style>
      .st0, .st1, .st2 {
        fill: none;
      }

      .st0, .st3, .st4, .st5, .st6, .st7, .st8, .st9, .st10, .st11 {
        stroke: #03185a;
      }

      .st0, .st3, .st4, .st7, .st9, .st10, .st11 {
        stroke-width: .2px;
      }

      .st0, .st3, .st4, .st7, .st9, .st10, .st11, .st2 {
        stroke-miterlimit: 10;
      }

      .st3, .st12 {
        fill: #03185a;
      }

      .st4 {
        fill: #fdede7;
      }

      .st13 {
        clip-path: url(#clippath-1);
      }

      .st5 {
        stroke-miterlimit: 10;
        stroke-width: .2px;
      }

      .st5, .st6, .st7, .st8 {
        fill: #fff;
      }

      .st6 {
        stroke-miterlimit: 10;
        stroke-width: .2px;
      }

      .st8 {
        stroke-miterlimit: 10;
        stroke-width: .2px;
      }

      .st9 {
        fill: #7bbafd;
      }

      .st10 {
        fill: #ff1a54;
      }

      .st11 {
        fill: #ed473e;
      }

      .st2 {
        stroke: #05226b;
        stroke-width: .5px;
      }

      .st14 {
        clip-path: url(#clippath);
      }
    </style>
    <clipPath id="clippath">
      <rect class="st1" x="203.6" y="41" width="80" height="3.1"/>
    </clipPath>
    <clipPath id="clippath-1">
      <rect class="st1" x="3.4" y="41" width="80" height="3.1"/>
    </clipPath>
  </defs>
  <path class="st2" d="M152.8,69.8"/>
  <path class="st2" d="M141.8,45.2"/>
  <g>
    <g>
      <g>
        <g>
          <g>
            <g class="st14">
              <g>
                <rect class="st4" x="203.7" y="35.5" width="80" height="47.2"/>
                <polygon class="st9" points="270.9 42.3 258 62.5 270.9 62.5 270.9 42.3"/>
                <polygon class="st10" points="248.6 72.6 248.6 67.6 243.9 67.6 248.6 72.6"/>
                <polygon class="st10" points="253.3 72.6 253.3 67.6 248.6 67.6 253.3 72.6"/>
                <polygon class="st10" points="258 72.6 258 67.6 253.3 67.6 258 72.6"/>
                <polygon class="st11" points="229.7 76.2 229.7 42 220 59.1 229.7 76.2"/>
                <polygon class="st10" points="220 59.1 229.7 59.1 229.7 76.2 220 59.1"/>
                <polygon class="st10" points="203.7 82.7 227.5 82.7 215.6 59.1 203.7 82.7"/>
                <polygon class="st7" points="210.9 82.7 220.4 82.7 215.6 73.2 210.9 82.7"/>
                <polygon class="st3" points="229.7 82.8 229.7 76 227.6 79.4 229.7 82.8"/>
                <polygon class="st3" points="229.7 76 229.7 69.2 227.6 72.6 229.7 76"/>
                <polygon class="st3" points="229.7 69.2 229.7 62.5 227.6 65.8 229.7 69.2"/>
                <polygon class="st3" points="229.7 62.5 229.7 55.8 227.6 59.1 229.7 62.5"/>
                <polygon class="st3" points="229.7 55.8 229.7 48.9 227.6 52.3 229.7 55.8"/>
                <polygon class="st3" points="229.7 48.9 229.7 42.2 227.6 45.6 229.7 48.9"/>
                <polygon class="st3" points="229.7 42.2 229.7 35.5 227.6 38.8 229.7 42.2"/>
                <polygon class="st7" points="203.7 51.8 203.7 66.5 208 59.1 203.7 51.8"/>
                <polygon class="st7" points="283.8 62.5 283.8 66.4 281.4 62.5 283.8 62.5"/>
                <polygon class="st7" points="283.8 35.5 283.8 51.8 274.3 35.5 283.8 35.5"/>
                <polygon class="st9" points="203.7 35.5 227.5 35.5 215.6 59.1 203.7 35.5"/>
                <polygon class="st11" points="210.9 35.5 220.4 35.5 215.6 44.9 210.9 35.5"/>
                <polygon class="st3" points="215.6 59.1 215.6 44.9 210.9 35.5 203.7 35.5 215.6 59.1"/>
                <polygon class="st11" points="220.4 82.7 215.6 73.2 215.6 59.1 227.5 82.7 220.4 82.7"/>
                <polygon class="st10" points="208 59.1 215.6 59.1 203.7 82.7 203.7 66.5 208 59.1"/>
                <polygon class="st3" points="229.7 62.5 229.7 82.8 239.2 82.8 229.7 62.5"/>
                <polygon class="st9" points="239.2 62.5 239.2 82.8 248.6 82.8 239.2 62.5"/>
                <polygon class="st3" points="239.2 72.6 239.2 82.8 243.9 82.8 239.2 72.6"/>
                <polygon class="st3" points="248.6 72.6 248.6 62.5 243.9 62.5 248.6 72.6"/>
                <polygon class="st3" points="253.3 72.6 253.3 62.5 248.6 62.5 253.3 72.6"/>
                <polygon class="st3" points="258 72.6 258 62.5 253.3 62.5 258 72.6"/>
                <polygon class="st9" points="253.3 45.6 253.3 35.5 248.6 35.5 253.3 45.6"/>
                <polygon class="st9" points="258 45.6 258 35.5 253.3 35.5 258 45.6"/>
                <polygon class="st9" points="262.7 45.6 262.7 35.5 258 35.5 262.7 45.6"/>
                <polygon class="st3" points="253.3 39.4 253.3 35.5 248.6 35.5 253.3 39.4"/>
                <polygon class="st3" points="258 39.4 258 35.5 253.3 35.5 258 39.4"/>
                <polygon class="st3" points="262.7 39.4 262.7 35.5 258 35.5 262.7 39.4"/>
                <polygon class="st9" points="229.7 72.6 229.7 82.8 234.5 82.8 229.7 72.6"/>
                <polygon class="st10" points="229.7 42.2 229.7 62.5 239.2 62.5 229.7 42.2"/>
                <polygon class="st3" points="229.7 52.3 229.7 62.5 234.5 62.5 229.7 52.3"/>
                <rect class="st3" x="239.2" y="35.5" width="9.5" height="27"/>
                <rect class="st11" x="239.2" y="60.4" width="9.5" height="2"/>
                <rect class="st4" x="238.9" y="58.5" width="9.9" height="2"/>
                <rect class="st10" x="239.2" y="56.4" width="9.5" height="2"/>
                <rect class="st4" x="238.9" y="54.5" width="9.9" height="2"/>
                <rect class="st11" x="239.2" y="52.4" width="9.5" height="2"/>
                <rect class="st10" x="274.2" y="60.4" width="9.5" height="2"/>
                <rect class="st9" x="274.2" y="56.4" width="9.5" height="2"/>
                <rect class="st10" x="274.2" y="52.4" width="9.5" height="2"/>
                <rect class="st9" x="274.2" y="48.3" width="9.5" height="2"/>
                <rect class="st4" x="238.9" y="50.4" width="9.9" height="2"/>
                <circle class="st7" cx="215.6" cy="70.9" r=".7"/>
                <circle class="st7" cx="215.6" cy="64.6" r=".7"/>
                <circle class="st7" cx="215.6" cy="44.9" r=".7"/>
                <polygon class="st11" points="270.9 82.7 258 82.7 258 62.5 270.9 82.7"/>
                <polygon class="st10" points="283.8 82.7 270.9 82.7 270.9 62.5 283.8 82.7"/>
                <polygon class="st10" points="270.9 62.5 258 62.5 258 42.3 270.9 62.5"/>
                <polygon class="st3" points="283.8 62.5 270.9 62.5 270.9 42.3 283.8 62.5"/>
                <polygon class="st11" points="248.6 62.5 258 45.6 258 62.5 248.6 62.5"/>
                <polygon class="st3" points="243.9 62.5 253.3 45.6 253.3 62.5 243.9 62.5"/>
                <g>
                  <g>
                    <rect class="st7" x="244.5" y="43" width="3" height=".2"/>
                    <rect class="st6" x="245.3" y="43" width=".2" height="3" transform="translate(40.4 186.6) rotate(-45)"/>
                    <rect class="st7" x="243.7" y="43.7" width=".2" height="3"/>
                    <rect class="st6" x="240.8" y="44.6" width="3" height=".2" transform="translate(39.4 184.4) rotate(-45)"/>
                    <rect class="st7" x="240.2" y="43" width="3" height=".2"/>
                    <rect class="st6" x="242.3" y="40" width=".2" height="3" transform="translate(41.6 183.5) rotate(-45)"/>
                    <rect class="st7" x="243.7" y="39.5" width=".2" height="3"/>
                    <rect class="st6" x="243.8" y="41.5" width="3" height=".2" transform="translate(42.5 185.7) rotate(-45)"/>
                  </g>
                  <g>
                    <rect class="st5" x="245.7" y="42.5" width=".2" height="3" transform="translate(109.3 253.1) rotate(-67)"/>
                    <rect class="st8" x="244.5" y="43.6" width=".2" height="3" transform="translate(.9 94.9) rotate(-22)"/>
                    <rect class="st5" x="241.4" y="44.9" width="3" height=".2" transform="translate(106.5 251.1) rotate(-67)"/>
                    <rect class="st8" x="240.3" y="43.8" width="3" height=".2" transform="translate(1.2 93.8) rotate(-22)"/>
                    <rect class="st5" x="241.9" y="40.7" width=".2" height="3" transform="translate(108.6 248.4) rotate(-67)"/>
                    <rect class="st8" x="243" y="39.6" width=".2" height="3" transform="translate(2.3 94) rotate(-22)"/>
                    <rect class="st5" x="243.2" y="41" width="3" height=".2" transform="translate(111.3 250.3) rotate(-67)"/>
                    <rect class="st8" x="244.2" y="42.3" width="3" height=".2" transform="translate(2 95.1) rotate(-22)"/>
                  </g>
                </g>
                <polygon class="st3" points="258 82.7 270.9 82.7 264.4 72.6 258 82.7"/>
                <polygon class="st3" points="258 72.6 270.9 72.6 264.4 62.5 258 72.6"/>
                <polygon class="st3" points="266.6 42.3 275.2 42.3 270.9 35.5 266.6 42.3"/>
                <circle class="st7" cx="270.9" cy="53.4" r=".7"/>
                <g>
                  <path class="st7" d="M261.7,82.2h-1.1v-.3l1.1.2h0Z"/>
                  <path class="st7" d="M262.2,79.6h.2l.6.8h-.2l-.6-.9h0Z"/>
                  <path class="st7" d="M264.9,80h0l.2-1.1h.2l-.2,1.1h-.2Z"/>
                  <path class="st7" d="M266.6,81l.9-.6v.2l-.8.6v-.2h-.1Z"/>
                  <path class="st7" d="M262.1,81.3l-.9-.6v-.2l1,.6v.2h-.1Z"/>
                  <path class="st7" d="M263.6,79h.2l.2,1h-.2l-.2-1.1h0Z"/>
                  <path class="st7" d="M265.9,80.4l.6-.9h.2l-.6,1h-.2Z"/>
                  <path class="st7" d="M267.2,82.2v-.2l1.1-.2v.2l-1,.2h-.1Z"/>
                </g>
              </g>
            </g>
            <rect class="st0" x="203.6" y="41" width="80" height="3.1"/>
          </g>
          <rect class="st0" x="203.6" y="41" width="80" height="3.1"/>
        </g>
        <rect class="st0" x="203.6" y="41" width="80" height="3.1"/>
      </g>
      <rect class="st0" x="203.6" y="41" width="80" height="3.1"/>
    </g>
    <g>
      <g>
        <g>
          <g>
            <g class="st13">
              <g>
                <rect class="st4" x="3.5" y="35.5" width="80" height="47.2"/>
                <polygon class="st9" points="70.6 42.3 57.8 62.5 70.6 62.5 70.6 42.3"/>
                <polygon class="st10" points="48.4 72.6 48.4 67.6 43.6 67.6 48.4 72.6"/>
                <polygon class="st10" points="53.1 72.6 53.1 67.6 48.4 67.6 53.1 72.6"/>
                <polygon class="st10" points="57.8 72.6 57.8 67.6 53.1 67.6 57.8 72.6"/>
                <polygon class="st11" points="29.5 76.2 29.5 42 19.8 59.1 29.5 76.2"/>
                <polygon class="st10" points="19.8 59.1 29.5 59.1 29.5 76.2 19.8 59.1"/>
                <polygon class="st10" points="3.5 82.7 27.3 82.7 15.4 59.1 3.5 82.7"/>
                <polygon class="st7" points="10.6 82.7 20.2 82.7 15.4 73.2 10.6 82.7"/>
                <polygon class="st3" points="29.5 82.8 29.5 76 27.4 79.4 29.5 82.8"/>
                <polygon class="st3" points="29.5 76 29.5 69.2 27.4 72.6 29.5 76"/>
                <polygon class="st3" points="29.5 69.2 29.5 62.5 27.4 65.8 29.5 69.2"/>
                <polygon class="st3" points="29.5 62.5 29.5 55.8 27.4 59.1 29.5 62.5"/>
                <polygon class="st3" points="29.5 55.8 29.5 48.9 27.4 52.3 29.5 55.8"/>
                <polygon class="st3" points="29.5 48.9 29.5 42.2 27.4 45.6 29.5 48.9"/>
                <polygon class="st3" points="29.5 42.2 29.5 35.5 27.4 38.8 29.5 42.2"/>
                <polygon class="st7" points="3.5 51.8 3.5 66.5 7.7 59.1 3.5 51.8"/>
                <polygon class="st7" points="83.4 62.5 83.4 66.4 81.2 62.5 83.4 62.5"/>
                <polygon class="st7" points="83.4 35.5 83.4 51.8 74.1 35.5 83.4 35.5"/>
                <polygon class="st9" points="3.5 35.5 27.3 35.5 15.4 59.1 3.5 35.5"/>
                <polygon class="st11" points="10.6 35.5 20.2 35.5 15.4 44.9 10.6 35.5"/>
                <polygon class="st3" points="15.4 59.1 15.4 44.9 10.6 35.5 3.5 35.5 15.4 59.1"/>
                <polygon class="st11" points="20.2 82.7 15.4 73.2 15.4 59.1 27.3 82.7 20.2 82.7"/>
                <polygon class="st10" points="7.7 59.1 15.4 59.1 3.5 82.7 3.5 66.5 7.7 59.1"/>
                <polygon class="st3" points="29.5 62.5 29.5 82.8 38.9 82.8 29.5 62.5"/>
                <polygon class="st9" points="38.9 62.5 38.9 82.8 48.4 82.8 38.9 62.5"/>
                <polygon class="st3" points="38.9 72.6 38.9 82.8 43.6 82.8 38.9 72.6"/>
                <polygon class="st3" points="48.4 72.6 48.4 62.5 43.6 62.5 48.4 72.6"/>
                <polygon class="st3" points="53.1 72.6 53.1 62.5 48.4 62.5 53.1 72.6"/>
                <polygon class="st3" points="57.8 72.6 57.8 62.5 53.1 62.5 57.8 72.6"/>
                <polygon class="st9" points="53.1 45.6 53.1 35.5 48.4 35.5 53.1 45.6"/>
                <polygon class="st9" points="57.8 45.6 57.8 35.5 53.1 35.5 57.8 45.6"/>
                <polygon class="st9" points="62.4 45.6 62.4 35.5 57.8 35.5 62.4 45.6"/>
                <polygon class="st3" points="53.1 39.4 53.1 35.5 48.4 35.5 53.1 39.4"/>
                <polygon class="st3" points="57.8 39.4 57.8 35.5 53.1 35.5 57.8 39.4"/>
                <polygon class="st3" points="62.4 39.4 62.4 35.5 57.8 35.5 62.4 39.4"/>
                <polygon class="st9" points="29.5 72.6 29.5 82.8 34.1 82.8 29.5 72.6"/>
                <polygon class="st10" points="29.5 42.2 29.5 62.5 38.9 62.5 29.5 42.2"/>
                <polygon class="st3" points="29.5 52.3 29.5 62.5 34.1 62.5 29.5 52.3"/>
                <rect class="st3" x="38.9" y="35.5" width="9.5" height="27"/>
                <rect class="st11" x="38.9" y="60.4" width="9.5" height="2"/>
                <rect class="st4" x="38.6" y="58.5" width="9.9" height="2"/>
                <rect class="st10" x="38.9" y="56.4" width="9.5" height="2"/>
                <rect class="st4" x="38.6" y="54.5" width="9.9" height="2"/>
                <rect class="st11" x="38.9" y="52.4" width="9.5" height="2"/>
                <rect class="st10" x="74" y="60.4" width="9.5" height="2"/>
                <rect class="st9" x="74" y="56.4" width="9.5" height="2"/>
                <rect class="st10" x="74" y="52.4" width="9.5" height="2"/>
                <rect class="st9" x="74" y="48.3" width="9.5" height="2"/>
                <rect class="st4" x="38.6" y="50.4" width="9.9" height="2"/>
                <circle class="st7" cx="15.4" cy="70.9" r=".7"/>
                <circle class="st7" cx="15.4" cy="64.6" r=".7"/>
                <circle class="st7" cx="15.4" cy="44.9" r=".7"/>
                <polygon class="st11" points="70.6 82.7 57.8 82.7 57.8 62.5 70.6 82.7"/>
                <polygon class="st10" points="83.4 82.7 70.6 82.7 70.6 62.5 83.4 82.7"/>
                <polygon class="st10" points="70.6 62.5 57.8 62.5 57.8 42.3 70.6 62.5"/>
                <polygon class="st3" points="83.4 62.5 70.6 62.5 70.6 42.3 83.4 62.5"/>
                <polygon class="st11" points="48.4 62.5 57.8 45.6 57.8 62.5 48.4 62.5"/>
                <polygon class="st3" points="43.6 62.5 53.1 45.6 53.1 62.5 43.6 62.5"/>
                <g>
                  <g>
                    <rect class="st7" x="44.3" y="43" width="3" height=".2"/>
                    <rect class="st6" x="45.1" y="43.1" width=".2" height="3" transform="translate(-18.3 45) rotate(-45)"/>
                    <rect class="st7" x="43.5" y="43.7" width=".2" height="3"/>
                    <rect class="st6" x="40.6" y="44.5" width="3" height=".2" transform="translate(-19.2 42.8) rotate(-45)"/>
                    <rect class="st7" x="40" y="43" width="3" height=".2"/>
                    <rect class="st6" x="41.9" y="40" width=".2" height="3" transform="translate(-17.1 41.8) rotate(-45)"/>
                    <rect class="st7" x="43.5" y="39.5" width=".2" height="3"/>
                    <rect class="st6" x="43.6" y="41.5" width="3" height=".2" transform="translate(-16.2 44.1) rotate(-45)"/>
                  </g>
                  <g>
                    <rect class="st5" x="45.3" y="42.6" width=".2" height="3" transform="translate(-12.9 68.7) rotate(-67)"/>
                    <rect class="st8" x="44.2" y="43.6" width=".2" height="3" transform="translate(-13.7 19.9) rotate(-22)"/>
                    <rect class="st5" x="41.2" y="44.9" width="3" height=".2" transform="translate(-15.5 66.7) rotate(-67)"/>
                    <rect class="st8" x="40.1" y="43.7" width="3" height=".2" transform="translate(-13.4 18.8) rotate(-22)"/>
                    <rect class="st5" x="41.6" y="40.8" width=".2" height="3" transform="translate(-13.5 64.1) rotate(-67)"/>
                    <rect class="st8" x="42.9" y="39.7" width=".2" height="3" transform="translate(-12.3 19.1) rotate(-22)"/>
                    <rect class="st5" x="43" y="41" width="3" height=".2" transform="translate(-10.8 66) rotate(-67)"/>
                    <rect class="st8" x="44.1" y="42.4" width="3" height=".2" transform="translate(-12.6 20.2) rotate(-22)"/>
                  </g>
                </g>
                <polygon class="st3" points="57.8 82.7 70.6 82.7 64.2 72.6 57.8 82.7"/>
                <polygon class="st3" points="57.8 72.6 70.6 72.6 64.2 62.5 57.8 72.6"/>
                <polygon class="st3" points="66.3 42.3 74.9 42.3 70.6 35.5 66.3 42.3"/>
                <circle class="st7" cx="70.6" cy="53.4" r=".7"/>
                <g>
                  <path class="st7" d="M61.5,82.2h-1.1v-.3l1.1.2h0Z"/>
                  <path class="st7" d="M61.9,79.6h.2l.6.8h-.2l-.6-.9h0Z"/>
                  <path class="st7" d="M64.7,80h0l.2-1.1h.2l-.2,1.1h-.2Z"/>
                  <path class="st7" d="M66.4,81l.9-.6v.2l-.8.6v-.2h0Z"/>
                  <path class="st7" d="M61.9,81.3l-.9-.6v-.2l1,.6v.2h0Z"/>
                  <path class="st7" d="M63.3,79h.2l.2,1h-.2l-.2-1.1h0Z"/>
                  <path class="st7" d="M65.6,80.4l.6-.9h.2l-.6,1h-.2Z"/>
                  <path class="st7" d="M66.9,82.2v-.2l1.1-.2v.2l-1,.2h0Z"/>
                </g>
              </g>
            </g>
            <rect class="st0" x="3.4" y="41" width="80" height="3.1"/>
          </g>
          <rect class="st0" x="3.4" y="41" width="80" height="3.1"/>
        </g>
        <rect class="st0" x="3.4" y="41" width="80" height="3.1"/>
      </g>
      <rect class="st0" x="3.4" y="41" width="80" height="3.1"/>
    </g>
    <path class="st2" d="M-13.8-7.5"/>
    <g>
      <g>
        <path class="st12" d="M15.3,19.6h-6.1l-2.1,5.9h2.3v.8h-5.1v-.8h1.7L13.2,6.1h1.6l7.2,19.5h1.7v.8h-8.7v-.8h2.2l-2-5.9ZM9.4,18.8h5.6l-2.7-7.7-2.9,7.7Z"/>
        <path class="st12" d="M30.3,12.6v2.6c.6-1.4,1.9-2.9,4.7-2.9s4.4,1.3,4.4,4.8v8.5h1.9v.8h-7.7v-.8h1.7v-8.9c0-2.3-.4-3-1.7-3s-3.3,1.9-3.3,4.4v7.5h1.7v.8h-7.7v-.8h1.9v-12.3h-1.9v-.8h6Z"/>
        <path class="st12" d="M63.1,6.1l.3,5.6h-.7c-1-4-2.6-4.8-6.2-4.8h-1.9v8.7h1.2c2.1,0,3-1.1,3.4-3.7h.6v8.6h-.7c-.6-3-1.4-3.9-3.7-3.9h-1v9h2.1c3.9,0,5.9-1.8,6.7-5.3h.6l-.2,6.2h-15.5v-.8h2V6.9h-2v-.8h14.8Z"/>
        <path class="st12" d="M70.4,19.5c0,4.3,1,6.1,3.5,6.1s3.6-2.1,3.9-3.7h.8c-.3,1.9-1.3,4.8-5.9,4.8s-6.6-2.5-6.6-7,2.9-7.4,7.3-7.4,5.1,1.5,5.1,3.7-.8,2.4-2.1,2.4-2.1-.7-2.1-2.1,0-.6.1-1h.9c0-.3.1-.6.1-.8,0-.8-.6-1.4-1.8-1.4-2.2,0-3.2,1.7-3.2,6.5Z"/>
        <path class="st12" d="M87.1,12.3c4.5,0,6.9,2.3,6.9,7s-2.4,7.3-7,7.3-7-2.6-7-7.1,2.7-7.2,7.1-7.2ZM87.1,13c-2.4,0-2.8,2.4-2.8,6.4s.4,6.6,2.8,6.6,2.6-2.1,2.6-6.6-.4-6.4-2.6-6.4Z"/>
        <path class="st12" d="M101.2,12.6v2.6c.6-1.4,1.9-2.9,4.7-2.9s4.4,1.3,4.4,4.8v8.5h1.9v.8h-7.7v-.8h1.7v-8.9c0-2.3-.4-3-1.7-3s-3.3,1.9-3.3,4.4v7.5h1.7v.8h-7.7v-.8h1.9v-12.3h-1.9v-.8h6Z"/>
        <path class="st12" d="M120.4,12.3c4.5,0,6.9,2.3,6.9,7s-2.4,7.3-7,7.3-7-2.6-7-7.1,2.7-7.2,7.1-7.2ZM120.4,13c-2.4,0-2.8,2.4-2.8,6.4s.4,6.6,2.8,6.6,2.6-2.1,2.6-6.6-.4-6.4-2.6-6.4Z"/>
        <path class="st12" d="M134.5,12.6v2.6c.6-1.4,1.7-2.9,4.4-2.9s3.6.9,4.1,3.1c.6-1.5,1.9-3.1,4.6-3.1s4.2,1.3,4.2,4.8v8.5h1.9v.8h-7.6v-.8h1.6v-9.1c0-2.3-.4-2.9-1.5-2.9-1.6,0-3,1.8-3,4.3v7.7h1.6v.8h-7.3v-.8h1.6v-9c0-2.4-.4-3-1.5-3-1.7,0-3,1.9-3,4.4v7.6h1.6v.8h-7.6v-.8h1.9v-12.3h-1.9v-.8h6Z"/>
        <path class="st12" d="M152.7,12.6h7.5v.8h-1.9l3.4,9.6,3.4-9.6h-2v-.8h4.5v.8h-1.4l-5.7,15.4c-1.4,3.7-2.4,4.9-4.7,4.9s-3.2-1.2-3.2-2.7.8-2.3,2-2.3,1.9.5,1.9,1.7,0,.6-.2,1h-1c-.1.2-.2.5-.2.7,0,.4.3.7,1,.7,1.5,0,2.3-1.6,3.4-4.6l.6-1.8h-1.2l-5.2-13h-1.3v-.8Z"/>
        <path class="st12" d="M182.1,6.1c5.1,0,8.6,1.2,8.6,5.7s-4,6.3-9.3,6.3h-.7v7.5h3.6v.8h-10.1v-.8h2.2V6.9h-2.2v-.8h7.9ZM180.7,17.2h1c3.1,0,4.3-1.6,4.3-5.4s-1.2-4.9-4.1-4.9h-1.2v10.3Z"/>
        <path class="st12" d="M198.4,12.3c4.5,0,6.9,2.3,6.9,7s-2.4,7.3-7,7.3-7-2.6-7-7.1,2.7-7.2,7.1-7.2ZM198.4,13c-2.4,0-2.8,2.4-2.8,6.4s.4,6.6,2.8,6.6,2.6-2.1,2.6-6.6-.4-6.4-2.6-6.4Z"/>
        <path class="st12" d="M214.6,12.6h6.8v.8h-1.5l3.2,9.4,2.8-9.4h-2.1v-.8h4.4v.8h-1.4l-4,13.1h-2.3l-3.3-9.3-3.5,9.3h-2.2l-4.8-13.1h-1.4v-.8h7.4v.8h-1.7l3.1,9.5,2.5-7-.8-2.6h-1.3v-.8Z"/>
        <path class="st12" d="M235.4,12.3c4,0,5.9,2.3,5.7,6.6h-8.6v.8c0,3.8.8,5.9,3.7,5.9s3.5-1.3,4.1-3.5h.8c-.6,2.6-2.1,4.5-6,4.5s-7-2.9-7-7.1,3.1-7.3,7.2-7.3ZM237.1,18.1c0-3.7-.3-5.1-2.1-5.1s-2.4,1.3-2.5,5.1h4.6Z"/>
        <path class="st12" d="M248.4,18.5v7.2h2.6v.8h-8.6v-.8h1.9v-12.3h-1.9v-.8h6v2.7c.6-2.1,2-3,3.7-3s3,1.1,3,3-.8,2.5-2.1,2.5-2-.6-2-2.1,0-.6,0-.8h.9c.1-.3.1-.5.1-.6,0-.6-.4-.7-.8-.7-1.6,0-2.9,2.4-2.9,5Z"/>
        <path class="st12" d="M263.1,12.3c4,0,5.9,2.3,5.7,6.6h-8.6v.8c0,3.8.8,5.9,3.7,5.9s3.5-1.3,4.1-3.5h.8c-.6,2.6-2.1,4.5-6,4.5s-7-2.9-7-7.1,3.1-7.3,7.2-7.3ZM264.8,18.1c0-3.7-.3-5.1-2.1-5.1s-2.4,1.3-2.5,5.1h4.6Z"/>
        <path class="st12" d="M280.3,24.3c-.8,1.5-2,2.4-4.3,2.4-3.3,0-5.4-2.3-5.4-7.1s2.2-7.3,5.9-7.3,3.1.7,3.7,1.7V5.4h-2.2v-.8h6.4v21h1.9v.8h-5.7l-.3-2.1ZM280.3,21.9v-5.2c0-1.6-1-3.3-2.8-3.3s-2.6,1.9-2.6,6.3.5,5.9,2.4,5.9,3-1.2,3-3.5Z"/>
      </g>
      <g>
        <path class="st12" d="M90.2,39.3c.4-.7,1-1.2,2.1-1.2,1.6,0,2.6,1.1,2.6,3.5s-1,3.5-3,3.5-1.6-.3-2-1l-.9.9h-.8v-10.2h-.9v-.4h2.9v4.9ZM90.2,40.6v2.2c0,.9.5,1.7,1.4,1.7s1.2-.8,1.2-3-.2-2.8-1.1-2.8-1.5.8-1.5,2Z"/>
        <path class="st12" d="M95.2,38.2h3.6v.4h-.9l1.7,4.6,1.7-4.6h-1v-.4h2.2v.4h-.7l-2.8,7.5c-.7,1.8-1.2,2.4-2.3,2.4s-1.6-.6-1.6-1.3.4-1.1,1-1.1.9.3.9.8,0,.3,0,.5h-.5c0,.1,0,.2,0,.3,0,.2.2.4.5.4.7,0,1.1-.8,1.6-2.2l.3-.9h-.6l-2.5-6.3h-.6v-.4Z"/>
      </g>
      <g>
        <path class="st12" d="M113.5,31.6v.8h-3v17.9h1.6c3.8,0,5.3-1.8,6.4-5.6h.7l-.4,6.4h-14.4v-.8h1.9v-17.9h-1.9v-.8h9.1Z"/>
        <path class="st12" d="M128.3,44.5v-2c0-3-.5-4.2-2.2-4.2s-1.8.3-1.8,1.1,0,.4,0,.6h.8c.1.4.2.7.2,1.2,0,1.2-.9,1.9-2,1.9s-2-.8-2-2c0-2.2,2.1-3.3,5.3-3.3s5.4,1.2,5.4,5.3v5.5c0,1.2.3,1.6.9,1.6s.9-.4,1.1-2.7h.6c-.1,3.1-1.1,4.2-3.2,4.2s-2.9-.7-3.2-2c-.6,1.3-1.8,2-3.6,2s-4-.7-4-3.3,2.4-3.6,6.2-3.6h1.3ZM128.3,47.5v-2.3h-.6c-2,0-2.7,1-2.7,2.8s.4,2.2,1.3,2.2,2-1,2-2.7Z"/>
        <path class="st12" d="M136.5,38.6h-1.8v-.7h1.8v-3.6l4-1v4.6h3.7v.7h-3.7v9.1c0,1.6.3,2.4,1.5,2.4s2.1-1.1,2.3-3h.6c-.3,2.3-1.1,4.3-4.3,4.3s-4.2-.8-4.2-3.8v-9Z"/>
        <path class="st12" d="M151.3,37.9v12.5h1.8v.7h-7.6v-.7h1.8v-11.8h-1.9v-.7h5.8ZM149.2,31.2c1.3,0,2.2.7,2.2,2.1s-.7,2.1-2.2,2.1-2.3-1.1-2.3-2.1.7-2.1,2.3-2.1Z"/>
        <path class="st12" d="M159.8,37.9v2.5c.6-1.4,1.8-2.8,4.5-2.8s4.2,1.3,4.2,4.7v8.2h1.8v.7h-7.4v-.7h1.6v-8.6c0-2.2-.4-2.9-1.6-2.9s-3.2,1.8-3.2,4.3v7.2h1.6v.7h-7.4v-.7h1.8v-11.8h-1.8v-.7h5.7Z"/>
        <path class="st12" d="M178.2,37.6c4.3,0,6.6,2.2,6.6,6.8s-2.3,7.1-6.7,7.1-6.7-2.5-6.7-6.9,2.6-7,6.9-7ZM178.2,38.3c-2.3,0-2.6,2.3-2.6,6.2s.4,6.3,2.6,6.3,2.5-2,2.5-6.4-.4-6.1-2.5-6.1Z"/>
        <path class="st12" d="M186.7,46.6h.6c.6,2.9,2.4,3.9,4.7,3.9s3-.8,3-2-1.5-1.8-3.5-2.3c-2.2-.5-4.7-1.1-4.7-4.2s1.9-4.5,4.8-4.5,2,.3,2.8.6c.3.1.5.2.8.2s.4-.3.6-.9h.6v4.2h-.6c-.8-2.3-2.1-3.4-4-3.4s-2.7.7-2.7,1.8,1.6,1.8,3.5,2.2c2.2.5,4.7,1.2,4.7,4.5s-1.9,4.5-5,4.5-2.5-.3-3.5-.9c-.2-.1-.4-.2-.5-.2-.3,0-.5.2-.7,1.1h-.6v-4.8Z"/>
      </g>
    </g>
  </g>
</svg>