<?xml version="1.0" encoding="UTF-8"?>
<svg id="Layer_2" xmlns="http://www.w3.org/2000/svg" version="1.1" viewBox="0 0 201 165.5">
  <!-- Generator: Adobe Illustrator 30.0.0, SVG Export Plug-In . SVG Version: 2.1.1 Build 123)  -->
  <defs>
    <style>
      .st0, .st1, .st2 {
        fill: none;
      }

      .st3 {
        fill: #38c0fc;
      }

      .st4 {
        fill: #f93d61;
      }

      .st1, .st5 {
        stroke: #172747;
      }

      .st1, .st5, .st2 {
        stroke-miterlimit: 10;
        stroke-width: .5px;
      }

      .st6 {
        fill: #f8ba29;
      }

      .st5 {
        fill: #fdfeff;
      }

      .st7 {
        fill: #fff;
      }

      .st8 {
        fill: #dc8600;
      }

      .st9 {
        fill: #dae9fb;
      }

      .st10 {
        fill: #c6dbfd;
      }

      .st11 {
        fill: #071c35;
      }

      .st2 {
        stroke: #0c2244;
      }

      .st12 {
        fill: #04454c;
      }

      .st13 {
        fill: #21bfd8;
      }
    </style>
  </defs>
  <g id="Layer_1-2">
    <g>
      <g>
        <path class="st12" d="M143.9,32.4c0,9.6-7.1,15.3-16.4,15.3s-16.1-4.4-16.5-14.7h10.3c.3,3.7,3.2,5,6,5s6.2-2.5,6.2-5.7-2.5-5.5-6-5.5-5,1.5-5.6,2.6h-9.7l5.2-24.6h24.5v9.7h-16.8l-1.1,5.3c1.5-.9,3.4-1.5,6-1.5,7.3,0,13.9,5,13.9,14h0Z"/>
        <path class="st12" d="M148.8,4.9h11.6l9.6,14.4,9.7-14.4h11.6v42.1h-10.2v-27.8l-10.5,16h-.9l-10.5-16v27.7h-10.2V4.9h0Z"/>
        <g>
          <path class="st11" d="M116.3,57.2h1.2v8.3h-1.2v-8.3Z"/>
          <path class="st11" d="M118.8,62.5c0-1.8,1.2-3.1,2.7-3.1s1.7.5,2.1,1.1v-1h1.2v6h-1.2v-1c-.5.7-1.1,1.1-2.1,1.1-1.6,0-2.7-1.3-2.7-3.1h0ZM123.6,62.5c0-1.1-.8-1.9-1.8-1.9s-1.7.8-1.7,1.9.7,1.9,1.7,1.9,1.8-.8,1.8-1.9Z"/>
          <path class="st11" d="M126.9,63.3v-2.5h-1.1v-1.1h1.1v-1.3l1.2-.3v1.6h2.4v1.1h-2.4v2.5c0,.9.4,1.3,1.1,1.3s.8-.1,1.3-.3l.2,1c-.3.2-1,.5-1.7.5-1.2,0-2.1-.7-2.1-2.4h0Z"/>
          <path class="st11" d="M133.3,57.6c0,.5-.3.7-.8.7s-.8-.3-.8-.7.3-.7.8-.7.8.3.8.7ZM131.9,59.6h1.2v6h-1.2v-6Z"/>
          <path class="st11" d="M134.5,59.6h1.2v1c.4-.7,1.1-1.1,2-1.1,1.3,0,2.1.9,2.1,2.3v3.8h-1.2v-3.5c0-.9-.4-1.4-1.3-1.4s-1.6.7-1.6,1.8v3.1h-1.2v-6h0Z"/>
          <path class="st11" d="M147.3,62.5c0,1.8-1.3,3.1-3.1,3.1s-3.1-1.3-3.1-3.1,1.4-3.1,3.1-3.1,3.1,1.3,3.1,3.1ZM142.3,62.5c0,1.1.8,1.9,1.9,1.9s1.9-.8,1.9-1.9-.8-1.9-1.9-1.9-1.9.8-1.9,1.9Z"/>
          <path class="st11" d="M152.2,62.9h-3.6v-1.1h3.6v1.1Z"/>
          <path class="st11" d="M159.8,62.5c0,1.8-1.3,3.1-3.1,3.1s-3.1-1.3-3.1-3.1,1.4-3.1,3.1-3.1,3.1,1.3,3.1,3.1ZM154.9,62.5c0,1.1.8,1.9,1.9,1.9s1.9-.8,1.9-1.9-.8-1.9-1.9-1.9-1.9.8-1.9,1.9Z"/>
          <path class="st11" d="M167.4,65.5h-1.4l-.6-2-.6-2.7h-.2l-.6,2.7-.6,2h-1.4l-1.7-6h1.2l.5,1.9.7,2.7.7-2.7.5-1.9h1.5l.5,1.9.7,2.7.7-2.7.5-1.9h1.2l-1.7,6h0Z"/>
          <path class="st11" d="M170.1,59.6h1.2v1c.4-.7,1.1-1.1,2-1.1,1.3,0,2.1.9,2.1,2.3v3.8h-1.2v-3.5c0-.9-.4-1.4-1.3-1.4s-1.6.7-1.6,1.8v3.1h-1.2v-6h0Z"/>
          <path class="st11" d="M176.6,62.5c0-1.8,1.3-3.1,3.1-3.1s3.1,1.5,3,3.4h-4.8c0,1.1.9,1.7,1.9,1.7s1.3-.3,1.6-.9h1.3c-.5,1.3-1.6,1.9-2.9,1.9-1.8,0-3.1-1.3-3.1-3.1h0ZM181.4,61.9c-.2-.8-.8-1.4-1.7-1.4s-1.5.6-1.7,1.4h3.5,0Z"/>
          <path class="st11" d="M183.7,62.5c0-1.8,1.2-3.1,2.7-3.1s1.7.5,2.1,1.1v-3.4h1.2v8.3h-1.2v-1c-.4.7-1.1,1.1-2.1,1.1-1.6,0-2.7-1.3-2.7-3.1h0ZM188.6,62.5c0-1.1-.8-1.9-1.8-1.9s-1.7.8-1.7,1.9.7,1.9,1.7,1.9,1.8-.8,1.8-1.9Z"/>
        </g>
        <g>
          <path class="st11" d="M124,76.7v1h-1.2v-8.3h1.2v3.4c.5-.7,1.1-1.1,2.1-1.1,1.5,0,2.7,1.3,2.7,3.1s-1.1,3.1-2.7,3.1-1.6-.5-2.1-1.1h0ZM127.6,74.8c0-1.1-.7-1.9-1.7-1.9s-1.8.8-1.8,1.9.8,1.9,1.8,1.9,1.7-.8,1.7-1.9Z"/>
          <path class="st11" d="M135.4,71.8v6h-1.2v-1c-.4.7-1.1,1.1-2,1.1-1.3,0-2.1-.9-2.1-2.3v-3.8h1.2v3.5c0,.9.4,1.4,1.3,1.4s1.6-.7,1.6-1.8v-3.1h1.2Z"/>
          <path class="st11" d="M136.5,75.9h1.3c.2.7.7.9,1.7.9s1.3-.3,1.3-.7-.5-.6-1.5-.8c-1.7-.4-2.3-.7-2.3-1.7s1-1.9,2.5-1.9,2.4.7,2.6,1.8h-1.2c-.2-.5-.6-.7-1.4-.7s-1.3.3-1.3.7.4.5,1.4.7c1.6.4,2.5.7,2.5,1.8s-1.1,1.9-2.5,1.9-2.7-.7-2.9-2h0Z"/>
          <path class="st11" d="M144.5,69.8c0,.5-.3.7-.8.7s-.8-.3-.8-.7.3-.7.8-.7.8.3.8.7ZM143.1,71.8h1.2v6h-1.2v-6Z"/>
          <path class="st11" d="M145.7,71.8h1.2v1c.4-.7,1.1-1.1,2-1.1,1.3,0,2.1.9,2.1,2.3v3.8h-1.2v-3.5c0-.9-.4-1.4-1.3-1.4s-1.6.7-1.6,1.8v3.1h-1.2v-6h0Z"/>
          <path class="st11" d="M152.2,74.8c0-1.8,1.3-3.1,3.1-3.1s3.1,1.5,3,3.4h-4.8c0,1.1.9,1.7,1.9,1.7s1.3-.3,1.6-.9h1.3c-.5,1.3-1.6,1.9-2.9,1.9-1.8,0-3.1-1.3-3.1-3.1h0ZM157.1,74.1c-.2-.8-.8-1.4-1.7-1.4s-1.5.6-1.7,1.4h3.5,0Z"/>
          <path class="st11" d="M159.3,75.9h1.3c.2.7.7.9,1.7.9s1.3-.3,1.3-.7-.5-.6-1.5-.8c-1.7-.4-2.3-.7-2.3-1.7s1-1.9,2.5-1.9,2.4.7,2.6,1.8h-1.2c-.2-.5-.6-.7-1.4-.7s-1.3.3-1.3.7.4.5,1.4.7c1.6.4,2.5.7,2.5,1.8s-1.1,1.9-2.5,1.9-2.7-.7-2.9-2h0Z"/>
          <path class="st11" d="M165.6,75.9h1.3c.2.7.7.9,1.7.9s1.3-.3,1.3-.7-.5-.6-1.5-.8c-1.7-.4-2.3-.7-2.3-1.7s1-1.9,2.5-1.9,2.4.7,2.6,1.8h-1.2c-.2-.5-.6-.7-1.4-.7s-1.3.3-1.3.7.4.5,1.4.7c1.6.4,2.5.7,2.5,1.8s-1.1,1.9-2.5,1.9-2.7-.7-2.9-2h0Z"/>
          <path class="st11" d="M172,74.8c0-1.8,1.3-3.1,3.1-3.1s3.1,1.5,3,3.4h-4.8c0,1.1.9,1.7,1.9,1.7s1.3-.3,1.6-.9h1.3c-.5,1.3-1.6,1.9-2.9,1.9-1.8,0-3.1-1.3-3.1-3.1h0ZM176.8,74.1c-.2-.8-.8-1.4-1.7-1.4s-1.5.6-1.7,1.4h3.5,0Z"/>
          <path class="st11" d="M179,75.9h1.3c.2.7.7.9,1.7.9s1.3-.3,1.3-.7-.5-.6-1.5-.8c-1.7-.4-2.3-.7-2.3-1.7s1-1.9,2.5-1.9,2.4.7,2.6,1.8h-1.2c-.2-.5-.6-.7-1.4-.7s-1.3.3-1.3.7.3.5,1.4.7c1.6.4,2.5.7,2.5,1.8s-1.1,1.9-2.5,1.9-2.7-.7-2.9-2h0Z"/>
        </g>
        <rect class="st4" x="110.6" y="50.7" width="84.4" height="2.5"/>
        <path class="st9" d="M4.9,58.5c2.3,3.8,10.6,13.1,16.2,18,2.1,1.9,4.5,3.5,7.2,2.7l49.5-15.7c2.3-.7,4.2-2.1,6.4-5.1l14.3-33.2c2.8-4.3-.4-10.1-5.5-9.7h-.5l-33.4,5.2c-3.8.6-7.7,0-11.2-1.7L20.4,5.9c-4.2-2-9,.9-9.2,5.6L4,55c0,1.3.3,2.5.9,3.6h0Z"/>
        <rect class="st10" x="21.4" y="30.6" width="48.3" height="26.6"/>
        <polygon class="st13" points="44.5 6.4 17.3 23.6 17.3 26.1 72.2 26.1 72.2 23.6 44.5 6.4"/>
        <polygon class="st7" points="23.9 22.7 65.6 22.7 44.6 9.8 23.9 22.7"/>
        <line class="st1" x1="25.6" y1="22.7" x2="45.5" y2="10.3"/>
        <path class="st1" d="M47,18.5c0,1.3-1.1,2.5-2.5,2.5s-2.5-1.1-2.5-2.5,1.1-2.5,2.5-2.5,2.5,1.1,2.5,2.5Z"/>
        <polygon class="st13" points="71.1 29 71.1 26.1 18.4 26.1 18.4 29 17.3 29 17.3 30.6 72.2 30.6 72.2 29 71.1 29"/>
        <line class="st1" x1="18.4" y1="26.1" x2="71.1" y2="26.1"/>
        <line class="st1" x1="18.4" y1="29" x2="71.1" y2="29"/>
        <g>
          <g>
            <path class="st13" d="M34.6,31.4v-.8h-4.9v.8c0,.5.3.8.8.8h0v23.9h-.7v1h4.9v-1h-.7v-23.9h0c.5,0,.8-.3.8-.8Z"/>
            <line class="st1" x1="30.5" y1="56.2" x2="33.9" y2="56.2"/>
            <line class="st1" x1="30.5" y1="32.2" x2="33.9" y2="32.2"/>
          </g>
          <g>
            <line class="st1" x1="31.6" y1="33.4" x2="31.6" y2="54.4"/>
            <line class="st1" x1="32.8" y1="33.4" x2="32.8" y2="54.4"/>
          </g>
        </g>
        <g>
          <g>
            <path class="st13" d="M23.2,31.4v-.8h-4.9v.8c0,.5.3.8.8.8h0v23.9h-.7v1h4.9v-1h-.7v-23.9h0c.5,0,.8-.3.8-.8Z"/>
            <line class="st1" x1="19.1" y1="56.2" x2="22.5" y2="56.2"/>
            <line class="st1" x1="19.1" y1="32.2" x2="22.5" y2="32.2"/>
          </g>
          <g>
            <line class="st1" x1="20.2" y1="33.4" x2="20.2" y2="54.4"/>
            <line class="st1" x1="21.4" y1="33.4" x2="21.4" y2="54.4"/>
          </g>
        </g>
        <g>
          <g>
            <path class="st13" d="M60.6,31.4v-.8h-4.9v.8c0,.5.3.8.8.8h0v23.9h-.7v1h4.9v-1h-.7v-23.9h0c.5,0,.8-.3.8-.8Z"/>
            <line class="st1" x1="56.5" y1="56.2" x2="59.8" y2="56.2"/>
            <line class="st1" x1="56.5" y1="32.2" x2="59.8" y2="32.2"/>
          </g>
          <g>
            <line class="st1" x1="57.5" y1="33.4" x2="57.5" y2="54.4"/>
            <line class="st1" x1="58.7" y1="33.4" x2="58.7" y2="54.4"/>
          </g>
        </g>
        <g>
          <g>
            <path class="st13" d="M47.6,31.4v-.8h-4.9v.8c0,.5.3.8.8.8h0v23.9h-.7v1h4.9v-1h-.7v-23.9h0c.5,0,.8-.3.8-.8Z"/>
            <line class="st1" x1="43.5" y1="56.2" x2="46.9" y2="56.2"/>
            <line class="st1" x1="43.5" y1="32.2" x2="46.9" y2="32.2"/>
          </g>
          <g>
            <line class="st1" x1="44.5" y1="33.4" x2="44.5" y2="54.4"/>
            <line class="st1" x1="45.8" y1="33.4" x2="45.8" y2="54.4"/>
          </g>
        </g>
        <g>
          <g>
            <path class="st13" d="M71.1,31.4v-.8h-4.9v.8c0,.5.3.8.8.8h0v23.9h-.7v1h4.9v-1h-.7v-23.9h0c.5,0,.8-.3.8-.8Z"/>
            <line class="st1" x1="67.1" y1="56.2" x2="70.4" y2="56.2"/>
            <line class="st1" x1="67.1" y1="32.2" x2="70.4" y2="32.2"/>
          </g>
          <g>
            <line class="st1" x1="68.1" y1="33.4" x2="68.1" y2="54.4"/>
            <line class="st1" x1="69.3" y1="33.4" x2="69.3" y2="54.4"/>
          </g>
        </g>
        <rect class="st13" x="17.3" y="57.2" width="54.8" height="1.7"/>
        <rect class="st13" x="15.4" y="59" width="58.7" height="1.7"/>
        <line class="st1" x1="18.4" y1="57.2" x2="71.1" y2="57.2"/>
        <line class="st1" x1="17.3" y1="59" x2="72.2" y2="59"/>
        <line class="st1" x1="18.4" y1="30.6" x2="71.1" y2="30.6"/>
        <g>
          <path class="st6" d="M80.5,43.4s-10.3,5-5,17.7c0,0,3.6,9.9,13.6,11.9,0,0,7.8,1.9,12.5-6l-21-23.7h0Z"/>
          <path class="st6" d="M101.6,53c-3.6-8-12-13.1-18.6-11.1-6.7,2.1-8.8,10.5-4.8,18.6,3.9,7.8,12.1,12.3,18.4,10.3,6.2-2.1,8.5-9.9,5-17.8h0Z"/>
          <path class="st1" d="M79.5,43.9c-1.6,2.1-2.9,4.4-3.3,7-.3,3.1.3,6.2,1.7,9,0,.2.2.3.3.5,1.1,2.2,2.5,4.2,4.4,5.9,1.6,1.5,3.6,2.9,5.6,3.8,1.9.8,4,1.2,6,1.1,1.3,0,2.6-.4,3.8-.9,1.3-.6,2.3-1.5,3.1-2.6"/>
          <path class="st5" d="M98.4,54.2c2.6,5.7.9,11.5-3.6,13-4.6,1.5-10.6-1.8-13.4-7.5-2.9-5.8-1.3-11.9,3.5-13.4,4.8-1.5,10.9,2.1,13.5,7.9h0Z"/>
          <g>
            <path class="st1" d="M89.8,49.3l-3.2,1.9c-1.4.9-1.9,2.7-1,4.1h0c.9,1.5,2.7,1.9,4.1,1.1l.7-.4c1.4-.9,3.2-.4,4.1,1h0c.9,1.4.4,3.2-1,4.1l-3.6,2.2"/>
            <line class="st1" x1="85.4" y1="50.4" x2="93.1" y2="63.1"/>
            <line class="st1" x1="86.9" y1="49.5" x2="94.6" y2="62.2"/>
          </g>
          <line class="st1" x1="76.3" y1="50.2" x2="74" y2="51.8"/>
          <line class="st1" x1="76.4" y1="55.3" x2="74" y2="56.8"/>
          <line class="st1" x1="77.8" y1="59.7" x2="75.7" y2="61.5"/>
          <line class="st1" x1="78.7" y1="61.5" x2="76.6" y2="63.5"/>
          <line class="st1" x1="81.1" y1="64.9" x2="79" y2="66.8"/>
          <line class="st0" x1="88.6" y1="70.4" x2="86.6" y2="72.3"/>
          <line class="st0" x1="92.6" y1="71.2" x2="90.9" y2="73.2"/>
          <path class="st8" d="M99.3,67.4c0,.4-.3.7-.7.7s-.7-.3-.7-.7.3-.7.7-.7.7.3.7.7Z"/>
          <path class="st8" d="M101.9,62.3c0,.4-.3.7-.7.7s-.7-.3-.7-.7.3-.7.7-.7.7.3.7.7Z"/>
          <path class="st8" d="M93.7,69.2c0,.4-.3.7-.7.7s-.7-.3-.7-.7.3-.7.7-.7.7.3.7.7Z"/>
          <path class="st8" d="M87.9,67.8c0,.4-.3.7-.7.7s-.7-.3-.7-.7.3-.7.7-.7.7.3.7.7Z"/>
          <path class="st8" d="M83,63.9c0,.4-.3.7-.7.7s-.7-.3-.7-.7.3-.7.7-.7.7.3.7.7Z"/>
          <path class="st8" d="M78.5,58.6c0-.3.1-.7.5-.8.3,0,.7.1.8.5,0,.3-.1.7-.5.8s-.7-.1-.8-.5Z"/>
          <path class="st8" d="M77.5,52.3c0-.3.1-.7.5-.8s.7.1.8.5-.1.7-.5.8c-.3,0-.7-.1-.8-.5Z"/>
          <path class="st8" d="M79.7,46.6c0-.3.1-.7.5-.8.3,0,.7.1.8.5,0,.3-.1.7-.5.8s-.7-.1-.8-.5Z"/>
          <path class="st8" d="M84.3,43.6c0-.4.4-.6.7-.6s.6.4.6.7-.4.6-.7.6-.6-.4-.6-.7Z"/>
          <path class="st8" d="M89.6,44.3c0-.4.4-.6.7-.6s.6.4.6.7-.4.6-.7.6-.6-.4-.6-.7Z"/>
          <path class="st8" d="M101.6,56.4c0,.4-.3.7-.7.7s-.7-.3-.7-.7.3-.7.7-.7.7.3.7.7Z"/>
          <path class="st8" d="M99.4,51.3c0,.4-.3.7-.7.7s-.7-.3-.7-.7.3-.7.7-.7.7.3.7.7Z"/>
          <path class="st8" d="M95.9,47.1c0,.4-.3.7-.7.7s-.7-.3-.7-.7.3-.7.7-.7.7.3.7.7Z"/>
        </g>
        <g>
          <path class="st6" d="M74.3,33.4l1.2,2c.4.6,1.3,1,2,1.3,2.2.9,4.7.8,7,.3,5.9-1.1,11.4-3.8,15.9-7.7,1.6-1.3,3.1-2.9,4.2-4.8.9-1.5,1.8-3.9.9-5.6l-1.1-2.1-30,16.6h-.1Z"/>
          <path class="st7" d="M92.6,28c-6.8,4.1-13.5,4.6-14.5,1.5-.9-2.6,2.9-6.9,8.1-9.8,5-2.8,10.7-3.9,13-2.3,2.7,1.9,0,6.7-6.5,10.6h0Z"/>
          <path class="st6" d="M102.8,15.3c-3.4-1.9-10.9-.4-17.6,3.3-6.9,3.8-12.3,9.7-11.5,13.4.9,4.8,10.5,4.4,20.6-1.7,9.5-5.8,12.7-12.5,8.5-14.9h0Z"/>
          <path class="st2" d="M74.6,33.8c2.9,2.6,11.1,1.5,19.6-3.6,8-4.8,11.5-10.5,9.9-13.5"/>
          <path class="st5" d="M92.6,28c-6.8,4.1-13.5,4.6-14.5,1.5-.9-2.6,2.9-6.9,8.1-9.8,5-2.8,10.7-3.9,13-2.3,2.7,1.9,0,6.7-6.5,10.6h0Z"/>
          <g>
            <path class="st1" d="M82.5,24.7l1,2c.5.9,1.9,1,3.4.3h0c1.4-.8,2.1-2.1,1.7-2.9l-.2-.4c-.5-.9.3-2.1,1.7-2.9h0c1.4-.7,2.9-.6,3.4.3l1.1,2.3"/>
            <line class="st1" x1="82.5" y1="27.6" x2="95.2" y2="21.1"/>
            <line class="st1" x1="82.1" y1="26.7" x2="94.7" y2="20.2"/>
          </g>
          <line class="st1" x1="98.9" y1="27" x2="99.9" y2="29.6"/>
          <line class="st1" x1="92.3" y1="31.4" x2="93.4" y2="33.9"/>
          <line class="st1" x1="84.5" y1="34.6" x2="85.4" y2="36.9"/>
          <line class="st1" x1="81.7" y1="35.1" x2="82.5" y2="37.3"/>
          <line class="st1" x1="77.3" y1="35" x2="78" y2="36.9"/>
          <g>
            <path class="st8" d="M91.3,30.1c.1.3,0,.6-.2.7s-.6,0-.7-.2,0-.6.2-.7.6,0,.7.2Z"/>
            <path class="st8" d="M84.9,32.6c.1.3,0,.6-.2.7s-.6,0-.7-.2,0-.6.2-.7.6,0,.7.2Z"/>
            <path class="st8" d="M78.5,32.6c.1.3,0,.6-.2.7s-.6,0-.7-.2,0-.6.2-.7.6,0,.7.2Z"/>
            <path class="st8" d="M75.8,29.6c.1.3,0,.6-.2.7s-.6,0-.7-.2,0-.6.2-.7.6,0,.7.2Z"/>
            <path class="st8" d="M77.8,25.5c.1.2,0,.5-.2.6s-.5,0-.6-.2,0-.5.2-.6.5,0,.6.2Z"/>
            <path class="st8" d="M81.4,22.1c.1.2,0,.5-.2.6s-.5,0-.6-.2,0-.5.2-.6.5,0,.6.2Z"/>
            <path class="st8" d="M85.7,19.1c.1.2,0,.5-.2.6s-.5,0-.6-.2,0-.5.2-.6.5,0,.6.2Z"/>
            <path class="st8" d="M90.7,16.8c.1.2,0,.5-.2.6s-.5,0-.6-.2,0-.5.2-.6.5,0,.6.2Z"/>
            <path class="st8" d="M96.1,15.6c.1.2,0,.5-.2.6s-.5,0-.6-.2,0-.5.2-.6.5,0,.6.2Z"/>
            <path class="st8" d="M97.6,26.2c.1.3,0,.6-.2.7s-.6,0-.7-.2,0-.6.2-.7.6,0,.7.2Z"/>
            <path class="st8" d="M101.6,21.7c.1.3,0,.6-.2.7s-.6,0-.7-.2,0-.6.2-.7.6,0,.7.2Z"/>
            <path class="st8" d="M102,16.6c.1.3,0,.7-.3.8s-.7,0-.8-.3,0-.7.3-.8.7,0,.8.3Z"/>
          </g>
        </g>
      </g>
      <g>
        <g>
          <path class="st11" d="M124.4,151.3h-2.6l-1.1-3.7-1.1-5h-.3l-1.1,5-1.1,3.7h-2.6l-3.1-11h2.2l1,3.5,1.3,5.2,1.3-5.2,1-3.5h2.7l.9,3.5,1.3,5.1,1.3-5.1.9-3.5h2.3l-3.1,11h0Z"/>
          <path class="st11" d="M139.8,145.8c0,3.3-2.5,5.7-5.7,5.7s-5.7-2.4-5.7-5.7,2.5-5.8,5.7-5.8,5.7,2.4,5.7,5.8ZM130.7,145.8c0,2.1,1.5,3.6,3.4,3.6s3.4-1.5,3.4-3.6-1.5-3.6-3.4-3.6-3.4,1.5-3.4,3.6Z"/>
          <path class="st11" d="M142.1,140.3h2.3v2.1c.7-1.5,1.9-2.4,3.7-2.4s.5,0,.7,0v2.3h-.7c-2.1,0-3.6,1.1-3.6,3.9v5h-2.3v-11h0Z"/>
          <path class="st11" d="M152.8,145l4.8-4.8h2.9l-5.4,5.2,5.8,5.8h-2.9l-5.2-5v5h-2.3v-15.4h2.3v9.1h0Z"/>
          <path class="st11" d="M161.2,145.8c0-3.3,2.3-5.8,5.7-5.8s5.8,2.7,5.6,6.4h-8.9c.1,2,1.6,3.1,3.4,3.1s2.4-.5,2.9-1.6h2.3c-.9,2.5-2.9,3.6-5.3,3.6-3.4,0-5.7-2.4-5.7-5.7h0ZM170,144.5c-.3-1.5-1.5-2.5-3.1-2.5s-2.9,1.1-3.2,2.5h6.4Z"/>
          <path class="st11" d="M174.6,140.3h2.3v2.1c.7-1.5,1.9-2.4,3.7-2.4s.5,0,.7,0v2.3h-.7c-2.1,0-3.6,1.1-3.6,3.9v5h-2.3v-11h0Z"/>
          <path class="st11" d="M182.5,147.7h2.3c.3,1.2,1.2,1.8,3.1,1.8s2.3-.5,2.3-1.3-1-1.1-2.9-1.5c-3.1-.7-4.4-1.4-4.4-3.2s1.9-3.5,4.6-3.5,4.4,1.3,4.8,3.4h-2.3c-.3-.9-1.1-1.3-2.5-1.3s-2.3.5-2.3,1.3.7.9,2.6,1.3c2.9.7,4.7,1.2,4.7,3.4s-2.1,3.5-4.7,3.5-5-1.4-5.4-3.8h0Z"/>
        </g>
        <g>
          <path class="st12" d="M118.1,116.6c.3,1.9,1.5,2.7,3.6,2.7s3.3-1,3.3-2.5-.7-2-2.9-2h-3.1v-5.1h2.6c1.6,0,2.8-.3,2.8-1.9s-.7-2.4-3-2.4-2.7.6-3,2.4h-5.9c.3-5.2,4.2-8,9.1-8s8.7,3.1,8.7,7.1-.9,3.8-2.5,4.8c2.1.9,3.3,2.9,3.3,5.5,0,4.8-3.6,7.5-9.1,7.5s-9.3-2.7-9.6-8.2h5.9,0Z"/>
          <path class="st12" d="M140.5,121.4c0,1.9-1.5,3.4-3.6,3.4s-3.6-1.4-3.6-3.4,1.5-3.4,3.6-3.4,3.6,1.4,3.6,3.4Z"/>
          <path class="st12" d="M162.2,116c0,5.4-4,8.7-9.4,8.7s-9.2-2.5-9.4-8.4h5.9c.2,2.1,1.8,2.8,3.4,2.8s3.6-1.4,3.6-3.3-1.4-3.1-3.4-3.1-2.8.8-3.2,1.5h-5.6l2.9-14h14v5.6h-9.6l-.6,3c.9-.5,1.9-.8,3.4-.8,4.2,0,8,2.8,8,8h0Z"/>
          <path class="st12" d="M168.3,100.3h6.6l5.5,8.2,5.5-8.2h6.6v24h-5.8v-15.8l-6,9.2h-.5l-6-9.2v15.8h-5.8v-24h0Z"/>
        </g>
        <rect class="st13" x="111" y="130.1" width="83.6" height="3.2"/>
        <path class="st9" d="M6.2,144.5c2.3,3.8,10.6,13.1,16.2,18,2.1,1.9,4.5,3.5,7.2,2.7l49.5-15.7c2.3-.7,4.2-2.1,6.4-5.1l14.3-33.2c2.8-4.3-.4-10.1-5.5-9.7h-.5l-33.4,5.2c-3.8.6-7.7,0-11.2-1.7l-27.4-13.3c-4.2-2-9,.9-9.2,5.6l-7.2,43.5c0,1.3.3,2.5.9,3.6h0Z"/>
        <g>
          <path class="st6" d="M6.8,134.2s-10.3,5-5,17.7c0,0,3.6,9.9,13.6,11.9,0,0,7.8,1.9,12.5-6l-21-23.7h0Z"/>
          <path class="st6" d="M28,143.8c-3.6-8-12-13.1-18.6-11.1-6.7,2.1-8.8,10.5-4.8,18.6,3.9,7.8,12.1,12.3,18.4,10.3,6.2-2.1,8.5-9.9,5-17.8h0Z"/>
          <path class="st1" d="M5.9,134.7c-1.6,2.1-2.9,4.4-3.3,7-.3,3.1.3,6.2,1.7,9,0,.2.2.3.3.5,1.1,2.2,2.5,4.2,4.4,5.9,1.6,1.5,3.6,2.9,5.6,3.8,1.9.8,4,1.2,6,1.1,1.3,0,2.6-.4,3.8-.9,1.3-.6,2.3-1.5,3.1-2.6"/>
          <path class="st5" d="M24.8,145c2.6,5.7.9,11.5-3.6,13-4.6,1.5-10.6-1.8-13.4-7.5-2.9-5.8-1.3-11.9,3.5-13.4,4.8-1.5,10.9,2.1,13.5,7.9h0Z"/>
          <g>
            <path class="st1" d="M16.2,140.1l-3.2,1.9c-1.4.9-1.9,2.7-1,4.1h0c.9,1.5,2.7,1.9,4.1,1.1l.7-.4c1.4-.9,3.2-.4,4.1,1h0c.9,1.4.4,3.2-1,4.1l-3.6,2.2"/>
            <line class="st1" x1="11.8" y1="141.2" x2="19.5" y2="153.9"/>
            <line class="st1" x1="13.2" y1="140.3" x2="20.9" y2="153"/>
          </g>
          <line class="st1" x1="2.7" y1="141.1" x2=".4" y2="142.6"/>
          <line class="st1" x1="2.8" y1="146.2" x2=".4" y2="147.6"/>
          <line class="st1" x1="4.2" y1="150.5" x2="2" y2="152.3"/>
          <line class="st1" x1="5.1" y1="152.3" x2="3" y2="154.3"/>
          <line class="st1" x1="7.4" y1="155.8" x2="5.3" y2="157.6"/>
          <line class="st0" x1="15" y1="161.2" x2="13" y2="163.1"/>
          <line class="st0" x1="18.9" y1="162.1" x2="17.2" y2="164"/>
          <path class="st8" d="M25.6,158.3c0,.4-.3.7-.7.7s-.7-.3-.7-.7.3-.7.7-.7.7.3.7.7Z"/>
          <path class="st8" d="M28.3,153.2c0,.4-.3.7-.7.7s-.7-.3-.7-.7.3-.7.7-.7.7.3.7.7Z"/>
          <path class="st8" d="M20,160c0,.4-.3.7-.7.7s-.7-.3-.7-.7.3-.7.7-.7.7.3.7.7Z"/>
          <path class="st8" d="M14.2,158.6c0,.4-.3.7-.7.7s-.7-.3-.7-.7.3-.7.7-.7.7.3.7.7Z"/>
          <path class="st8" d="M9.4,154.8c0,.4-.3.7-.7.7s-.7-.3-.7-.7.3-.7.7-.7.7.3.7.7Z"/>
          <path class="st8" d="M4.8,149.4c0-.3.1-.7.5-.8.3,0,.7.1.8.5,0,.3-.1.7-.5.8s-.7-.1-.8-.5Z"/>
          <path class="st8" d="M3.9,143.2c0-.3.1-.7.5-.8s.7.1.8.5-.1.7-.5.8c-.3,0-.7-.1-.8-.5Z"/>
          <path class="st8" d="M6,137.5c0-.3.1-.7.5-.8.3,0,.7.1.8.5,0,.3-.1.7-.5.8s-.7-.1-.8-.5Z"/>
          <path class="st8" d="M10.6,134.5c0-.4.4-.6.7-.6s.6.4.6.7-.4.6-.7.6-.6-.4-.6-.7Z"/>
          <path class="st8" d="M16.1,135.2c0-.4.4-.6.7-.6s.6.4.6.7-.4.6-.7.6-.6-.4-.6-.7Z"/>
          <path class="st8" d="M27.9,147.3c0,.4-.3.7-.7.7s-.7-.3-.7-.7.3-.7.7-.7.7.3.7.7Z"/>
          <path class="st8" d="M25.8,142.1c0,.4-.3.7-.7.7s-.7-.3-.7-.7.3-.7.7-.7.7.3.7.7Z"/>
          <path class="st8" d="M22.3,137.9c0,.4-.3.7-.7.7s-.7-.3-.7-.7.3-.7.7-.7.7.3.7.7Z"/>
        </g>
        <g>
          <path class="st6" d="M.6,124.2l1.2,2c.4.6,1.3,1,2,1.3,2.2.9,4.7.8,7,.3,5.9-1.1,11.4-3.8,15.9-7.7,1.6-1.3,3.1-2.9,4.2-4.8.9-1.5,1.8-3.9.9-5.6l-1.1-2.1L.6,124.2Z"/>
          <path class="st7" d="M18.9,118.8c-6.8,4.1-13.5,4.6-14.5,1.5-.9-2.6,2.9-6.9,8.1-9.8,5-2.8,10.7-3.9,13-2.3,2.7,1.9,0,6.7-6.5,10.6h0Z"/>
          <path class="st6" d="M29.1,106.1c-3.4-1.9-10.9-.4-17.6,3.3C4.7,113.2-.7,119,0,122.9c.9,4.8,10.5,4.4,20.6-1.7,9.5-5.8,12.7-12.5,8.5-14.9h0Z"/>
          <path class="st2" d="M.9,124.7c2.9,2.6,11.1,1.5,19.6-3.6,8-4.8,11.5-10.5,9.9-13.5"/>
          <path class="st5" d="M18.9,118.8c-6.8,4.1-13.5,4.6-14.5,1.5-.9-2.6,2.9-6.9,8.1-9.8,5-2.8,10.7-3.9,13-2.3,2.7,1.9,0,6.7-6.5,10.6h0Z"/>
          <g>
            <path class="st1" d="M8.9,115.5l1,2c.5.9,1.9,1,3.4.3h0c1.4-.8,2.1-2.1,1.7-2.9l-.2-.4c-.5-.9.3-2.1,1.7-2.9h0c1.4-.7,2.9-.6,3.4.3l1.1,2.3"/>
            <line class="st1" x1="8.9" y1="118.4" x2="21.6" y2="111.9"/>
            <line class="st1" x1="8.4" y1="117.5" x2="21.1" y2="111"/>
          </g>
          <line class="st1" x1="25.2" y1="117.8" x2="26.2" y2="120.4"/>
          <line class="st1" x1="18.7" y1="122.2" x2="19.7" y2="124.8"/>
          <line class="st1" x1="10.9" y1="125.4" x2="11.7" y2="127.7"/>
          <line class="st1" x1="8.1" y1="125.9" x2="8.9" y2="128.1"/>
          <line class="st1" x1="3.7" y1="125.9" x2="4.3" y2="127.7"/>
          <g>
            <path class="st8" d="M17.7,120.9c.1.3,0,.6-.2.7s-.6,0-.7-.2,0-.6.2-.7.6,0,.7.2Z"/>
            <path class="st8" d="M11.2,123.4c.1.3,0,.6-.2.7s-.6,0-.7-.2,0-.6.2-.7.6,0,.7.2Z"/>
            <path class="st8" d="M4.9,123.4c.1.3,0,.6-.2.7s-.6,0-.7-.2,0-.6.2-.7c.3-.1.6,0,.7.2Z"/>
            <path class="st8" d="M2.2,120.4c.1.3,0,.6-.2.7s-.6,0-.7-.2c-.1-.3,0-.6.2-.7.2-.1.6,0,.7.2Z"/>
            <path class="st8" d="M4.1,116.3c.1.2,0,.5-.2.6s-.5,0-.6-.2,0-.5.2-.6.5,0,.6.2Z"/>
            <path class="st8" d="M7.7,112.9c.1.2,0,.5-.2.6s-.5,0-.6-.2,0-.5.2-.6.5,0,.6.2Z"/>
            <path class="st8" d="M12,109.9c.1.2,0,.5-.2.6s-.5,0-.6-.2,0-.5.2-.6.5,0,.6.2Z"/>
            <path class="st8" d="M17.1,107.6c.1.2,0,.5-.2.6s-.5,0-.6-.2,0-.5.2-.6.5,0,.6.2Z"/>
            <path class="st8" d="M22.4,106.4c.1.2,0,.5-.2.6s-.5,0-.6-.2,0-.5.2-.6.5,0,.6.2Z"/>
            <path class="st8" d="M23.9,117c.1.3,0,.6-.2.7s-.6,0-.7-.2,0-.6.2-.7.6,0,.7.2Z"/>
            <path class="st8" d="M28.1,112.5c.1.3,0,.6-.2.7s-.6,0-.7-.2,0-.6.2-.7.6,0,.7.2Z"/>
            <path class="st8" d="M28.3,107.4c.1.3,0,.7-.3.8s-.7,0-.8-.3,0-.7.3-.8.7,0,.8.3Z"/>
          </g>
        </g>
        <g>
          <path class="st3" d="M60.6,107.2h-18.1c-2.3,0-4.2,1.9-4.2,4.2v16.5c0,1.5,1.2,2.7,2.7,2.7s2.7-1.2,2.7-2.7v-14.3h1.2v43.7c0,1.5,1.2,2.7,2.7,2.7h0c1.5,0,2.7-1.2,2.7-2.7v-23.1h2.2v23.1c0,1.5,1.2,2.7,2.7,2.7h0c1.5,0,2.7-1.2,2.7-2.7v-43.7h1.3v14.3c0,1.5,1.2,2.7,2.7,2.7s2.7-1.2,2.7-2.7v-16.5c0-2.3-1.9-4.2-4.2-4.2h.3Z"/>
          <path class="st3" d="M51.6,104.5c2.7,0,5-4,5-6.8s-2.2-5-5-5-5,2.2-5,5,2.2,6.8,5,6.8h0Z"/>
        </g>
      </g>
    </g>
  </g>
</svg>