<?xml version="1.0" encoding="UTF-8"?>
<svg id="Layer_2" xmlns="http://www.w3.org/2000/svg" version="1.1" viewBox="0 0 201 165.5">
  <!-- Generator: Adobe Illustrator 30.0.0, SVG Export Plug-In . SVG Version: 2.1.1 Build 123)  -->
  <defs>
    <style>
      .st0, .st1, .st2, .st3, .st4, .st5 {
        fill: none;
      }

      .st1, .st2, .st3, .st6, .st7 {
        stroke: #172747;
      }

      .st1, .st2, .st3, .st6, .st7, .st4, .st5 {
        stroke-miterlimit: 10;
      }

      .st1, .st7, .st5 {
        stroke-width: .4px;
      }

      .st2, .st6, .st4 {
        stroke-width: .4px;
      }

      .st3 {
        stroke-width: .6px;
      }

      .st8 {
        fill: #f8ba29;
      }

      .st9 {
        fill: #d18c07;
      }

      .st10 {
        fill: #fff;
      }

      .st11 {
        fill: #dc8600;
      }

      .st6, .st7 {
        fill: #fdfeff;
      }

      .st12 {
        fill: #071c35;
      }

      .st4, .st5 {
        stroke: #0c2244;
      }

      .st13 {
        fill: #03185a;
      }

      .st14 {
        fill: #7bbafd;
      }

      .st15 {
        fill: #ead407;
      }

      .st16 {
        fill: #ed473e;
      }
    </style>
  </defs>
  <g>
    <g>
      <path class="st14" d="M13.4,41.9v-.9h-5.3v.9c0,.5.4.9.9.9h0v26.1h-.8v1.1h5.3v-1.1h-.8v-26.1h0c.5,0,.9-.4.9-.9Z"/>
      <line class="st3" x1="8.9" y1="69" x2="12.6" y2="69"/>
      <line class="st3" x1="8.9" y1="42.8" x2="12.6" y2="42.8"/>
    </g>
    <g>
      <line class="st3" x1="10.1" y1="44.1" x2="10.1" y2="67"/>
      <line class="st3" x1="11.5" y1="44.1" x2="11.5" y2="67"/>
    </g>
  </g>
  <g>
    <path class="st13" d="M147.2,32.7c0,9.2-6.8,14.6-15.6,14.6s-15.3-4.2-15.7-14h9.8c.3,3.5,3.1,4.8,5.7,4.8s5.9-2.4,5.9-5.4-2.4-5.2-5.7-5.2-4.8,1.4-5.3,2.5h-9.2l5-23.4h23.4v9.2h-16l-1,5.1c1.4-.9,3.2-1.4,5.7-1.4,7,0,13.2,4.8,13.2,13.3h0Z"/>
    <path class="st13" d="M151.9,6.5h11.1l9.2,13.7,9.2-13.7h11.1v40.1h-9.7v-26.5l-10,15.3h-.9l-10-15.3v26.4h-9.7V6.5h-.2Z"/>
    <g>
      <path class="st13" d="M120.9,59.2h1.1v7.9h-1.1v-7.9Z"/>
      <path class="st13" d="M123.3,64.2c0-1.7,1.1-3,2.6-3s1.6.5,2,1v-1h1.1v5.7h-1.1v-1c-.5.7-1,1-2,1-1.5,0-2.6-1.2-2.6-3h0ZM127.9,64.2c0-1-.8-1.8-1.7-1.8s-1.6.8-1.6,1.8.7,1.8,1.6,1.8,1.7-.8,1.7-1.8Z"/>
      <path class="st13" d="M131,65v-2.4h-1v-1h1v-1.2l1.1-.3v1.5h2.3v1h-2.3v2.4c0,.9.4,1.2,1,1.2s.8,0,1.2-.3l.2,1c-.3.2-1,.5-1.6.5-1.1,0-2-.7-2-2.3h0Z"/>
      <path class="st13" d="M137.1,59.6c0,.5-.3.7-.8.7s-.8-.3-.8-.7.3-.7.8-.7.8.3.8.7ZM135.8,61.5h1.1v5.7h-1.1v-5.7Z"/>
      <path class="st13" d="M138.3,61.5h1.1v1c.4-.7,1-1,1.9-1,1.2,0,2,.9,2,2.2v3.6h-1.1v-3.3c0-.9-.4-1.3-1.2-1.3s-1.5.7-1.5,1.7v3h-1.1v-5.7h0Z"/>
      <path class="st13" d="M150.5,64.2c0,1.7-1.2,3-3,3s-3-1.2-3-3,1.3-3,3-3,3,1.2,3,3ZM145.7,64.2c0,1,.8,1.8,1.8,1.8s1.8-.8,1.8-1.8-.8-1.8-1.8-1.8-1.8.8-1.8,1.8Z"/>
      <path class="st13" d="M155.1,64.6h-3.4v-1h3.4v1Z"/>
      <path class="st13" d="M162.4,64.2c0,1.7-1.2,3-3,3s-3-1.2-3-3,1.3-3,3-3,3,1.2,3,3ZM157.7,64.2c0,1,.8,1.8,1.8,1.8s1.8-.8,1.8-1.8-.8-1.8-1.8-1.8-1.8.8-1.8,1.8Z"/>
      <path class="st13" d="M169.6,67.1h-1.3l-.6-1.9-.6-2.6h-.2l-.6,2.6-.6,1.9h-1.3l-1.6-5.7h1.1l.5,1.8.7,2.6.7-2.6.5-1.8h1.4l.5,1.8.7,2.6.7-2.6.5-1.8h1.1l-1.6,5.7h0Z"/>
      <path class="st13" d="M172.2,61.5h1.1v1c.4-.7,1-1,1.9-1,1.2,0,2,.9,2,2.2v3.6h-1.1v-3.3c0-.9-.4-1.3-1.2-1.3s-1.5.7-1.5,1.7v3h-1.1v-5.7h0Z"/>
      <path class="st13" d="M178.4,64.2c0-1.7,1.2-3,3-3s3,1.4,2.9,3.2h-4.6c0,1,.9,1.6,1.8,1.6s1.2-.3,1.5-.9h1.2c-.5,1.2-1.5,1.8-2.8,1.8s-3-1.2-3-3h0ZM183,63.6c-.2-.8-.8-1.3-1.6-1.3s-1.4.6-1.6,1.3h3.3,0Z"/>
      <path class="st13" d="M185.2,64.2c0-1.7,1.1-3,2.6-3s1.6.5,2,1v-3.2h1.1v7.9h-1.1v-1c-.4.7-1,1-2,1-1.5,0-2.6-1.2-2.6-3h0ZM189.8,64.2c0-1-.8-1.8-1.7-1.8s-1.6.8-1.6,1.8.7,1.8,1.6,1.8,1.7-.8,1.7-1.8Z"/>
    </g>
    <g>
      <path class="st12" d="M128.3,77.8v1h-1.1v-7.9h1.1v3.2c.5-.7,1-1,2-1,1.4,0,2.6,1.2,2.6,3s-1,3-2.6,3-1.5-.5-2-1h0ZM131.7,75.9c0-1-.7-1.8-1.6-1.8s-1.7.8-1.7,1.8.8,1.8,1.7,1.8,1.6-.8,1.6-1.8Z"/>
      <path class="st12" d="M139.1,73.1v5.7h-1.1v-1c-.4.7-1,1-1.9,1-1.2,0-2-.9-2-2.2v-3.6h1.1v3.3c0,.9.4,1.3,1.2,1.3s1.5-.7,1.5-1.7v-3s1.1,0,1.1,0Z"/>
      <path class="st12" d="M140.2,77h1.2c.2.7.7.9,1.6.9s1.2-.3,1.2-.7-.5-.6-1.4-.8c-1.6-.4-2.2-.7-2.2-1.6s1-1.8,2.4-1.8,2.3.7,2.5,1.7h-1.1c-.2-.5-.6-.7-1.3-.7s-1.2.3-1.2.7.4.5,1.3.7c1.5.4,2.4.7,2.4,1.7s-1,1.8-2.4,1.8-2.6-.7-2.8-1.9h-.2Z"/>
      <path class="st12" d="M147.8,71.2c0,.5-.3.7-.8.7s-.8-.3-.8-.7.3-.7.8-.7.8.3.8.7ZM146.5,73.1h1.1v5.7h-1.1v-5.7Z"/>
      <path class="st12" d="M148.9,73.1h1.1v1c.4-.7,1-1,1.9-1,1.2,0,2,.9,2,2.2v3.6h-1.1v-3.3c0-.9-.4-1.3-1.2-1.3s-1.5.7-1.5,1.7v3h-1.1v-5.7h0Z"/>
      <path class="st12" d="M155.1,75.9c0-1.7,1.2-3,3-3s3,1.4,2.9,3.2h-4.6c0,1,.9,1.6,1.8,1.6s1.2-.3,1.5-.9h1.2c-.5,1.2-1.5,1.8-2.8,1.8s-3-1.2-3-3h0ZM159.8,75.3c-.2-.8-.8-1.3-1.6-1.3s-1.4.6-1.6,1.3h3.3,0Z"/>
      <path class="st12" d="M161.9,77h1.2c.2.7.7.9,1.6.9s1.2-.3,1.2-.7-.5-.6-1.4-.8c-1.6-.4-2.2-.7-2.2-1.6s1-1.8,2.4-1.8,2.3.7,2.5,1.7h-1.1c-.2-.5-.6-.7-1.3-.7s-1.2.3-1.2.7.4.5,1.3.7c1.5.4,2.4.7,2.4,1.7s-1,1.8-2.4,1.8-2.6-.7-2.8-1.9h-.2Z"/>
      <path class="st12" d="M167.9,77h1.2c.2.7.7.9,1.6.9s1.2-.3,1.2-.7-.5-.6-1.4-.8c-1.6-.4-2.2-.7-2.2-1.6s1-1.8,2.4-1.8,2.3.7,2.5,1.7h-1.1c-.2-.5-.6-.7-1.3-.7s-1.2.3-1.2.7.4.5,1.3.7c1.5.4,2.4.7,2.4,1.7s-1,1.8-2.4,1.8-2.6-.7-2.8-1.9h-.2Z"/>
      <path class="st12" d="M174,75.9c0-1.7,1.2-3,3-3s3,1.4,2.9,3.2h-4.6c0,1,.9,1.6,1.8,1.6s1.2-.3,1.5-.9h1.2c-.5,1.2-1.5,1.8-2.8,1.8s-3-1.2-3-3h0ZM178.6,75.3c-.2-.8-.8-1.3-1.6-1.3s-1.4.6-1.6,1.3h3.3,0Z"/>
      <path class="st12" d="M180.7,77h1.2c.2.7.7.9,1.6.9s1.2-.3,1.2-.7-.5-.6-1.4-.8c-1.6-.4-2.2-.7-2.2-1.6s1-1.8,2.4-1.8,2.3.7,2.5,1.7h-1.1c-.2-.5-.6-.7-1.3-.7s-1.2.3-1.2.7.3.5,1.3.7c1.5.4,2.4.7,2.4,1.7s-1,1.8-2.4,1.8-2.6-.7-2.8-1.9h-.2Z"/>
    </g>
    <g>
      <path class="st13" d="M124.4,154.3h-2.6l-1.1-3.7-1.1-5h-.3l-1.1,5-1.1,3.7h-2.6l-3.1-11h2.2l1,3.5,1.3,5.2,1.3-5.2,1-3.5h2.7l.9,3.5,1.3,5.1,1.3-5.1.9-3.5h2.3l-3.1,11h-.1Z"/>
      <path class="st13" d="M139.8,148.8c0,3.3-2.5,5.7-5.7,5.7s-5.7-2.4-5.7-5.7,2.5-5.8,5.7-5.8,5.7,2.4,5.7,5.8ZM130.7,148.8c0,2.1,1.5,3.6,3.4,3.6s3.4-1.5,3.4-3.6-1.5-3.6-3.4-3.6-3.4,1.5-3.4,3.6Z"/>
      <path class="st13" d="M142.1,143.3h2.3v2.1c.7-1.5,1.9-2.4,3.7-2.4s.5,0,.7,0v2.3h-.7c-2.1,0-3.6,1.1-3.6,3.9v5h-2.3v-11h0Z"/>
      <path class="st13" d="M152.8,148l4.8-4.8h2.9l-5.4,5.2,5.8,5.8h-2.9l-5.2-5v5h-2.3v-15.4h2.3v9.1h0Z"/>
      <path class="st13" d="M161.2,148.8c0-3.3,2.3-5.8,5.7-5.8s5.8,2.7,5.6,6.4h-8.9c.1,2,1.6,3.1,3.4,3.1s2.4-.5,2.9-1.6h2.3c-.9,2.5-2.9,3.6-5.3,3.6-3.4,0-5.7-2.4-5.7-5.7h0ZM170,147.5c-.3-1.5-1.5-2.5-3.1-2.5s-2.9,1.1-3.2,2.5h6.4,0Z"/>
      <path class="st13" d="M174.6,143.3h2.3v2.1c.7-1.5,1.9-2.4,3.7-2.4s.5,0,.7,0v2.3h-.7c-2.1,0-3.6,1.1-3.6,3.9v5h-2.3v-11h0Z"/>
      <path class="st13" d="M182.5,150.7h2.3c.3,1.2,1.2,1.8,3.1,1.8s2.3-.5,2.3-1.3-1-1.1-2.9-1.5c-3.1-.7-4.4-1.4-4.4-3.2s1.9-3.5,4.6-3.5,4.4,1.3,4.8,3.4h-2.3c-.3-.9-1.1-1.3-2.5-1.3s-2.3.5-2.3,1.3.7.9,2.6,1.3c2.9.7,4.7,1.2,4.7,3.4s-2.1,3.5-4.7,3.5-5-1.4-5.4-3.8h0Z"/>
    </g>
    <g>
      <path class="st13" d="M118.1,119.6c.3,1.9,1.5,2.7,3.6,2.7s3.3-1,3.3-2.5-.7-2-2.9-2h-3.1v-5.1h2.6c1.6,0,2.8-.3,2.8-1.9s-.7-2.4-3-2.4-2.7.6-3,2.4h-5.9c.3-5.2,4.2-8,9.1-8s8.7,3.1,8.7,7.1-.9,3.8-2.5,4.8c2.1.9,3.3,2.9,3.3,5.5,0,4.8-3.6,7.5-9.1,7.5s-9.3-2.7-9.6-8.2h5.9-.2Z"/>
      <path class="st13" d="M140.5,124.4c0,1.9-1.5,3.4-3.6,3.4s-3.6-1.4-3.6-3.4,1.5-3.4,3.6-3.4,3.6,1.4,3.6,3.4Z"/>
      <path class="st13" d="M162.2,119c0,5.4-4,8.7-9.4,8.7s-9.2-2.5-9.4-8.4h5.9c.2,2.1,1.8,2.8,3.4,2.8s3.6-1.4,3.6-3.3-1.4-3.1-3.4-3.1-2.8.8-3.2,1.5h-5.6l2.9-14h14v5.6h-9.6l-.6,3c.9-.5,1.9-.8,3.4-.8,4.2,0,8,2.8,8,8h0Z"/>
      <path class="st13" d="M168.3,103.3h6.6l5.5,8.2,5.5-8.2h6.6v24h-5.8v-15.8l-6,9.2h-.5l-6-9.2v15.8h-5.8v-24h-.1Z"/>
    </g>
    <rect class="st14" x="111" y="133.1" width="83.6" height="3.2"/>
    <rect class="st16" x="114.8" y="51.2" width="79.7" height="3.1"/>
    <g>
      <path class="st8" d="M22.8,133.1s-8.9,4.3-4.3,15.3c0,0,3.1,8.6,11.8,10.3,0,0,6.8,1.6,10.8-5.2l-18.2-20.5h0Z"/>
      <path class="st8" d="M41.1,141.5c-3.1-6.9-10.4-11.3-16.1-9.6-5.8,1.8-7.6,9.1-4.2,16.1,3.4,6.8,10.5,10.7,15.9,8.9,5.4-1.8,7.4-8.6,4.3-15.4h0Z"/>
      <path class="st2" d="M22,133.6c-1.4,1.8-2.5,3.8-2.9,6.1-.3,2.7.3,5.4,1.5,7.8,0,.2.2.3.3.4,1,1.9,2.2,3.6,3.8,5.1,1.4,1.3,3.1,2.5,4.8,3.3,1.6.7,3.5,1,5.2,1,1.1,0,2.3-.3,3.3-.8,1.1-.5,2-1.3,2.7-2.3"/>
      <path class="st6" d="M38.3,142.5c2.3,4.9.8,10-3.1,11.3-4,1.3-9.2-1.6-11.6-6.5-2.5-5-1.1-10.3,3-11.6,4.2-1.3,9.4,1.8,11.7,6.8h0Z"/>
      <g>
        <path class="st2" d="M30.9,138.2l-2.8,1.6c-1.2.8-1.6,2.3-.9,3.6h0c.8,1.3,2.3,1.6,3.6,1l.6-.3c1.2-.8,2.8-.3,3.6.9h0c.8,1.2.3,2.8-.9,3.6l-3.1,1.9"/>
        <line class="st2" x1="27.1" y1="139.2" x2="33.7" y2="150.2"/>
        <line class="st2" x1="28.3" y1="138.4" x2="35" y2="149.4"/>
      </g>
      <line class="st2" x1="19.2" y1="139.1" x2="17.2" y2="140.4"/>
      <line class="st2" x1="19.3" y1="143.5" x2="17.2" y2="144.7"/>
      <line class="st2" x1="20.5" y1="147.3" x2="18.6" y2="148.8"/>
      <line class="st2" x1="21.3" y1="148.8" x2="19.5" y2="150.5"/>
      <line class="st2" x1="23.3" y1="151.8" x2="21.5" y2="153.4"/>
      <line class="st0" x1="29.9" y1="156.5" x2="28.1" y2="158.2"/>
      <line class="st0" x1="33.2" y1="157.3" x2="31.8" y2="158.9"/>
      <path class="st11" d="M39,154c0,.3-.3.6-.6.6s-.6-.3-.6-.6.3-.6.6-.6.6.3.6.6Z"/>
      <path class="st11" d="M41.4,149.6c0,.3-.3.6-.6.6s-.6-.3-.6-.6.3-.6.6-.6.6.3.6.6Z"/>
      <path class="st11" d="M34.2,155.5c0,.3-.3.6-.6.6s-.6-.3-.6-.6.3-.6.6-.6.6.3.6.6Z"/>
      <path class="st11" d="M29.2,154.3c0,.3-.3.6-.6.6s-.6-.3-.6-.6.3-.6.6-.6.6.3.6.6Z"/>
      <path class="st11" d="M25,151c0,.3-.3.6-.6.6s-.6-.3-.6-.6.3-.6.6-.6.6.3.6.6Z"/>
      <path class="st11" d="M21,146.3c0-.3,0-.6.4-.7.3,0,.6,0,.7.4,0,.3,0,.6-.4.7s-.6,0-.7-.4Z"/>
      <path class="st11" d="M20.2,140.9c0-.3,0-.6.4-.7s.6,0,.7.4,0,.6-.4.7c-.3,0-.6,0-.7-.4Z"/>
      <path class="st11" d="M22.1,136c0-.3,0-.6.4-.7.3,0,.6,0,.7.4,0,.3,0,.6-.4.7s-.6,0-.7-.4Z"/>
      <path class="st11" d="M26,133.4c0-.3.3-.5.6-.5s.5.3.5.6-.3.5-.6.5-.5-.3-.5-.6Z"/>
      <path class="st11" d="M30.8,134c0-.3.3-.5.6-.5s.5.3.5.6-.3.5-.6.5-.5-.3-.5-.6Z"/>
      <path class="st11" d="M41,144.5c0,.3-.3.6-.6.6s-.6-.3-.6-.6.3-.6.6-.6.6.3.6.6Z"/>
      <path class="st11" d="M39.2,140c0,.3-.3.6-.6.6s-.6-.3-.6-.6.3-.6.6-.6.6.3.6.6Z"/>
      <path class="st11" d="M36.2,136.3c0,.3-.3.6-.6.6s-.6-.3-.6-.6.3-.6.6-.6.6.3.6.6Z"/>
    </g>
    <g>
      <path class="st8" d="M17.4,124.5l1,1.7c.3.5,1.1.9,1.7,1.1,1.9.8,4.1.7,6.1.3,5.1-1,9.9-3.3,13.8-6.7,1.4-1.1,2.7-2.5,3.6-4.2.8-1.3,1.6-3.4.8-4.8l-1-1.8-26.1,14.4Z"/>
      <path class="st10" d="M33.2,119.8c-5.9,3.6-11.7,4-12.6,1.3-.8-2.3,2.5-6,7-8.5,4.3-2.4,9.3-3.4,11.3-2,2.3,1.6,0,5.8-5.6,9.2,0,0,0,0,0,0Z"/>
      <path class="st8" d="M42.1,108.8c-2.9-1.6-9.4-.3-15.2,2.9-5.9,3.3-10.6,8.3-10,11.7.8,4.2,9.1,3.8,17.8-1.5,8.2-5,11-10.8,7.4-12.9h0v-.2Z"/>
      <path class="st4" d="M17.6,124.9c2.5,2.3,9.6,1.3,17-3.1,6.9-4.2,10-9.1,8.6-11.7"/>
      <path class="st6" d="M33.2,119.8c-5.9,3.6-11.7,4-12.6,1.3-.8-2.3,2.5-6,7-8.5,4.3-2.4,9.3-3.4,11.3-2,2.3,1.6,0,5.8-5.6,9.2,0,0,0,0,0,0Z"/>
      <g>
        <path class="st2" d="M24.6,116.9l.9,1.7c.4.8,1.6.9,2.9.3h0c1.2-.7,1.8-1.8,1.5-2.5l-.2-.3c-.4-.8.3-1.8,1.5-2.5h0c1.2-.6,2.5-.5,2.9.3l1,2"/>
        <line class="st2" x1="24.6" y1="119.5" x2="35.6" y2="113.8"/>
        <line class="st2" x1="24.1" y1="118.7" x2="35.1" y2="113"/>
      </g>
      <line class="st2" x1="38.7" y1="118.9" x2="39.6" y2="121.2"/>
      <line class="st2" x1="33.1" y1="122.7" x2="33.9" y2="125"/>
      <line class="st2" x1="26.3" y1="125.5" x2="27" y2="127.5"/>
      <line class="st2" x1="23.9" y1="125.9" x2="24.6" y2="127.9"/>
      <line class="st2" x1="20.1" y1="125.9" x2="20.6" y2="127.5"/>
      <g>
        <path class="st11" d="M32.2,121.6c0,.3,0,.5-.2.6s-.5,0-.6-.2,0-.5.2-.6.5,0,.6.2Z"/>
        <path class="st11" d="M26.6,123.8c0,.3,0,.5-.2.6s-.5,0-.6-.2,0-.5.2-.6.5,0,.6.2Z"/>
        <path class="st11" d="M21.1,123.8c0,.3,0,.5-.2.6s-.5,0-.6-.2,0-.5.2-.6c.3,0,.5,0,.6.2Z"/>
        <path class="st11" d="M18.8,121.2c0,.3,0,.5-.2.6s-.5,0-.6-.2c0-.3,0-.5.2-.6s.5,0,.6.2Z"/>
        <path class="st11" d="M20.4,117.6c0,.2,0,.4-.2.5s-.4,0-.5-.2,0-.4.2-.5.4,0,.5.2Z"/>
        <path class="st11" d="M23.5,114.7c0,.2,0,.4-.2.5s-.4,0-.5-.2,0-.4.2-.5.4,0,.5.2Z"/>
        <path class="st11" d="M27.3,112.1c0,.2,0,.4-.2.5s-.4,0-.5-.2,0-.4.2-.5.4,0,.5.2Z"/>
        <path class="st11" d="M31.7,110.1c0,.2,0,.4-.2.5s-.4,0-.5-.2,0-.4.2-.5.4,0,.5.2Z"/>
        <path class="st11" d="M36.3,109.1c0,.2,0,.4-.2.5s-.4,0-.5-.2,0-.4.2-.5.4,0,.5.2Z"/>
        <path class="st11" d="M37.6,118.2c0,.3,0,.5-.2.6s-.5,0-.6-.2,0-.5.2-.6.5,0,.6.2Z"/>
        <path class="st11" d="M41.2,114.3c0,.3,0,.5-.2.6s-.5,0-.6-.2,0-.5.2-.6.5,0,.6.2Z"/>
        <path class="st11" d="M41.4,109.9c0,.3,0,.6-.3.7s-.6,0-.7-.3,0-.6.3-.7.6,0,.7.3Z"/>
      </g>
    </g>
    <g>
      <path class="st14" d="M73.3,104.4h-18.5c-2.3,0-4.3,1.9-4.3,4.3v16.8c0,1.5,1.2,2.8,2.8,2.8s2.8-1.2,2.8-2.8v-14.6h1.2v44.6c0,1.5,1.2,2.8,2.8,2.8h0c1.5,0,2.8-1.2,2.8-2.8v-23.6h2.2v23.6c0,1.5,1.2,2.8,2.8,2.8h0c1.5,0,2.8-1.2,2.8-2.8v-44.6h1.3v14.6c0,1.5,1.2,2.8,2.8,2.8s2.8-1.2,2.8-2.8v-16.8c0-2.3-1.9-4.3-4.3-4.3h.3-.1Z"/>
      <path class="st14" d="M64.1,101.6c2.8,0,5.1-4.1,5.1-6.9s-2.2-5.1-5.1-5.1-5.1,2.2-5.1,5.1,2.2,6.9,5.1,6.9h0Z"/>
    </g>
    <polygon class="st14" points="36.7 14.6 6.9 33.4 6.9 36.2 66.8 36.2 66.8 33.4 36.7 14.6"/>
    <polygon class="st10" points="14.1 32.4 59.7 32.4 36.8 18.3 14.1 32.4"/>
    <line class="st3" x1="16" y1="32.4" x2="37.8" y2="18.9"/>
    <path class="st3" d="M39.4,27.8c0,1.5-1.2,2.7-2.7,2.7s-2.7-1.2-2.7-2.7,1.2-2.7,2.7-2.7,2.7,1.2,2.7,2.7Z"/>
    <polygon class="st14" points="65.7 39.3 65.7 36.2 8.1 36.2 8.1 39.3 6.9 39.3 6.9 41 66.8 41 66.8 39.3 65.7 39.3"/>
    <line class="st3" x1="8.1" y1="36.2" x2="65.7" y2="36.2"/>
    <line class="st3" x1="8.1" y1="39.3" x2="65.7" y2="39.3"/>
    <g>
      <g>
        <path class="st14" d="M25.9,41.9v-.9h-5.3v.9c0,.5.4.9.9.9h0v26.1h-.8v1.1h5.3v-1.1h-.8v-26.1h0c.5,0,.9-.4.9-.9Z"/>
        <line class="st3" x1="21.4" y1="69" x2="25.1" y2="69"/>
        <line class="st3" x1="21.4" y1="42.8" x2="25.1" y2="42.8"/>
      </g>
      <g>
        <line class="st3" x1="22.5" y1="44.1" x2="22.5" y2="67"/>
        <line class="st3" x1="23.9" y1="44.1" x2="23.9" y2="67"/>
      </g>
    </g>
    <g>
      <g>
        <path class="st14" d="M54.2,41.9v-.9h-5.3v.9c0,.5.4.9.9.9h0v26.1h-.8v1.1h5.3v-1.1h-.8v-26.1h0c.5,0,.9-.4.9-.9Z"/>
        <line class="st3" x1="49.7" y1="69" x2="53.4" y2="69"/>
        <line class="st3" x1="49.7" y1="42.8" x2="53.4" y2="42.8"/>
      </g>
      <g>
        <line class="st3" x1="50.9" y1="44.1" x2="50.9" y2="67"/>
        <line class="st3" x1="52.2" y1="44.1" x2="52.2" y2="67"/>
      </g>
    </g>
    <g>
      <g>
        <path class="st14" d="M40,41.9v-.9h-5.3v.9c0,.5.4.9.9.9h0v26.1h-.8v1.1h5.3v-1.1h-.8v-26.1h0c.5,0,.9-.4.9-.9Z"/>
        <line class="st3" x1="35.5" y1="69" x2="39.2" y2="69"/>
        <line class="st3" x1="35.5" y1="42.8" x2="39.2" y2="42.8"/>
      </g>
      <g>
        <line class="st3" x1="36.7" y1="44.1" x2="36.7" y2="67"/>
        <line class="st3" x1="38.1" y1="44.1" x2="38.1" y2="67"/>
      </g>
    </g>
    <g>
      <g>
        <path class="st14" d="M65.8,41.9v-.9h-5.3v.9c0,.5.4.9.9.9h0v26.1h-.8v1.1h5.3v-1.1h-.8v-26.1h0c.5,0,.9-.4.9-.9Z"/>
        <line class="st3" x1="61.3" y1="69" x2="64.9" y2="69"/>
        <line class="st3" x1="61.3" y1="42.8" x2="64.9" y2="42.8"/>
      </g>
      <g>
        <line class="st3" x1="62.4" y1="44.1" x2="62.4" y2="67"/>
        <line class="st3" x1="63.8" y1="44.1" x2="63.8" y2="67"/>
      </g>
    </g>
    <rect class="st14" x="6.9" y="70.1" width="59.9" height="1.9"/>
    <rect class="st14" x="4.8" y="72" width="64.1" height="1.9"/>
    <line class="st3" x1="8.1" y1="70.1" x2="65.8" y2="70.1"/>
    <line class="st3" x1="6.9" y1="72" x2="66.8" y2="72"/>
    <line class="st3" x1="8.1" y1="41" x2="65.7" y2="41"/>
    <g>
      <path class="st8" d="M82.4,51.9s-7.9,3.8-3.9,13.7c0,0,2.8,7.7,10.5,9.3,0,0,6.1,1.5,9.6-4.6l-16.3-18.3Z"/>
      <path class="st8" d="M98.8,59.4c-2.8-6.2-9.3-10.2-14.4-8.6-5.2,1.6-6.8,8.2-3.7,14.4,3,6,9.4,9.5,14.3,7.9,4.8-1.6,6.6-7.7,3.9-13.8Z"/>
      <path class="st1" d="M81.7,52.3c-1.3,1.6-2.3,3.4-2.5,5.4-.3,2.4.3,4.8,1.3,7,0,.1.1.3.2.4.8,1.7,2,3.2,3.3,4.6,1.3,1.2,2.7,2.2,4.4,2.9,1.5.6,3,1,4.6.8,1,0,2-.3,2.9-.7,1-.5,1.8-1.2,2.4-2"/>
      <path class="st7" d="M96.3,60.3c2,4.4.7,8.9-2.8,10-3.6,1.2-8.2-1.4-10.4-5.8-2.2-4.5-1-9.2,2.7-10.4,3.7-1.2,8.4,1.6,10.5,6.1Z"/>
      <g>
        <path class="st1" d="M89.7,56.5l-2.5,1.5c-1.1.7-1.4,2.1-.8,3.2h0c.7,1.2,2.1,1.5,3.2.9l.5-.3c1.1-.7,2.5-.3,3.2.8h0c.7,1.1.3,2.5-.8,3.2l-2.8,1.7"/>
        <line class="st1" x1="86.2" y1="57.3" x2="92.2" y2="67.2"/>
        <line class="st1" x1="87.4" y1="56.6" x2="93.4" y2="66.5"/>
      </g>
      <line class="st1" x1="79.2" y1="57.2" x2="77.5" y2="58.4"/>
      <line class="st1" x1="79.3" y1="61.2" x2="77.5" y2="62.3"/>
      <line class="st1" x1="80.4" y1="64.6" x2="78.8" y2="65.9"/>
      <line class="st1" x1="81.1" y1="66" x2="79.5" y2="67.5"/>
      <line class="st1" x1="82.9" y1="68.6" x2="81.3" y2="70.1"/>
      <line class="st8" x1="88.8" y1="72.8" x2="87.2" y2="74.3"/>
      <line class="st8" x1="91.8" y1="73.5" x2="90.5" y2="75"/>
      <path class="st11" d="M97,70.6c0,.3-.2.5-.5.5s-.5-.2-.5-.5.2-.5.5-.5.5.2.5.5Z"/>
      <path class="st11" d="M99.1,66.6c0,.3-.2.5-.5.5s-.5-.2-.5-.5.2-.5.5-.5.5.2.5.5Z"/>
      <path class="st11" d="M92.7,71.9c0,.3-.2.5-.5.5s-.5-.2-.5-.5.2-.5.5-.5.5.2.5.5Z"/>
      <path class="st11" d="M88.2,70.8c0,.3-.2.5-.5.5s-.5-.2-.5-.5.2-.5.5-.5.5.2.5.5Z"/>
      <path class="st11" d="M84.4,67.8c0,.3-.2.5-.5.5s-.5-.2-.5-.5.2-.5.5-.5.5.2.5.5Z"/>
      <path class="st11" d="M80.9,63.7c0-.3.1-.6.4-.6.3,0,.6.1.6.4,0,.3-.1.6-.4.6s-.6-.1-.6-.4Z"/>
      <path class="st11" d="M80.2,58.8c0-.3.1-.6.4-.6s.6.1.6.4-.1.6-.4.6c-.3,0-.6-.1-.6-.4Z"/>
      <path class="st11" d="M81.8,54.4c0-.3.1-.6.4-.6.3,0,.6.1.6.4,0,.3-.1.6-.4.6s-.6-.1-.6-.4Z"/>
      <path class="st11" d="M85.4,52.1c0-.3.3-.5.6-.5.3,0,.5.3.5.6,0,.3-.3.5-.6.5-.3,0-.5-.3-.5-.6Z"/>
      <path class="st11" d="M89.6,52.6c0-.3.3-.5.6-.5.3,0,.5.3.5.6,0,.3-.3.5-.6.5-.3,0-.5-.3-.5-.6Z"/>
      <path class="st11" d="M98.8,62c0,.3-.2.5-.5.5s-.5-.2-.5-.5.2-.5.5-.5.5.2.5.5Z"/>
      <path class="st11" d="M97.2,58c0,.3-.2.5-.5.5s-.5-.2-.5-.5.2-.5.5-.5.5.2.5.5Z"/>
      <path class="st11" d="M94.4,54.8c0,.3-.2.5-.5.5s-.5-.2-.5-.5.2-.5.5-.5.5.2.5.5Z"/>
    </g>
    <g>
      <path class="st8" d="M77.7,44.2c0,0,.9,1.6.9,1.6.3.5,1.1.8,1.5,1,1.7.7,3.6.6,5.4.3,4.6-.8,8.8-3,12.3-6,1.2-1.1,2.4-2.3,3.2-3.7.7-1.1,1.4-3,.7-4.3l-.9-1.6-23.2,12.8Z"/>
      <path class="st10" d="M91.8,40c-5.3,3.2-10.5,3.5-11.3,1.2-.7-2,2.2-5.3,6.3-7.6,3.9-2.2,8.3-3,10-1.8,2.1,1.5,0,5.2-5,8.2Z"/>
      <path class="st9" d="M91.9,36.3"/>
      <path class="st15" d="M92,36.5"/>
      <path class="st8" d="M99.7,30.2c-2.6-1.5-8.5-.3-13.6,2.5-5.3,3-9.5,7.5-8.9,10.4.7,3.7,8.2,3.4,16-1.4,7.3-4.4,9.8-9.7,6.6-11.6Z"/>
      <path class="st5" d="M77.9,44.5c2.2,2,8.6,1.2,15.1-2.8,6.2-3.8,8.9-8.1,7.7-10.5"/>
      <path class="st7" d="M91.8,40c-5.3,3.2-10.5,3.5-11.3,1.2-.7-2,2.2-5.3,6.3-7.6,3.9-2.2,8.3-3,10-1.8,2.1,1.5,0,5.2-5,8.2Z"/>
      <g>
        <path class="st1" d="M84,37.4l.8,1.5c.3.7,1.5.8,2.6.2h0c1.1-.6,1.7-1.6,1.3-2.3l-.2-.3c-.3-.7.3-1.7,1.3-2.2h0c1.1-.6,2.2-.5,2.6.2l.9,1.7"/>
        <line class="st1" x1="84" y1="39.7" x2="93.8" y2="34.6"/>
        <line class="st1" x1="83.7" y1="39" x2="93.5" y2="33.9"/>
      </g>
      <line class="st1" x1="96.7" y1="39.2" x2="97.5" y2="41.3"/>
      <line class="st1" x1="91.6" y1="42.6" x2="92.4" y2="44.6"/>
      <line class="st1" x1="85.6" y1="45.1" x2="86.2" y2="46.9"/>
      <line class="st1" x1="83.4" y1="45.5" x2="84.1" y2="47.2"/>
      <line class="st1" x1="80" y1="45.4" x2="80.5" y2="46.9"/>
      <g>
        <path class="st11" d="M90.9,41.6c.1.2,0,.5-.2.6-.2.1-.5,0-.6-.2-.1-.2,0-.5.2-.6s.5,0,.6.2Z"/>
        <path class="st11" d="M85.9,43.5c.1.2,0,.5-.2.6-.2.1-.5,0-.6-.2-.1-.2,0-.5.2-.6.2-.1.5,0,.6.2Z"/>
        <path class="st11" d="M80.9,43.5c.1.2,0,.5-.2.6-.2.1-.5,0-.6-.2-.1-.2,0-.5.2-.6.2-.1.5,0,.6.2Z"/>
        <path class="st11" d="M78.8,41.2c.1.2,0,.5-.2.6-.2.1-.5,0-.6-.2-.1-.2,0-.5.2-.6.2-.1.5,0,.6.2Z"/>
        <path class="st11" d="M80.4,38.1c0,.2,0,.4-.1.4-.2,0-.4,0-.4-.1s0-.4.1-.4c.2,0,.4,0,.4.1Z"/>
        <path class="st11" d="M83.2,35.4c0,.2,0,.4-.1.4-.2,0-.4,0-.4-.1,0-.2,0-.4.1-.4.2,0,.4,0,.4.1Z"/>
        <path class="st11" d="M86.5,33.1c0,.2,0,.4-.1.4-.2,0-.4,0-.4-.1,0-.2,0-.4.1-.4.2,0,.4,0,.4.1Z"/>
        <path class="st11" d="M90.4,31.3c0,.2,0,.4-.1.4-.2,0-.4,0-.4-.1s0-.4.1-.4c.2,0,.4,0,.4.1Z"/>
        <path class="st11" d="M94.5,30.4c0,.2,0,.4-.1.4s-.4,0-.4-.1c0-.2,0-.4.1-.4.2,0,.4,0,.4.1Z"/>
        <path class="st11" d="M95.7,38.6c.1.2,0,.5-.2.6-.2.1-.5,0-.6-.2-.1-.2,0-.5.2-.6.2-.1.5,0,.6.2Z"/>
        <path class="st11" d="M98.9,35.1c.1.2,0,.5-.2.6-.2.1-.5,0-.6-.2-.1-.2,0-.5.2-.6s.5,0,.6.2Z"/>
        <path class="st11" d="M99.1,31.2c.1.2,0,.5-.2.6-.2.1-.5,0-.6-.2-.1-.2,0-.5.2-.6.2-.1.5,0,.6.2Z"/>
      </g>
    </g>
  </g>
</svg>