<?xml version="1.0" encoding="UTF-8"?>
<svg id="Layer_1" xmlns="http://www.w3.org/2000/svg" xmlns:xlink="http://www.w3.org/1999/xlink" version="1.1" viewBox="0 0 303.2 165.5">
  <!-- Generator: Adobe Illustrator 30.0.0, SVG Export Plug-In . SVG Version: 2.1.1 Build 123)  -->
  <defs>
    <style>
      .st0 {
        fill: none;
      }

      .st1 {
        clip-path: url(#clippath-1);
      }

      .st2 {
        fill: #03185a;
      }

      .st3 {
        fill: #7bbafd;
      }

      .st4 {
        fill: #ed473e;
      }

      .st5 {
        clip-path: url(#clippath);
      }
    </style>
    <clipPath id="clippath">
      <rect class="st0" y="0" width="194" height="165.9"/>
    </clipPath>
    <clipPath id="clippath-1">
      <rect class="st0" x="219.5" y="61.1" width="75.8" height="21.7"/>
    </clipPath>
  </defs>
  <path class="st2" d="M249.4,32.7c0,9.2-6.8,14.6-15.6,14.6s-15.3-4.2-15.7-14h9.8c.3,3.5,3.1,4.8,5.7,4.8s5.9-2.4,5.9-5.4-2.4-5.2-5.7-5.2-4.8,1.4-5.3,2.5h-9.2l5-23.4h23.4v9.2h-16l-1,5.1c1.4-.9,3.2-1.4,5.7-1.4,7,0,13.2,4.8,13.2,13.3h-.2,0Z"/>
  <path class="st2" d="M254.1,6.5h11.1l9.2,13.7,9.2-13.7h11.1v40.1h-9.7v-26.5l-10,15.3h-.9l-10-15.3v26.4h-9.7V6.5h-.3Z"/>
  <g>
    <path class="st2" d="M226.6,154.3h-2.6l-1.1-3.7-1.1-5h-.3l-1.1,5-1.1,3.7h-2.6l-3.1-11h2.2l1,3.5,1.3,5.2,1.3-5.2,1-3.5h2.7l.9,3.5,1.3,5.1,1.3-5.1.9-3.5h2.3l-3.1,11h-.1,0Z"/>
    <path class="st2" d="M242,148.8c0,3.3-2.5,5.7-5.7,5.7s-5.7-2.4-5.7-5.7,2.5-5.8,5.7-5.8,5.7,2.4,5.7,5.8ZM232.9,148.8c0,2.1,1.5,3.6,3.4,3.6s3.4-1.5,3.4-3.6-1.5-3.6-3.4-3.6-3.4,1.5-3.4,3.6Z"/>
    <path class="st2" d="M244.3,143.3h2.3v2.1c.7-1.5,1.9-2.4,3.7-2.4s.5,0,.7,0v2.3h-.7c-2.1,0-3.6,1.1-3.6,3.9v5h-2.3v-11h0Z"/>
    <path class="st2" d="M255,148l4.8-4.8h2.9l-5.4,5.2,5.8,5.8h-2.9l-5.2-5v5h-2.3v-15.4h2.3v9.1h0Z"/>
    <path class="st2" d="M263.4,148.8c0-3.3,2.3-5.8,5.7-5.8s5.8,2.7,5.6,6.4h-8.9c.1,2,1.6,3.1,3.4,3.1s2.4-.5,2.9-1.6h2.3c-.9,2.5-2.9,3.6-5.3,3.6-3.4,0-5.7-2.4-5.7-5.7h0ZM272.2,147.5c-.3-1.5-1.5-2.5-3.1-2.5s-2.9,1.1-3.2,2.5h6.4,0Z"/>
    <path class="st2" d="M276.8,143.3h2.3v2.1c.7-1.5,1.9-2.4,3.7-2.4s.5,0,.7,0v2.3h-.7c-2.1,0-3.6,1.1-3.6,3.9v5h-2.3v-11h-.1Z"/>
    <path class="st2" d="M284.7,150.7h2.3c.3,1.2,1.2,1.8,3.1,1.8s2.3-.5,2.3-1.3-1-1.1-2.9-1.5c-3.1-.7-4.4-1.4-4.4-3.2s1.9-3.5,4.6-3.5,4.4,1.3,4.8,3.4h-2.3c-.3-.9-1.1-1.3-2.5-1.3s-2.3.5-2.3,1.3.7.9,2.6,1.3c2.9.7,4.7,1.2,4.7,3.4s-2.1,3.5-4.7,3.5-5-1.4-5.4-3.8h0Z"/>
  </g>
  <g>
    <path class="st2" d="M220.3,119.6c.3,1.9,1.5,2.7,3.6,2.7s3.3-1,3.3-2.5-.7-2-2.9-2h-3.1v-5.1h2.6c1.6,0,2.8-.3,2.8-1.9s-.7-2.4-3-2.4-2.7.6-3,2.4h-5.9c.3-5.2,4.2-8,9.1-8s8.7,3.1,8.7,7.1-.9,3.8-2.5,4.8c2.1.9,3.3,2.9,3.3,5.5,0,4.8-3.6,7.5-9.1,7.5s-9.3-2.7-9.6-8.2h5.9-.2Z"/>
    <path class="st2" d="M242.7,124.4c0,1.9-1.5,3.4-3.6,3.4s-3.6-1.4-3.6-3.4,1.5-3.4,3.6-3.4,3.6,1.4,3.6,3.4Z"/>
    <path class="st2" d="M264.4,119c0,5.4-4,8.7-9.4,8.7s-9.2-2.5-9.4-8.4h5.9c.2,2.1,1.8,2.8,3.4,2.8s3.6-1.4,3.6-3.3-1.4-3.1-3.4-3.1-2.8.8-3.2,1.5h-5.6l2.9-14h14v5.6h-9.6l-.6,3c.9-.5,1.9-.8,3.4-.8,4.2,0,8,2.8,8,8h0Z"/>
    <path class="st2" d="M270.5,103.3h6.6l5.5,8.2,5.5-8.2h6.6v24h-5.8v-15.8l-6,9.2h-.5l-6-9.2v15.8h-5.8v-24h-.1Z"/>
  </g>
  <rect class="st3" x="213.2" y="133.1" width="83.6" height="3.2"/>
  <rect class="st4" x="217" y="51.2" width="79.7" height="3.1"/>
  <g class="st5">
    <image width="809" height="692" transform="translate(0 -.1) scale(.2)" xlink:href="workers-1.png"/>
  </g>
  <g>
    <rect class="st2" x="219.5" y="61.4" width="1.3" height="8.6"/>
    <g class="st1">
      <g>
        <path class="st2" d="M222,67c0-1.9,1.2-3.2,2.8-3.2s1.7.5,2.2,1.2v-1.1h1.3v6.1h-1.3v-1c-.5.7-1.2,1.2-2.1,1.2-1.6,0-2.8-1.3-2.8-3.2M227,67c0-1.2-.8-2-1.9-2s-1.8.8-1.8,2,.8,2,1.8,2,1.9-.8,1.9-2"/>
        <path class="st2" d="M230.4,67.7v-2.6h-1.1v-1.2h1.1v-1.4l1.3-.3v1.7h2.5v1.2h-2.5v2.5c0,.9.4,1.4,1.2,1.4s.8,0,1.3-.3l.2,1c-.3.2-1.1.4-1.8.4-1.3,0-2.2-.8-2.2-2.5"/>
        <path class="st2" d="M237,61.9c0,.5-.3.8-.8.8s-.8-.3-.8-.8.4-.8.8-.8.8.3.8.8M235.6,63.9h1.3v6.1h-1.3v-6.1Z"/>
        <path class="st2" d="M238.3,63.9h1.3v1c.4-.7,1.1-1.1,2.1-1.1s2.2.9,2.2,2.4v3.9h-1.3v-3.6c0-.9-.4-1.5-1.3-1.5s-1.7.7-1.7,1.9v3.2h-1.3v-6.1h0Z"/>
        <path class="st2" d="M251.4,67c0,1.8-1.4,3.2-3.2,3.2s-3.2-1.4-3.2-3.2,1.4-3.2,3.2-3.2,3.2,1.4,3.2,3.2M246.3,67c0,1.2.8,2,1.9,2s1.9-.8,1.9-2-.8-2-1.9-2-1.9.8-1.9,2"/>
        <rect class="st2" x="252.9" y="66.1" width="3.7" height="1.2"/>
        <path class="st2" d="M264.4,67c0,1.8-1.4,3.2-3.2,3.2s-3.2-1.4-3.2-3.2,1.4-3.2,3.2-3.2,3.2,1.4,3.2,3.2M259.3,67c0,1.2.8,2,1.9,2s1.9-.8,1.9-2-.8-2-1.9-2-1.9.8-1.9,2"/>
        <polygon class="st2" points="272.2 70 270.7 70 270.1 68 269.5 65.2 269.3 65.2 268.7 68 268.1 70 266.6 70 264.9 63.9 266.1 63.9 266.7 65.8 267.4 68.7 268.1 65.8 268.7 63.9 270.2 63.9 270.7 65.8 271.4 68.7 272.2 65.8 272.7 63.9 273.9 63.9 272.2 70"/>
        <path class="st2" d="M275,63.9h1.3v1c.4-.7,1.1-1.1,2.1-1.1s2.2.9,2.2,2.4v3.9h-1.3v-3.6c0-.9-.4-1.5-1.3-1.5s-1.7.7-1.7,1.9v3.2h-1.3v-6.1h0Z"/>
        <path class="st2" d="M281.7,67c0-1.9,1.3-3.2,3.2-3.2s3.2,1.5,3.1,3.6h-5c0,1.1.9,1.8,1.9,1.8s1.4-.3,1.6-.9h1.3c-.5,1.4-1.7,2-3,2-1.9,0-3.2-1.3-3.2-3.2M286.6,66.3c-.2-.8-.8-1.4-1.8-1.4s-1.6.6-1.8,1.4h3.6,0Z"/>
        <path class="st2" d="M289.1,67c0-1.9,1.2-3.2,2.8-3.2s1.7.5,2.2,1.2v-3.5h1.3v8.6h-1.3v-1c-.4.7-1.2,1.2-2.2,1.2-1.6,0-2.8-1.3-2.8-3.2M294.1,67c0-1.2-.8-2-1.9-2s-1.8.8-1.8,2,.8,2,1.8,2,1.9-.8,1.9-2"/>
        <path class="st2" d="M227.5,81.6v1h-1.3v-8.6h1.3v3.5c.5-.7,1.2-1.2,2.2-1.2,1.6,0,2.8,1.3,2.8,3.2s-1.2,3.2-2.8,3.2-1.7-.5-2.1-1.2M231.2,79.6c0-1.2-.8-2-1.8-2s-1.9.8-1.9,2,.8,2,1.9,2,1.8-.8,1.8-2"/>
        <path class="st2" d="M239.1,76.5v6.1h-1.3v-1c-.4.7-1.1,1.2-2,1.2-1.4,0-2.2-.9-2.2-2.4v-3.9h1.3v3.6c0,.9.4,1.5,1.3,1.5s1.6-.7,1.6-1.9v-3.2h1.3,0Z"/>
        <path class="st2" d="M240.3,80.7h1.3c.2.7.7,1,1.8,1s1.3-.2,1.3-.7-.6-.6-1.6-.8c-1.7-.4-2.4-.8-2.4-1.8s1.1-2,2.6-2,2.5.7,2.7,1.9h-1.3c-.2-.5-.6-.7-1.4-.7s-1.3.3-1.3.7.4.5,1.5.7c1.7.4,2.6.7,2.6,1.9s-1.2,2-2.6,2-2.8-.8-3-2.1"/>
        <path class="st2" d="M248.6,74.5c0,.5-.3.8-.8.8s-.8-.3-.8-.8.4-.8.8-.8.8.3.8.8M247.1,76.5h1.3v6.1h-1.3v-6.1Z"/>
        <path class="st2" d="M249.8,76.5h1.3v1c.4-.7,1.1-1.1,2.1-1.1s2.2.9,2.2,2.4v3.9h-1.3v-3.6c0-.9-.4-1.5-1.3-1.5s-1.7.7-1.7,1.9v3.2h-1.3v-6.1h0Z"/>
        <path class="st2" d="M256.6,79.6c0-1.9,1.3-3.2,3.2-3.2s3.2,1.5,3.1,3.6h-5c0,1.1.9,1.8,1.9,1.8s1.4-.3,1.6-.9h1.3c-.5,1.4-1.7,2-3,2-1.9,0-3.2-1.3-3.2-3.2M261.5,78.9c-.2-.8-.8-1.4-1.8-1.4s-1.6.6-1.8,1.4h3.6,0Z"/>
        <path class="st2" d="M263.8,80.7h1.3c.2.7.7,1,1.8,1s1.3-.2,1.3-.7-.6-.6-1.6-.8c-1.7-.4-2.4-.8-2.4-1.8s1.1-2,2.6-2,2.5.7,2.7,1.9h-1.3c-.2-.5-.6-.7-1.4-.7s-1.3.3-1.3.7.4.5,1.5.7c1.7.4,2.6.7,2.6,1.9s-1.2,2-2.6,2-2.8-.8-3-2.1"/>
        <path class="st2" d="M270.3,80.7h1.3c.2.7.7,1,1.8,1s1.3-.2,1.3-.7-.6-.6-1.6-.8c-1.7-.4-2.4-.8-2.4-1.8s1.1-2,2.6-2,2.5.7,2.7,1.9h-1.3c-.2-.5-.6-.7-1.4-.7s-1.3.3-1.3.7.4.5,1.5.7c1.7.4,2.6.7,2.6,1.9s-1.2,2-2.6,2-2.8-.8-3-2.1"/>
        <path class="st2" d="M277,79.6c0-1.9,1.3-3.2,3.2-3.2s3.2,1.5,3.1,3.6h-5c0,1.1.9,1.8,1.9,1.8s1.4-.3,1.6-.9h1.3c-.5,1.4-1.7,2-3,2-1.9,0-3.2-1.3-3.2-3.2M281.9,78.9c-.2-.8-.8-1.4-1.8-1.4s-1.6.6-1.8,1.4h3.6,0Z"/>
        <path class="st2" d="M284.2,80.7h1.3c.2.7.7,1,1.8,1s1.3-.2,1.3-.7-.6-.6-1.6-.8c-1.7-.4-2.4-.8-2.4-1.8s1.1-2,2.6-2,2.5.7,2.7,1.9h-1.3c-.2-.5-.6-.7-1.4-.7s-1.3.3-1.3.7.4.5,1.5.7c1.7.4,2.6.7,2.6,1.9s-1.2,2-2.6,2-2.8-.8-3-2.1"/>
      </g>
    </g>
  </g>
</svg>